<?xml version="1.0" encoding="utf-8" standalone="no"?>
<!DOCTYPE svg PUBLIC "-//W3C//DTD SVG 1.1//EN"
  "http://www.w3.org/Graphics/SVG/1.1/DTD/svg11.dtd">
<!-- Created with matplotlib (https://matplotlib.org/) -->
<svg height="432pt" version="1.1" viewBox="0 0 504 432" width="504pt" xmlns="http://www.w3.org/2000/svg" xmlns:xlink="http://www.w3.org/1999/xlink">
 <metadata>
  <rdf:RDF xmlns:cc="http://creativecommons.org/ns#" xmlns:dc="http://purl.org/dc/elements/1.1/" xmlns:rdf="http://www.w3.org/1999/02/22-rdf-syntax-ns#">
   <cc:Work>
    <dc:type rdf:resource="http://purl.org/dc/dcmitype/StillImage"/>
    <dc:date>2023-05-13T14:54:53.566235</dc:date>
    <dc:format>image/svg+xml</dc:format>
    <dc:creator>
     <cc:Agent>
      <dc:title>Matplotlib v3.3.2, https://matplotlib.org/</dc:title>
     </cc:Agent>
    </dc:creator>
   </cc:Work>
  </rdf:RDF>
 </metadata>
 <defs>
  <style type="text/css">*{stroke-linecap:butt;stroke-linejoin:round;}</style>
 </defs>
 <g id="figure_1">
  <g id="patch_1">
   <path d="M 0 432 
L 504 432 
L 504 0 
L 0 0 
z
" style="fill:#ffffff;"/>
  </g>
  <g id="axes_1">
   <g id="patch_2">
    <path d="M 103.284 386.5 
L 484.56 386.5 
L 484.56 124.176 
L 103.284 124.176 
z
" style="fill:#ffffff;"/>
   </g>
   <g id="matplotlib.axis_1">
    <g id="xtick_1">
     <g id="text_1">
      <!-- HLCA -->
      <g style="fill:#262626;" transform="translate(144.624609 408.537422)scale(0.165 -0.165)">
       <defs>
        <path d="M 9.8125 72.90625 
L 19.671875 72.90625 
L 19.671875 43.015625 
L 55.515625 43.015625 
L 55.515625 72.90625 
L 65.375 72.90625 
L 65.375 0 
L 55.515625 0 
L 55.515625 34.71875 
L 19.671875 34.71875 
L 19.671875 0 
L 9.8125 0 
z
" id="DejaVuSans-72"/>
        <path d="M 9.8125 72.90625 
L 19.671875 72.90625 
L 19.671875 8.296875 
L 55.171875 8.296875 
L 55.171875 0 
L 9.8125 0 
z
" id="DejaVuSans-76"/>
        <path d="M 64.40625 67.28125 
L 64.40625 56.890625 
Q 59.421875 61.53125 53.78125 63.8125 
Q 48.140625 66.109375 41.796875 66.109375 
Q 29.296875 66.109375 22.65625 58.46875 
Q 16.015625 50.828125 16.015625 36.375 
Q 16.015625 21.96875 22.65625 14.328125 
Q 29.296875 6.6875 41.796875 6.6875 
Q 48.140625 6.6875 53.78125 8.984375 
Q 59.421875 11.28125 64.40625 15.921875 
L 64.40625 5.609375 
Q 59.234375 2.09375 53.4375 0.328125 
Q 47.65625 -1.421875 41.21875 -1.421875 
Q 24.65625 -1.421875 15.125 8.703125 
Q 5.609375 18.84375 5.609375 36.375 
Q 5.609375 53.953125 15.125 64.078125 
Q 24.65625 74.21875 41.21875 74.21875 
Q 47.75 74.21875 53.53125 72.484375 
Q 59.328125 70.75 64.40625 67.28125 
z
" id="DejaVuSans-67"/>
        <path d="M 34.1875 63.1875 
L 20.796875 26.90625 
L 47.609375 26.90625 
z
M 28.609375 72.90625 
L 39.796875 72.90625 
L 67.578125 0 
L 57.328125 0 
L 50.6875 18.703125 
L 17.828125 18.703125 
L 11.1875 0 
L 0.78125 0 
z
" id="DejaVuSans-65"/>
       </defs>
       <use xlink:href="#DejaVuSans-72"/>
       <use x="75.195312" xlink:href="#DejaVuSans-76"/>
       <use x="130.908203" xlink:href="#DejaVuSans-67"/>
       <use x="200.732422" xlink:href="#DejaVuSans-65"/>
      </g>
     </g>
    </g>
    <g id="xtick_2">
     <g id="text_2">
      <!-- Nuc-seq -->
      <g style="fill:#262626;" transform="translate(260.397352 408.537422)scale(0.165 -0.165)">
       <defs>
        <path d="M 9.8125 72.90625 
L 23.09375 72.90625 
L 55.421875 11.921875 
L 55.421875 72.90625 
L 64.984375 72.90625 
L 64.984375 0 
L 51.703125 0 
L 19.390625 60.984375 
L 19.390625 0 
L 9.8125 0 
z
" id="DejaVuSans-78"/>
        <path d="M 8.5 21.578125 
L 8.5 54.6875 
L 17.484375 54.6875 
L 17.484375 21.921875 
Q 17.484375 14.15625 20.5 10.265625 
Q 23.53125 6.390625 29.59375 6.390625 
Q 36.859375 6.390625 41.078125 11.03125 
Q 45.3125 15.671875 45.3125 23.6875 
L 45.3125 54.6875 
L 54.296875 54.6875 
L 54.296875 0 
L 45.3125 0 
L 45.3125 8.40625 
Q 42.046875 3.421875 37.71875 1 
Q 33.40625 -1.421875 27.6875 -1.421875 
Q 18.265625 -1.421875 13.375 4.4375 
Q 8.5 10.296875 8.5 21.578125 
z
M 31.109375 56 
z
" id="DejaVuSans-117"/>
        <path d="M 48.78125 52.59375 
L 48.78125 44.1875 
Q 44.96875 46.296875 41.140625 47.34375 
Q 37.3125 48.390625 33.40625 48.390625 
Q 24.65625 48.390625 19.8125 42.84375 
Q 14.984375 37.3125 14.984375 27.296875 
Q 14.984375 17.28125 19.8125 11.734375 
Q 24.65625 6.203125 33.40625 6.203125 
Q 37.3125 6.203125 41.140625 7.25 
Q 44.96875 8.296875 48.78125 10.40625 
L 48.78125 2.09375 
Q 45.015625 0.34375 40.984375 -0.53125 
Q 36.96875 -1.421875 32.421875 -1.421875 
Q 20.0625 -1.421875 12.78125 6.34375 
Q 5.515625 14.109375 5.515625 27.296875 
Q 5.515625 40.671875 12.859375 48.328125 
Q 20.21875 56 33.015625 56 
Q 37.15625 56 41.109375 55.140625 
Q 45.0625 54.296875 48.78125 52.59375 
z
" id="DejaVuSans-99"/>
        <path d="M 4.890625 31.390625 
L 31.203125 31.390625 
L 31.203125 23.390625 
L 4.890625 23.390625 
z
" id="DejaVuSans-45"/>
        <path d="M 44.28125 53.078125 
L 44.28125 44.578125 
Q 40.484375 46.53125 36.375 47.5 
Q 32.28125 48.484375 27.875 48.484375 
Q 21.1875 48.484375 17.84375 46.4375 
Q 14.5 44.390625 14.5 40.28125 
Q 14.5 37.15625 16.890625 35.375 
Q 19.28125 33.59375 26.515625 31.984375 
L 29.59375 31.296875 
Q 39.15625 29.25 43.1875 25.515625 
Q 47.21875 21.78125 47.21875 15.09375 
Q 47.21875 7.46875 41.1875 3.015625 
Q 35.15625 -1.421875 24.609375 -1.421875 
Q 20.21875 -1.421875 15.453125 -0.5625 
Q 10.6875 0.296875 5.421875 2 
L 5.421875 11.28125 
Q 10.40625 8.6875 15.234375 7.390625 
Q 20.0625 6.109375 24.8125 6.109375 
Q 31.15625 6.109375 34.5625 8.28125 
Q 37.984375 10.453125 37.984375 14.40625 
Q 37.984375 18.0625 35.515625 20.015625 
Q 33.0625 21.96875 24.703125 23.78125 
L 21.578125 24.515625 
Q 13.234375 26.265625 9.515625 29.90625 
Q 5.8125 33.546875 5.8125 39.890625 
Q 5.8125 47.609375 11.28125 51.796875 
Q 16.75 56 26.8125 56 
Q 31.78125 56 36.171875 55.265625 
Q 40.578125 54.546875 44.28125 53.078125 
z
" id="DejaVuSans-115"/>
        <path d="M 56.203125 29.59375 
L 56.203125 25.203125 
L 14.890625 25.203125 
Q 15.484375 15.921875 20.484375 11.0625 
Q 25.484375 6.203125 34.421875 6.203125 
Q 39.59375 6.203125 44.453125 7.46875 
Q 49.3125 8.734375 54.109375 11.28125 
L 54.109375 2.78125 
Q 49.265625 0.734375 44.1875 -0.34375 
Q 39.109375 -1.421875 33.890625 -1.421875 
Q 20.796875 -1.421875 13.15625 6.1875 
Q 5.515625 13.8125 5.515625 26.8125 
Q 5.515625 40.234375 12.765625 48.109375 
Q 20.015625 56 32.328125 56 
Q 43.359375 56 49.78125 48.890625 
Q 56.203125 41.796875 56.203125 29.59375 
z
M 47.21875 32.234375 
Q 47.125 39.59375 43.09375 43.984375 
Q 39.0625 48.390625 32.421875 48.390625 
Q 24.90625 48.390625 20.390625 44.140625 
Q 15.875 39.890625 15.1875 32.171875 
z
" id="DejaVuSans-101"/>
        <path d="M 14.796875 27.296875 
Q 14.796875 17.390625 18.875 11.75 
Q 22.953125 6.109375 30.078125 6.109375 
Q 37.203125 6.109375 41.296875 11.75 
Q 45.40625 17.390625 45.40625 27.296875 
Q 45.40625 37.203125 41.296875 42.84375 
Q 37.203125 48.484375 30.078125 48.484375 
Q 22.953125 48.484375 18.875 42.84375 
Q 14.796875 37.203125 14.796875 27.296875 
z
M 45.40625 8.203125 
Q 42.578125 3.328125 38.25 0.953125 
Q 33.9375 -1.421875 27.875 -1.421875 
Q 17.96875 -1.421875 11.734375 6.484375 
Q 5.515625 14.40625 5.515625 27.296875 
Q 5.515625 40.1875 11.734375 48.09375 
Q 17.96875 56 27.875 56 
Q 33.9375 56 38.25 53.625 
Q 42.578125 51.265625 45.40625 46.390625 
L 45.40625 54.6875 
L 54.390625 54.6875 
L 54.390625 -20.796875 
L 45.40625 -20.796875 
z
" id="DejaVuSans-113"/>
       </defs>
       <use xlink:href="#DejaVuSans-78"/>
       <use x="74.804688" xlink:href="#DejaVuSans-117"/>
       <use x="138.183594" xlink:href="#DejaVuSans-99"/>
       <use x="193.164062" xlink:href="#DejaVuSans-45"/>
       <use x="229.248047" xlink:href="#DejaVuSans-115"/>
       <use x="281.347656" xlink:href="#DejaVuSans-101"/>
       <use x="342.871094" xlink:href="#DejaVuSans-113"/>
      </g>
     </g>
    </g>
    <g id="xtick_3">
     <g id="text_3">
      <!-- Cross-dataset -->
      <g style="fill:#262626;" transform="translate(364.235953 408.537422)scale(0.165 -0.165)">
       <defs>
        <path d="M 41.109375 46.296875 
Q 39.59375 47.171875 37.8125 47.578125 
Q 36.03125 48 33.890625 48 
Q 26.265625 48 22.1875 43.046875 
Q 18.109375 38.09375 18.109375 28.8125 
L 18.109375 0 
L 9.078125 0 
L 9.078125 54.6875 
L 18.109375 54.6875 
L 18.109375 46.1875 
Q 20.953125 51.171875 25.484375 53.578125 
Q 30.03125 56 36.53125 56 
Q 37.453125 56 38.578125 55.875 
Q 39.703125 55.765625 41.0625 55.515625 
z
" id="DejaVuSans-114"/>
        <path d="M 30.609375 48.390625 
Q 23.390625 48.390625 19.1875 42.75 
Q 14.984375 37.109375 14.984375 27.296875 
Q 14.984375 17.484375 19.15625 11.84375 
Q 23.34375 6.203125 30.609375 6.203125 
Q 37.796875 6.203125 41.984375 11.859375 
Q 46.1875 17.53125 46.1875 27.296875 
Q 46.1875 37.015625 41.984375 42.703125 
Q 37.796875 48.390625 30.609375 48.390625 
z
M 30.609375 56 
Q 42.328125 56 49.015625 48.375 
Q 55.71875 40.765625 55.71875 27.296875 
Q 55.71875 13.875 49.015625 6.21875 
Q 42.328125 -1.421875 30.609375 -1.421875 
Q 18.84375 -1.421875 12.171875 6.21875 
Q 5.515625 13.875 5.515625 27.296875 
Q 5.515625 40.765625 12.171875 48.375 
Q 18.84375 56 30.609375 56 
z
" id="DejaVuSans-111"/>
        <path d="M 45.40625 46.390625 
L 45.40625 75.984375 
L 54.390625 75.984375 
L 54.390625 0 
L 45.40625 0 
L 45.40625 8.203125 
Q 42.578125 3.328125 38.25 0.953125 
Q 33.9375 -1.421875 27.875 -1.421875 
Q 17.96875 -1.421875 11.734375 6.484375 
Q 5.515625 14.40625 5.515625 27.296875 
Q 5.515625 40.1875 11.734375 48.09375 
Q 17.96875 56 27.875 56 
Q 33.9375 56 38.25 53.625 
Q 42.578125 51.265625 45.40625 46.390625 
z
M 14.796875 27.296875 
Q 14.796875 17.390625 18.875 11.75 
Q 22.953125 6.109375 30.078125 6.109375 
Q 37.203125 6.109375 41.296875 11.75 
Q 45.40625 17.390625 45.40625 27.296875 
Q 45.40625 37.203125 41.296875 42.84375 
Q 37.203125 48.484375 30.078125 48.484375 
Q 22.953125 48.484375 18.875 42.84375 
Q 14.796875 37.203125 14.796875 27.296875 
z
" id="DejaVuSans-100"/>
        <path d="M 34.28125 27.484375 
Q 23.390625 27.484375 19.1875 25 
Q 14.984375 22.515625 14.984375 16.5 
Q 14.984375 11.71875 18.140625 8.90625 
Q 21.296875 6.109375 26.703125 6.109375 
Q 34.1875 6.109375 38.703125 11.40625 
Q 43.21875 16.703125 43.21875 25.484375 
L 43.21875 27.484375 
z
M 52.203125 31.203125 
L 52.203125 0 
L 43.21875 0 
L 43.21875 8.296875 
Q 40.140625 3.328125 35.546875 0.953125 
Q 30.953125 -1.421875 24.3125 -1.421875 
Q 15.921875 -1.421875 10.953125 3.296875 
Q 6 8.015625 6 15.921875 
Q 6 25.140625 12.171875 29.828125 
Q 18.359375 34.515625 30.609375 34.515625 
L 43.21875 34.515625 
L 43.21875 35.40625 
Q 43.21875 41.609375 39.140625 45 
Q 35.0625 48.390625 27.6875 48.390625 
Q 23 48.390625 18.546875 47.265625 
Q 14.109375 46.140625 10.015625 43.890625 
L 10.015625 52.203125 
Q 14.9375 54.109375 19.578125 55.046875 
Q 24.21875 56 28.609375 56 
Q 40.484375 56 46.34375 49.84375 
Q 52.203125 43.703125 52.203125 31.203125 
z
" id="DejaVuSans-97"/>
        <path d="M 18.3125 70.21875 
L 18.3125 54.6875 
L 36.8125 54.6875 
L 36.8125 47.703125 
L 18.3125 47.703125 
L 18.3125 18.015625 
Q 18.3125 11.328125 20.140625 9.421875 
Q 21.96875 7.515625 27.59375 7.515625 
L 36.8125 7.515625 
L 36.8125 0 
L 27.59375 0 
Q 17.1875 0 13.234375 3.875 
Q 9.28125 7.765625 9.28125 18.015625 
L 9.28125 47.703125 
L 2.6875 47.703125 
L 2.6875 54.6875 
L 9.28125 54.6875 
L 9.28125 70.21875 
z
" id="DejaVuSans-116"/>
       </defs>
       <use xlink:href="#DejaVuSans-67"/>
       <use x="69.824219" xlink:href="#DejaVuSans-114"/>
       <use x="108.6875" xlink:href="#DejaVuSans-111"/>
       <use x="169.869141" xlink:href="#DejaVuSans-115"/>
       <use x="221.96875" xlink:href="#DejaVuSans-115"/>
       <use x="274.068359" xlink:href="#DejaVuSans-45"/>
       <use x="310.152344" xlink:href="#DejaVuSans-100"/>
       <use x="373.628906" xlink:href="#DejaVuSans-97"/>
       <use x="434.908203" xlink:href="#DejaVuSans-116"/>
       <use x="474.117188" xlink:href="#DejaVuSans-97"/>
       <use x="535.396484" xlink:href="#DejaVuSans-115"/>
       <use x="587.496094" xlink:href="#DejaVuSans-101"/>
       <use x="649.019531" xlink:href="#DejaVuSans-116"/>
      </g>
     </g>
    </g>
   </g>
   <g id="matplotlib.axis_2">
    <g id="ytick_1">
     <g id="text_4">
      <!-- −4.00 -->
      <g style="fill:#262626;" transform="translate(43.219234 392.768711)scale(0.165 -0.165)">
       <defs>
        <path d="M 10.59375 35.5 
L 73.1875 35.5 
L 73.1875 27.203125 
L 10.59375 27.203125 
z
" id="DejaVuSans-8722"/>
        <path d="M 37.796875 64.3125 
L 12.890625 25.390625 
L 37.796875 25.390625 
z
M 35.203125 72.90625 
L 47.609375 72.90625 
L 47.609375 25.390625 
L 58.015625 25.390625 
L 58.015625 17.1875 
L 47.609375 17.1875 
L 47.609375 0 
L 37.796875 0 
L 37.796875 17.1875 
L 4.890625 17.1875 
L 4.890625 26.703125 
z
" id="DejaVuSans-52"/>
        <path d="M 10.6875 12.40625 
L 21 12.40625 
L 21 0 
L 10.6875 0 
z
" id="DejaVuSans-46"/>
        <path d="M 31.78125 66.40625 
Q 24.171875 66.40625 20.328125 58.90625 
Q 16.5 51.421875 16.5 36.375 
Q 16.5 21.390625 20.328125 13.890625 
Q 24.171875 6.390625 31.78125 6.390625 
Q 39.453125 6.390625 43.28125 13.890625 
Q 47.125 21.390625 47.125 36.375 
Q 47.125 51.421875 43.28125 58.90625 
Q 39.453125 66.40625 31.78125 66.40625 
z
M 31.78125 74.21875 
Q 44.046875 74.21875 50.515625 64.515625 
Q 56.984375 54.828125 56.984375 36.375 
Q 56.984375 17.96875 50.515625 8.265625 
Q 44.046875 -1.421875 31.78125 -1.421875 
Q 19.53125 -1.421875 13.0625 8.265625 
Q 6.59375 17.96875 6.59375 36.375 
Q 6.59375 54.828125 13.0625 64.515625 
Q 19.53125 74.21875 31.78125 74.21875 
z
" id="DejaVuSans-48"/>
       </defs>
       <use xlink:href="#DejaVuSans-8722"/>
       <use x="83.789062" xlink:href="#DejaVuSans-52"/>
       <use x="147.412109" xlink:href="#DejaVuSans-46"/>
       <use x="179.199219" xlink:href="#DejaVuSans-48"/>
       <use x="242.822266" xlink:href="#DejaVuSans-48"/>
      </g>
     </g>
    </g>
    <g id="ytick_2">
     <g id="text_5">
      <!-- −3.00 -->
      <g style="fill:#262626;" transform="translate(43.219234 340.303911)scale(0.165 -0.165)">
       <defs>
        <path d="M 40.578125 39.3125 
Q 47.65625 37.796875 51.625 33 
Q 55.609375 28.21875 55.609375 21.1875 
Q 55.609375 10.40625 48.1875 4.484375 
Q 40.765625 -1.421875 27.09375 -1.421875 
Q 22.515625 -1.421875 17.65625 -0.515625 
Q 12.796875 0.390625 7.625 2.203125 
L 7.625 11.71875 
Q 11.71875 9.328125 16.59375 8.109375 
Q 21.484375 6.890625 26.8125 6.890625 
Q 36.078125 6.890625 40.9375 10.546875 
Q 45.796875 14.203125 45.796875 21.1875 
Q 45.796875 27.640625 41.28125 31.265625 
Q 36.765625 34.90625 28.71875 34.90625 
L 20.21875 34.90625 
L 20.21875 43.015625 
L 29.109375 43.015625 
Q 36.375 43.015625 40.234375 45.921875 
Q 44.09375 48.828125 44.09375 54.296875 
Q 44.09375 59.90625 40.109375 62.90625 
Q 36.140625 65.921875 28.71875 65.921875 
Q 24.65625 65.921875 20.015625 65.03125 
Q 15.375 64.15625 9.8125 62.3125 
L 9.8125 71.09375 
Q 15.4375 72.65625 20.34375 73.4375 
Q 25.25 74.21875 29.59375 74.21875 
Q 40.828125 74.21875 47.359375 69.109375 
Q 53.90625 64.015625 53.90625 55.328125 
Q 53.90625 49.265625 50.4375 45.09375 
Q 46.96875 40.921875 40.578125 39.3125 
z
" id="DejaVuSans-51"/>
       </defs>
       <use xlink:href="#DejaVuSans-8722"/>
       <use x="83.789062" xlink:href="#DejaVuSans-51"/>
       <use x="147.412109" xlink:href="#DejaVuSans-46"/>
       <use x="179.199219" xlink:href="#DejaVuSans-48"/>
       <use x="242.822266" xlink:href="#DejaVuSans-48"/>
      </g>
     </g>
    </g>
    <g id="ytick_3">
     <g id="text_6">
      <!-- −2.00 -->
      <g style="fill:#262626;" transform="translate(43.219234 287.839111)scale(0.165 -0.165)">
       <defs>
        <path d="M 19.1875 8.296875 
L 53.609375 8.296875 
L 53.609375 0 
L 7.328125 0 
L 7.328125 8.296875 
Q 12.9375 14.109375 22.625 23.890625 
Q 32.328125 33.6875 34.8125 36.53125 
Q 39.546875 41.84375 41.421875 45.53125 
Q 43.3125 49.21875 43.3125 52.78125 
Q 43.3125 58.59375 39.234375 62.25 
Q 35.15625 65.921875 28.609375 65.921875 
Q 23.96875 65.921875 18.8125 64.3125 
Q 13.671875 62.703125 7.8125 59.421875 
L 7.8125 69.390625 
Q 13.765625 71.78125 18.9375 73 
Q 24.125 74.21875 28.421875 74.21875 
Q 39.75 74.21875 46.484375 68.546875 
Q 53.21875 62.890625 53.21875 53.421875 
Q 53.21875 48.921875 51.53125 44.890625 
Q 49.859375 40.875 45.40625 35.40625 
Q 44.1875 33.984375 37.640625 27.21875 
Q 31.109375 20.453125 19.1875 8.296875 
z
" id="DejaVuSans-50"/>
       </defs>
       <use xlink:href="#DejaVuSans-8722"/>
       <use x="83.789062" xlink:href="#DejaVuSans-50"/>
       <use x="147.412109" xlink:href="#DejaVuSans-46"/>
       <use x="179.199219" xlink:href="#DejaVuSans-48"/>
       <use x="242.822266" xlink:href="#DejaVuSans-48"/>
      </g>
     </g>
    </g>
    <g id="ytick_4">
     <g id="text_7">
      <!-- −1.00 -->
      <g style="fill:#262626;" transform="translate(43.219234 235.374311)scale(0.165 -0.165)">
       <defs>
        <path d="M 12.40625 8.296875 
L 28.515625 8.296875 
L 28.515625 63.921875 
L 10.984375 60.40625 
L 10.984375 69.390625 
L 28.421875 72.90625 
L 38.28125 72.90625 
L 38.28125 8.296875 
L 54.390625 8.296875 
L 54.390625 0 
L 12.40625 0 
z
" id="DejaVuSans-49"/>
       </defs>
       <use xlink:href="#DejaVuSans-8722"/>
       <use x="83.789062" xlink:href="#DejaVuSans-49"/>
       <use x="147.412109" xlink:href="#DejaVuSans-46"/>
       <use x="179.199219" xlink:href="#DejaVuSans-48"/>
       <use x="242.822266" xlink:href="#DejaVuSans-48"/>
      </g>
     </g>
    </g>
    <g id="ytick_5">
     <g id="text_8">
      <!-- 0.00 -->
      <g style="fill:#262626;" transform="translate(57.045719 182.909511)scale(0.165 -0.165)">
       <use xlink:href="#DejaVuSans-48"/>
       <use x="63.623047" xlink:href="#DejaVuSans-46"/>
       <use x="95.410156" xlink:href="#DejaVuSans-48"/>
       <use x="159.033203" xlink:href="#DejaVuSans-48"/>
      </g>
     </g>
    </g>
    <g id="ytick_6">
     <g id="text_9">
      <!-- 0.25 -->
      <g style="fill:#262626;" transform="translate(57.045719 169.793311)scale(0.165 -0.165)">
       <defs>
        <path d="M 10.796875 72.90625 
L 49.515625 72.90625 
L 49.515625 64.59375 
L 19.828125 64.59375 
L 19.828125 46.734375 
Q 21.96875 47.46875 24.109375 47.828125 
Q 26.265625 48.1875 28.421875 48.1875 
Q 40.625 48.1875 47.75 41.5 
Q 54.890625 34.8125 54.890625 23.390625 
Q 54.890625 11.625 47.5625 5.09375 
Q 40.234375 -1.421875 26.90625 -1.421875 
Q 22.3125 -1.421875 17.546875 -0.640625 
Q 12.796875 0.140625 7.71875 1.703125 
L 7.71875 11.625 
Q 12.109375 9.234375 16.796875 8.0625 
Q 21.484375 6.890625 26.703125 6.890625 
Q 35.15625 6.890625 40.078125 11.328125 
Q 45.015625 15.765625 45.015625 23.390625 
Q 45.015625 31 40.078125 35.4375 
Q 35.15625 39.890625 26.703125 39.890625 
Q 22.75 39.890625 18.8125 39.015625 
Q 14.890625 38.140625 10.796875 36.28125 
z
" id="DejaVuSans-53"/>
       </defs>
       <use xlink:href="#DejaVuSans-48"/>
       <use x="63.623047" xlink:href="#DejaVuSans-46"/>
       <use x="95.410156" xlink:href="#DejaVuSans-50"/>
       <use x="159.033203" xlink:href="#DejaVuSans-53"/>
      </g>
     </g>
    </g>
    <g id="ytick_7">
     <g id="text_10">
      <!-- 0.50 -->
      <g style="fill:#262626;" transform="translate(57.045719 156.677111)scale(0.165 -0.165)">
       <use xlink:href="#DejaVuSans-48"/>
       <use x="63.623047" xlink:href="#DejaVuSans-46"/>
       <use x="95.410156" xlink:href="#DejaVuSans-53"/>
       <use x="159.033203" xlink:href="#DejaVuSans-48"/>
      </g>
     </g>
    </g>
    <g id="ytick_8">
     <g id="text_11">
      <!-- 0.75 -->
      <g style="fill:#262626;" transform="translate(57.045719 143.560911)scale(0.165 -0.165)">
       <defs>
        <path d="M 8.203125 72.90625 
L 55.078125 72.90625 
L 55.078125 68.703125 
L 28.609375 0 
L 18.3125 0 
L 43.21875 64.59375 
L 8.203125 64.59375 
z
" id="DejaVuSans-55"/>
       </defs>
       <use xlink:href="#DejaVuSans-48"/>
       <use x="63.623047" xlink:href="#DejaVuSans-46"/>
       <use x="95.410156" xlink:href="#DejaVuSans-55"/>
       <use x="159.033203" xlink:href="#DejaVuSans-53"/>
      </g>
     </g>
    </g>
    <g id="ytick_9">
     <g id="text_12">
      <!-- 1.00 -->
      <g style="fill:#262626;" transform="translate(57.045719 130.444711)scale(0.165 -0.165)">
       <use xlink:href="#DejaVuSans-49"/>
       <use x="63.623047" xlink:href="#DejaVuSans-46"/>
       <use x="95.410156" xlink:href="#DejaVuSans-48"/>
       <use x="159.033203" xlink:href="#DejaVuSans-48"/>
      </g>
     </g>
    </g>
    <g id="text_13">
     <!-- Mean of $R^2$ -->
     <g style="fill:#262626;" transform="translate(35.475797 305.468)rotate(-90)scale(0.18 -0.18)">
      <defs>
       <path d="M 9.8125 72.90625 
L 24.515625 72.90625 
L 43.109375 23.296875 
L 61.8125 72.90625 
L 76.515625 72.90625 
L 76.515625 0 
L 66.890625 0 
L 66.890625 64.015625 
L 48.09375 14.015625 
L 38.1875 14.015625 
L 19.390625 64.015625 
L 19.390625 0 
L 9.8125 0 
z
" id="DejaVuSans-77"/>
       <path d="M 54.890625 33.015625 
L 54.890625 0 
L 45.90625 0 
L 45.90625 32.71875 
Q 45.90625 40.484375 42.875 44.328125 
Q 39.84375 48.1875 33.796875 48.1875 
Q 26.515625 48.1875 22.3125 43.546875 
Q 18.109375 38.921875 18.109375 30.90625 
L 18.109375 0 
L 9.078125 0 
L 9.078125 54.6875 
L 18.109375 54.6875 
L 18.109375 46.1875 
Q 21.34375 51.125 25.703125 53.5625 
Q 30.078125 56 35.796875 56 
Q 45.21875 56 50.046875 50.171875 
Q 54.890625 44.34375 54.890625 33.015625 
z
" id="DejaVuSans-110"/>
       <path id="DejaVuSans-32"/>
       <path d="M 37.109375 75.984375 
L 37.109375 68.5 
L 28.515625 68.5 
Q 23.6875 68.5 21.796875 66.546875 
Q 19.921875 64.59375 19.921875 59.515625 
L 19.921875 54.6875 
L 34.71875 54.6875 
L 34.71875 47.703125 
L 19.921875 47.703125 
L 19.921875 0 
L 10.890625 0 
L 10.890625 47.703125 
L 2.296875 47.703125 
L 2.296875 54.6875 
L 10.890625 54.6875 
L 10.890625 58.5 
Q 10.890625 67.625 15.140625 71.796875 
Q 19.390625 75.984375 28.609375 75.984375 
z
" id="DejaVuSans-102"/>
       <path d="M 25.203125 64.796875 
L 20.21875 38.921875 
L 32.90625 38.921875 
Q 40.375 38.921875 44.984375 43.046875 
Q 49.609375 47.171875 49.609375 53.8125 
Q 49.609375 59.125 46.5 61.953125 
Q 43.40625 64.796875 37.59375 64.796875 
z
M 43.3125 35.015625 
Q 46.4375 34.28125 48.515625 31.390625 
Q 50.59375 28.515625 53.328125 19.921875 
L 59.515625 0 
L 49.125 0 
L 43.40625 18.703125 
Q 41.21875 25.921875 38.328125 28.359375 
Q 35.453125 30.8125 29.5 30.8125 
L 18.609375 30.8125 
L 12.59375 0 
L 2.6875 0 
L 16.890625 72.90625 
L 39.109375 72.90625 
Q 49.21875 72.90625 54.609375 68.328125 
Q 60.015625 63.765625 60.015625 55.171875 
Q 60.015625 47.5625 55.421875 41.984375 
Q 50.828125 36.421875 43.3125 35.015625 
z
" id="DejaVuSans-Oblique-82"/>
      </defs>
      <use transform="translate(0 0.765625)" xlink:href="#DejaVuSans-77"/>
      <use transform="translate(86.279297 0.765625)" xlink:href="#DejaVuSans-101"/>
      <use transform="translate(147.802734 0.765625)" xlink:href="#DejaVuSans-97"/>
      <use transform="translate(209.082031 0.765625)" xlink:href="#DejaVuSans-110"/>
      <use transform="translate(272.460938 0.765625)" xlink:href="#DejaVuSans-32"/>
      <use transform="translate(304.248047 0.765625)" xlink:href="#DejaVuSans-111"/>
      <use transform="translate(365.429688 0.765625)" xlink:href="#DejaVuSans-102"/>
      <use transform="translate(400.634766 0.765625)" xlink:href="#DejaVuSans-32"/>
      <use transform="translate(432.421875 0.765625)" xlink:href="#DejaVuSans-Oblique-82"/>
      <use transform="translate(508.921068 39.046875)scale(0.7)" xlink:href="#DejaVuSans-50"/>
     </g>
    </g>
   </g>
   <g id="patch_3">
    <path clip-path="url(#p9fae7844e2)" d="M 116.247384 147.368565 
L 141.157416 147.368565 
L 141.157416 138.151675 
L 116.247384 138.151675 
L 116.247384 147.368565 
z
" style="fill:#9ce29c;stroke:#646464;stroke-linejoin:miter;stroke-width:1.5;"/>
   </g>
   <g id="patch_4">
    <path clip-path="url(#p9fae7844e2)" d="M 141.665784 170.068891 
L 166.575816 170.068891 
L 166.575816 143.211899 
L 141.665784 143.211899 
L 141.665784 170.068891 
z
" style="fill:#95cbec;stroke:#646464;stroke-linejoin:miter;stroke-width:1.5;"/>
   </g>
   <g id="patch_5">
    <path clip-path="url(#p9fae7844e2)" d="M 167.084184 186.547285 
L 191.994216 186.547285 
L 191.994216 141.964954 
L 167.084184 141.964954 
L 167.084184 186.547285 
z
" style="fill:#e98966;stroke:#646464;stroke-linejoin:miter;stroke-width:1.5;"/>
   </g>
   <g id="patch_6">
    <path clip-path="url(#p9fae7844e2)" d="M 192.502584 177.503267 
L 217.412616 177.503267 
L 217.412616 146.755311 
L 192.502584 146.755311 
L 192.502584 177.503267 
z
" style="fill:#f8e3cb;stroke:#646464;stroke-linejoin:miter;stroke-width:1.5;"/>
   </g>
   <g id="patch_7">
    <path clip-path="url(#p9fae7844e2)" d="M 243.339384 154.968686 
L 268.249416 154.968686 
L 268.249416 148.841404 
L 243.339384 148.841404 
L 243.339384 154.968686 
z
" style="fill:#9ce29c;stroke:#646464;stroke-linejoin:miter;stroke-width:1.5;"/>
   </g>
   <g id="patch_8">
    <path clip-path="url(#p9fae7844e2)" d="M 268.757784 163.04323 
L 293.667816 163.04323 
L 293.667816 159.386704 
L 268.757784 159.386704 
L 268.757784 163.04323 
z
" style="fill:#95cbec;stroke:#646464;stroke-linejoin:miter;stroke-width:1.5;"/>
   </g>
   <g id="patch_9">
    <path clip-path="url(#p9fae7844e2)" d="M 294.176184 179.017781 
L 319.086216 179.017781 
L 319.086216 170.290434 
L 294.176184 170.290434 
L 294.176184 179.017781 
z
" style="fill:#e98966;stroke:#646464;stroke-linejoin:miter;stroke-width:1.5;"/>
   </g>
   <g id="patch_10">
    <path clip-path="url(#p9fae7844e2)" d="M 319.594584 196.194549 
L 344.504616 196.194549 
L 344.504616 185.166406 
L 319.594584 185.166406 
L 319.594584 196.194549 
z
" style="fill:#f8e3cb;stroke:#646464;stroke-linejoin:miter;stroke-width:1.5;"/>
   </g>
   <g id="patch_11">
    <path clip-path="url(#p9fae7844e2)" d="M 370.431384 178.609701 
L 395.341416 178.609701 
L 395.341416 160.561674 
L 370.431384 160.561674 
L 370.431384 178.609701 
z
" style="fill:#9ce29c;stroke:#646464;stroke-linejoin:miter;stroke-width:1.5;"/>
   </g>
   <g id="patch_12">
    <path clip-path="url(#p9fae7844e2)" d="M 395.849784 188.137301 
L 420.759816 188.137301 
L 420.759816 176.120469 
L 395.849784 176.120469 
L 395.849784 188.137301 
z
" style="fill:#95cbec;stroke:#646464;stroke-linejoin:miter;stroke-width:1.5;"/>
   </g>
   <g id="patch_13">
    <path clip-path="url(#p9fae7844e2)" d="M 421.268184 241.580609 
L 446.178216 241.580609 
L 446.178216 190.413775 
L 421.268184 190.413775 
L 421.268184 241.580609 
z
" style="fill:#e98966;stroke:#646464;stroke-linejoin:miter;stroke-width:1.5;"/>
   </g>
   <g id="patch_14">
    <path clip-path="url(#p9fae7844e2)" d="M 446.686584 216.524877 
L 471.596616 216.524877 
L 471.596616 188.588066 
L 446.686584 188.588066 
L 446.686584 216.524877 
z
" style="fill:#f8e3cb;stroke:#646464;stroke-linejoin:miter;stroke-width:1.5;"/>
   </g>
   <g id="patch_15">
    <path clip-path="url(#p9fae7844e2)" d="M 166.83 176.6408 
L 166.83 176.6408 
L 166.83 176.6408 
L 166.83 176.6408 
z
" style="fill:#9ce29c;stroke:#646464;stroke-linejoin:miter;stroke-width:0.75;"/>
   </g>
   <g id="patch_16">
    <path clip-path="url(#p9fae7844e2)" d="M 166.83 176.6408 
L 166.83 176.6408 
L 166.83 176.6408 
L 166.83 176.6408 
z
" style="fill:#95cbec;stroke:#646464;stroke-linejoin:miter;stroke-width:0.75;"/>
   </g>
   <g id="patch_17">
    <path clip-path="url(#p9fae7844e2)" d="M 166.83 176.6408 
L 166.83 176.6408 
L 166.83 176.6408 
L 166.83 176.6408 
z
" style="fill:#e98966;stroke:#646464;stroke-linejoin:miter;stroke-width:0.75;"/>
   </g>
   <g id="patch_18">
    <path clip-path="url(#p9fae7844e2)" d="M 166.83 176.6408 
L 166.83 176.6408 
L 166.83 176.6408 
L 166.83 176.6408 
z
" style="fill:#f8e3cb;stroke:#646464;stroke-linejoin:miter;stroke-width:0.75;"/>
   </g>
   <g id="line2d_1">
    <path clip-path="url(#p9fae7844e2)" d="M 128.7024 147.368565 
L 128.7024 151.168848 
" style="fill:none;stroke:#646464;stroke-linecap:round;stroke-width:1.5;"/>
   </g>
   <g id="line2d_2">
    <path clip-path="url(#p9fae7844e2)" d="M 128.7024 138.151675 
L 128.7024 135.252023 
" style="fill:none;stroke:#646464;stroke-linecap:round;stroke-width:1.5;"/>
   </g>
   <g id="line2d_3">
    <path clip-path="url(#p9fae7844e2)" d="M 122.474892 151.168848 
L 134.929908 151.168848 
" style="fill:none;stroke:#646464;stroke-linecap:round;stroke-width:1.5;"/>
   </g>
   <g id="line2d_4">
    <path clip-path="url(#p9fae7844e2)" d="M 122.474892 135.252023 
L 134.929908 135.252023 
" style="fill:none;stroke:#646464;stroke-linecap:round;stroke-width:1.5;"/>
   </g>
   <g id="line2d_5"/>
   <g id="line2d_6">
    <path clip-path="url(#p9fae7844e2)" d="M 154.1208 170.068891 
L 154.1208 171.188428 
" style="fill:none;stroke:#646464;stroke-linecap:round;stroke-width:1.5;"/>
   </g>
   <g id="line2d_7">
    <path clip-path="url(#p9fae7844e2)" d="M 154.1208 143.211899 
L 154.1208 137.886483 
" style="fill:none;stroke:#646464;stroke-linecap:round;stroke-width:1.5;"/>
   </g>
   <g id="line2d_8">
    <path clip-path="url(#p9fae7844e2)" d="M 147.893292 171.188428 
L 160.348308 171.188428 
" style="fill:none;stroke:#646464;stroke-linecap:round;stroke-width:1.5;"/>
   </g>
   <g id="line2d_9">
    <path clip-path="url(#p9fae7844e2)" d="M 147.893292 137.886483 
L 160.348308 137.886483 
" style="fill:none;stroke:#646464;stroke-linecap:round;stroke-width:1.5;"/>
   </g>
   <g id="line2d_10"/>
   <g id="line2d_11">
    <path clip-path="url(#p9fae7844e2)" d="M 179.5392 186.547285 
L 179.5392 188.567856 
" style="fill:none;stroke:#646464;stroke-linecap:round;stroke-width:1.5;"/>
   </g>
   <g id="line2d_12">
    <path clip-path="url(#p9fae7844e2)" d="M 179.5392 141.964954 
L 179.5392 137.383104 
" style="fill:none;stroke:#646464;stroke-linecap:round;stroke-width:1.5;"/>
   </g>
   <g id="line2d_13">
    <path clip-path="url(#p9fae7844e2)" d="M 173.311692 188.567856 
L 185.766708 188.567856 
" style="fill:none;stroke:#646464;stroke-linecap:round;stroke-width:1.5;"/>
   </g>
   <g id="line2d_14">
    <path clip-path="url(#p9fae7844e2)" d="M 173.311692 137.383104 
L 185.766708 137.383104 
" style="fill:none;stroke:#646464;stroke-linecap:round;stroke-width:1.5;"/>
   </g>
   <g id="line2d_15"/>
   <g id="line2d_16">
    <path clip-path="url(#p9fae7844e2)" d="M 204.9576 177.503267 
L 204.9576 181.169601 
" style="fill:none;stroke:#646464;stroke-linecap:round;stroke-width:1.5;"/>
   </g>
   <g id="line2d_17">
    <path clip-path="url(#p9fae7844e2)" d="M 204.9576 146.755311 
L 204.9576 135.798715 
" style="fill:none;stroke:#646464;stroke-linecap:round;stroke-width:1.5;"/>
   </g>
   <g id="line2d_18">
    <path clip-path="url(#p9fae7844e2)" d="M 198.730092 181.169601 
L 211.185108 181.169601 
" style="fill:none;stroke:#646464;stroke-linecap:round;stroke-width:1.5;"/>
   </g>
   <g id="line2d_19">
    <path clip-path="url(#p9fae7844e2)" d="M 198.730092 135.798715 
L 211.185108 135.798715 
" style="fill:none;stroke:#646464;stroke-linecap:round;stroke-width:1.5;"/>
   </g>
   <g id="line2d_20"/>
   <g id="line2d_21">
    <path clip-path="url(#p9fae7844e2)" d="M 255.7944 154.968686 
L 255.7944 156.778185 
" style="fill:none;stroke:#646464;stroke-linecap:round;stroke-width:1.5;"/>
   </g>
   <g id="line2d_22">
    <path clip-path="url(#p9fae7844e2)" d="M 255.7944 148.841404 
L 255.7944 146.651522 
" style="fill:none;stroke:#646464;stroke-linecap:round;stroke-width:1.5;"/>
   </g>
   <g id="line2d_23">
    <path clip-path="url(#p9fae7844e2)" d="M 249.566892 156.778185 
L 262.021908 156.778185 
" style="fill:none;stroke:#646464;stroke-linecap:round;stroke-width:1.5;"/>
   </g>
   <g id="line2d_24">
    <path clip-path="url(#p9fae7844e2)" d="M 249.566892 146.651522 
L 262.021908 146.651522 
" style="fill:none;stroke:#646464;stroke-linecap:round;stroke-width:1.5;"/>
   </g>
   <g id="line2d_25"/>
   <g id="line2d_26">
    <path clip-path="url(#p9fae7844e2)" d="M 281.2128 163.04323 
L 281.2128 164.825139 
" style="fill:none;stroke:#646464;stroke-linecap:round;stroke-width:1.5;"/>
   </g>
   <g id="line2d_27">
    <path clip-path="url(#p9fae7844e2)" d="M 281.2128 159.386704 
L 281.2128 154.531713 
" style="fill:none;stroke:#646464;stroke-linecap:round;stroke-width:1.5;"/>
   </g>
   <g id="line2d_28">
    <path clip-path="url(#p9fae7844e2)" d="M 274.985292 164.825139 
L 287.440308 164.825139 
" style="fill:none;stroke:#646464;stroke-linecap:round;stroke-width:1.5;"/>
   </g>
   <g id="line2d_29">
    <path clip-path="url(#p9fae7844e2)" d="M 274.985292 154.531713 
L 287.440308 154.531713 
" style="fill:none;stroke:#646464;stroke-linecap:round;stroke-width:1.5;"/>
   </g>
   <g id="line2d_30"/>
   <g id="line2d_31">
    <path clip-path="url(#p9fae7844e2)" d="M 306.6312 179.017781 
L 306.6312 180.014904 
" style="fill:none;stroke:#646464;stroke-linecap:round;stroke-width:1.5;"/>
   </g>
   <g id="line2d_32">
    <path clip-path="url(#p9fae7844e2)" d="M 306.6312 170.290434 
L 306.6312 161.634094 
" style="fill:none;stroke:#646464;stroke-linecap:round;stroke-width:1.5;"/>
   </g>
   <g id="line2d_33">
    <path clip-path="url(#p9fae7844e2)" d="M 300.403692 180.014904 
L 312.858708 180.014904 
" style="fill:none;stroke:#646464;stroke-linecap:round;stroke-width:1.5;"/>
   </g>
   <g id="line2d_34">
    <path clip-path="url(#p9fae7844e2)" d="M 300.403692 161.634094 
L 312.858708 161.634094 
" style="fill:none;stroke:#646464;stroke-linecap:round;stroke-width:1.5;"/>
   </g>
   <g id="line2d_35"/>
   <g id="line2d_36">
    <path clip-path="url(#p9fae7844e2)" d="M 332.0496 196.194549 
L 332.0496 199.715035 
" style="fill:none;stroke:#646464;stroke-linecap:round;stroke-width:1.5;"/>
   </g>
   <g id="line2d_37">
    <path clip-path="url(#p9fae7844e2)" d="M 332.0496 185.166406 
L 332.0496 178.393633 
" style="fill:none;stroke:#646464;stroke-linecap:round;stroke-width:1.5;"/>
   </g>
   <g id="line2d_38">
    <path clip-path="url(#p9fae7844e2)" d="M 325.822092 199.715035 
L 338.277108 199.715035 
" style="fill:none;stroke:#646464;stroke-linecap:round;stroke-width:1.5;"/>
   </g>
   <g id="line2d_39">
    <path clip-path="url(#p9fae7844e2)" d="M 325.822092 178.393633 
L 338.277108 178.393633 
" style="fill:none;stroke:#646464;stroke-linecap:round;stroke-width:1.5;"/>
   </g>
   <g id="line2d_40">
    <defs>
     <path d="M 0 2.5 
C 0.663008 2.5 1.29895 2.236584 1.767767 1.767767 
C 2.236584 1.29895 2.5 0.663008 2.5 0 
C 2.5 -0.663008 2.236584 -1.29895 1.767767 -1.767767 
C 1.29895 -2.236584 0.663008 -2.5 0 -2.5 
C -0.663008 -2.5 -1.29895 -2.236584 -1.767767 -1.767767 
C -2.236584 -1.29895 -2.5 -0.663008 -2.5 0 
C -2.5 0.663008 -2.236584 1.29895 -1.767767 1.767767 
C -1.29895 2.236584 -0.663008 2.5 0 2.5 
z
" id="m4fe2089738" style="stroke:#646464;"/>
    </defs>
    <g clip-path="url(#p9fae7844e2)">
     <use style="fill:#646464;stroke:#646464;" x="332.0496" xlink:href="#m4fe2089738" y="159.888816"/>
    </g>
   </g>
   <g id="line2d_41">
    <path clip-path="url(#p9fae7844e2)" d="M 382.8864 178.609701 
L 382.8864 180.371489 
" style="fill:none;stroke:#646464;stroke-linecap:round;stroke-width:1.5;"/>
   </g>
   <g id="line2d_42">
    <path clip-path="url(#p9fae7844e2)" d="M 382.8864 160.561674 
L 382.8864 153.08161 
" style="fill:none;stroke:#646464;stroke-linecap:round;stroke-width:1.5;"/>
   </g>
   <g id="line2d_43">
    <path clip-path="url(#p9fae7844e2)" d="M 376.658892 180.371489 
L 389.113908 180.371489 
" style="fill:none;stroke:#646464;stroke-linecap:round;stroke-width:1.5;"/>
   </g>
   <g id="line2d_44">
    <path clip-path="url(#p9fae7844e2)" d="M 376.658892 153.08161 
L 389.113908 153.08161 
" style="fill:none;stroke:#646464;stroke-linecap:round;stroke-width:1.5;"/>
   </g>
   <g id="line2d_45"/>
   <g id="line2d_46">
    <path clip-path="url(#p9fae7844e2)" d="M 408.3048 188.137301 
L 408.3048 190.095081 
" style="fill:none;stroke:#646464;stroke-linecap:round;stroke-width:1.5;"/>
   </g>
   <g id="line2d_47">
    <path clip-path="url(#p9fae7844e2)" d="M 408.3048 176.120469 
L 408.3048 173.206847 
" style="fill:none;stroke:#646464;stroke-linecap:round;stroke-width:1.5;"/>
   </g>
   <g id="line2d_48">
    <path clip-path="url(#p9fae7844e2)" d="M 402.077292 190.095081 
L 414.532308 190.095081 
" style="fill:none;stroke:#646464;stroke-linecap:round;stroke-width:1.5;"/>
   </g>
   <g id="line2d_49">
    <path clip-path="url(#p9fae7844e2)" d="M 402.077292 173.206847 
L 414.532308 173.206847 
" style="fill:none;stroke:#646464;stroke-linecap:round;stroke-width:1.5;"/>
   </g>
   <g id="line2d_50"/>
   <g id="line2d_51">
    <path clip-path="url(#p9fae7844e2)" d="M 433.7232 241.580609 
L 433.7232 280.039183 
" style="fill:none;stroke:#646464;stroke-linecap:round;stroke-width:1.5;"/>
   </g>
   <g id="line2d_52">
    <path clip-path="url(#p9fae7844e2)" d="M 433.7232 190.413775 
L 433.7232 149.978361 
" style="fill:none;stroke:#646464;stroke-linecap:round;stroke-width:1.5;"/>
   </g>
   <g id="line2d_53">
    <path clip-path="url(#p9fae7844e2)" d="M 427.495692 280.039183 
L 439.950708 280.039183 
" style="fill:none;stroke:#646464;stroke-linecap:round;stroke-width:1.5;"/>
   </g>
   <g id="line2d_54">
    <path clip-path="url(#p9fae7844e2)" d="M 427.495692 149.978361 
L 439.950708 149.978361 
" style="fill:none;stroke:#646464;stroke-linecap:round;stroke-width:1.5;"/>
   </g>
   <g id="line2d_55">
    <g clip-path="url(#p9fae7844e2)">
     <use style="fill:#646464;stroke:#646464;" x="433.7232" xlink:href="#m4fe2089738" y="332.383873"/>
     <use style="fill:#646464;stroke:#646464;" x="433.7232" xlink:href="#m4fe2089738" y="332.383873"/>
     <use style="fill:#646464;stroke:#646464;" x="433.7232" xlink:href="#m4fe2089738" y="332.383873"/>
     <use style="fill:#646464;stroke:#646464;" x="433.7232" xlink:href="#m4fe2089738" y="332.383873"/>
     <use style="fill:#646464;stroke:#646464;" x="433.7232" xlink:href="#m4fe2089738" y="332.383873"/>
     <use style="fill:#646464;stroke:#646464;" x="433.7232" xlink:href="#m4fe2089738" y="332.383873"/>
     <use style="fill:#646464;stroke:#646464;" x="433.7232" xlink:href="#m4fe2089738" y="332.383873"/>
     <use style="fill:#646464;stroke:#646464;" x="433.7232" xlink:href="#m4fe2089738" y="332.383873"/>
     <use style="fill:#646464;stroke:#646464;" x="433.7232" xlink:href="#m4fe2089738" y="332.383873"/>
     <use style="fill:#646464;stroke:#646464;" x="433.7232" xlink:href="#m4fe2089738" y="332.383873"/>
     <use style="fill:#646464;stroke:#646464;" x="433.7232" xlink:href="#m4fe2089738" y="332.456315"/>
     <use style="fill:#646464;stroke:#646464;" x="433.7232" xlink:href="#m4fe2089738" y="332.456315"/>
     <use style="fill:#646464;stroke:#646464;" x="433.7232" xlink:href="#m4fe2089738" y="332.456315"/>
     <use style="fill:#646464;stroke:#646464;" x="433.7232" xlink:href="#m4fe2089738" y="332.456315"/>
     <use style="fill:#646464;stroke:#646464;" x="433.7232" xlink:href="#m4fe2089738" y="332.456315"/>
     <use style="fill:#646464;stroke:#646464;" x="433.7232" xlink:href="#m4fe2089738" y="346.898531"/>
     <use style="fill:#646464;stroke:#646464;" x="433.7232" xlink:href="#m4fe2089738" y="346.898531"/>
     <use style="fill:#646464;stroke:#646464;" x="433.7232" xlink:href="#m4fe2089738" y="346.898531"/>
     <use style="fill:#646464;stroke:#646464;" x="433.7232" xlink:href="#m4fe2089738" y="346.898531"/>
     <use style="fill:#646464;stroke:#646464;" x="433.7232" xlink:href="#m4fe2089738" y="346.898531"/>
     <use style="fill:#646464;stroke:#646464;" x="433.7232" xlink:href="#m4fe2089738" y="550.362663"/>
     <use style="fill:#646464;stroke:#646464;" x="433.7232" xlink:href="#m4fe2089738" y="550.362663"/>
     <use style="fill:#646464;stroke:#646464;" x="433.7232" xlink:href="#m4fe2089738" y="550.362663"/>
     <use style="fill:#646464;stroke:#646464;" x="433.7232" xlink:href="#m4fe2089738" y="550.362663"/>
     <use style="fill:#646464;stroke:#646464;" x="433.7232" xlink:href="#m4fe2089738" y="550.362663"/>
     <use style="fill:#646464;stroke:#646464;" x="433.7232" xlink:href="#m4fe2089738" y="1818.462005"/>
     <use style="fill:#646464;stroke:#646464;" x="433.7232" xlink:href="#m4fe2089738" y="1818.462005"/>
     <use style="fill:#646464;stroke:#646464;" x="433.7232" xlink:href="#m4fe2089738" y="1818.462005"/>
     <use style="fill:#646464;stroke:#646464;" x="433.7232" xlink:href="#m4fe2089738" y="1818.462005"/>
     <use style="fill:#646464;stroke:#646464;" x="433.7232" xlink:href="#m4fe2089738" y="1818.462005"/>
    </g>
   </g>
   <g id="line2d_56">
    <path clip-path="url(#p9fae7844e2)" d="M 459.1416 216.524877 
L 459.1416 216.524877 
" style="fill:none;stroke:#646464;stroke-linecap:round;stroke-width:1.5;"/>
   </g>
   <g id="line2d_57">
    <path clip-path="url(#p9fae7844e2)" d="M 459.1416 188.588066 
L 459.1416 188.588066 
" style="fill:none;stroke:#646464;stroke-linecap:round;stroke-width:1.5;"/>
   </g>
   <g id="line2d_58">
    <path clip-path="url(#p9fae7844e2)" d="M 452.914092 216.524877 
L 465.369108 216.524877 
" style="fill:none;stroke:#646464;stroke-linecap:round;stroke-width:1.5;"/>
   </g>
   <g id="line2d_59">
    <path clip-path="url(#p9fae7844e2)" d="M 452.914092 188.588066 
L 465.369108 188.588066 
" style="fill:none;stroke:#646464;stroke-linecap:round;stroke-width:1.5;"/>
   </g>
   <g id="line2d_60"/>
   <g id="line2d_61">
    <path d="M 382.8864 116.30628 
L 382.8864 111.0598 
L 408.3048 111.0598 
L 408.3048 116.30628 
" style="fill:none;stroke:#333333;stroke-linecap:round;stroke-width:1.5;"/>
   </g>
   <g id="line2d_62">
    <path d="M 128.7024 116.30628 
L 128.7024 111.0598 
L 154.1208 111.0598 
L 154.1208 116.30628 
" style="fill:none;stroke:#333333;stroke-linecap:round;stroke-width:1.5;"/>
   </g>
   <g id="line2d_63">
    <path d="M 255.7944 116.30628 
L 255.7944 111.0598 
L 281.2128 111.0598 
L 281.2128 116.30628 
" style="fill:none;stroke:#333333;stroke-linecap:round;stroke-width:1.5;"/>
   </g>
   <g id="line2d_64">
    <path d="M 128.7024 88.774247 
L 128.7024 83.527767 
L 179.5392 83.527767 
L 179.5392 88.774247 
" style="fill:none;stroke:#333333;stroke-linecap:round;stroke-width:1.5;"/>
   </g>
   <g id="line2d_65">
    <path d="M 382.8864 88.774247 
L 382.8864 83.527767 
L 433.7232 83.527767 
L 433.7232 88.774247 
" style="fill:none;stroke:#333333;stroke-linecap:round;stroke-width:1.5;"/>
   </g>
   <g id="line2d_66">
    <path d="M 255.7944 88.774247 
L 255.7944 83.527767 
L 306.6312 83.527767 
L 306.6312 88.774247 
" style="fill:none;stroke:#333333;stroke-linecap:round;stroke-width:1.5;"/>
   </g>
   <g id="line2d_67">
    <path d="M 382.8864 61.242214 
L 382.8864 55.995734 
L 459.1416 55.995734 
L 459.1416 61.242214 
" style="fill:none;stroke:#333333;stroke-linecap:round;stroke-width:1.5;"/>
   </g>
   <g id="line2d_68">
    <path d="M 128.7024 61.242214 
L 128.7024 55.995734 
L 204.9576 55.995734 
L 204.9576 61.242214 
" style="fill:none;stroke:#333333;stroke-linecap:round;stroke-width:1.5;"/>
   </g>
   <g id="line2d_69">
    <path d="M 255.7944 61.242214 
L 255.7944 55.995734 
L 332.0496 55.995734 
L 332.0496 61.242214 
" style="fill:none;stroke:#333333;stroke-linecap:round;stroke-width:1.5;"/>
   </g>
   <g id="line2d_70">
    <path clip-path="url(#p9fae7844e2)" d="M 116.247384 145.14355 
L 141.157416 145.14355 
" style="fill:none;stroke:#646464;stroke-linecap:round;stroke-width:1.5;"/>
   </g>
   <g id="line2d_71">
    <path clip-path="url(#p9fae7844e2)" d="M 141.665784 156.792201 
L 166.575816 156.792201 
" style="fill:none;stroke:#646464;stroke-linecap:round;stroke-width:1.5;"/>
   </g>
   <g id="line2d_72">
    <path clip-path="url(#p9fae7844e2)" d="M 167.084184 164.862613 
L 191.994216 164.862613 
" style="fill:none;stroke:#646464;stroke-linecap:round;stroke-width:1.5;"/>
   </g>
   <g id="line2d_73">
    <path clip-path="url(#p9fae7844e2)" d="M 192.502584 159.615819 
L 217.412616 159.615819 
" style="fill:none;stroke:#646464;stroke-linecap:round;stroke-width:1.5;"/>
   </g>
   <g id="line2d_74">
    <path clip-path="url(#p9fae7844e2)" d="M 243.339384 150.332153 
L 268.249416 150.332153 
" style="fill:none;stroke:#646464;stroke-linecap:round;stroke-width:1.5;"/>
   </g>
   <g id="line2d_75">
    <path clip-path="url(#p9fae7844e2)" d="M 268.757784 161.903332 
L 293.667816 161.903332 
" style="fill:none;stroke:#646464;stroke-linecap:round;stroke-width:1.5;"/>
   </g>
   <g id="line2d_76">
    <path clip-path="url(#p9fae7844e2)" d="M 294.176184 172.126026 
L 319.086216 172.126026 
" style="fill:none;stroke:#646464;stroke-linecap:round;stroke-width:1.5;"/>
   </g>
   <g id="line2d_77">
    <path clip-path="url(#p9fae7844e2)" d="M 319.594584 192.540415 
L 344.504616 192.540415 
" style="fill:none;stroke:#646464;stroke-linecap:round;stroke-width:1.5;"/>
   </g>
   <g id="line2d_78">
    <path clip-path="url(#p9fae7844e2)" d="M 370.431384 177.053827 
L 395.341416 177.053827 
" style="fill:none;stroke:#646464;stroke-linecap:round;stroke-width:1.5;"/>
   </g>
   <g id="line2d_79">
    <path clip-path="url(#p9fae7844e2)" d="M 395.849784 181.550671 
L 420.759816 181.550671 
" style="fill:none;stroke:#646464;stroke-linecap:round;stroke-width:1.5;"/>
   </g>
   <g id="line2d_80">
    <path clip-path="url(#p9fae7844e2)" d="M 421.268184 206.613864 
L 446.178216 206.613864 
" style="fill:none;stroke:#646464;stroke-linecap:round;stroke-width:1.5;"/>
   </g>
   <g id="line2d_81">
    <path clip-path="url(#p9fae7844e2)" d="M 446.686584 199.268672 
L 471.596616 199.268672 
" style="fill:none;stroke:#646464;stroke-linecap:round;stroke-width:1.5;"/>
   </g>
   <g id="patch_19">
    <path d="M 103.284 386.5 
L 103.284 124.176 
" style="fill:none;stroke:#262626;stroke-linecap:square;stroke-linejoin:miter;stroke-width:1.25;"/>
   </g>
   <g id="patch_20">
    <path d="M 484.56 386.5 
L 484.56 124.176 
" style="fill:none;stroke:#262626;stroke-linecap:square;stroke-linejoin:miter;stroke-width:1.25;"/>
   </g>
   <g id="patch_21">
    <path d="M 103.284 386.5 
L 484.56 386.5 
" style="fill:none;stroke:#262626;stroke-linecap:square;stroke-linejoin:miter;stroke-width:1.25;"/>
   </g>
   <g id="patch_22">
    <path d="M 103.284 124.176 
L 484.56 124.176 
" style="fill:none;stroke:#262626;stroke-linecap:square;stroke-linejoin:miter;stroke-width:1.25;"/>
   </g>
   <g id="text_14">
    <!-- **** -->
    <g style="fill:#262626;" transform="translate(377.5956 106.316363)scale(0.18 -0.18)">
     <defs>
      <path d="M 47.015625 60.890625 
L 29.5 51.421875 
L 47.015625 41.890625 
L 44.1875 37.109375 
L 27.78125 47.015625 
L 27.78125 28.609375 
L 22.21875 28.609375 
L 22.21875 47.015625 
L 5.8125 37.109375 
L 2.984375 41.890625 
L 20.515625 51.421875 
L 2.984375 60.890625 
L 5.8125 65.71875 
L 22.21875 55.8125 
L 22.21875 74.21875 
L 27.78125 74.21875 
L 27.78125 55.8125 
L 44.1875 65.71875 
z
" id="DejaVuSans-42"/>
     </defs>
     <use xlink:href="#DejaVuSans-42"/>
     <use x="50" xlink:href="#DejaVuSans-42"/>
     <use x="100" xlink:href="#DejaVuSans-42"/>
     <use x="150" xlink:href="#DejaVuSans-42"/>
    </g>
   </g>
   <g id="text_15">
    <!-- * -->
    <g style="fill:#262626;" transform="translate(136.9116 106.316363)scale(0.18 -0.18)">
     <use xlink:href="#DejaVuSans-42"/>
    </g>
   </g>
   <g id="text_16">
    <!-- *** -->
    <g style="fill:#262626;" transform="translate(255.0036 106.316363)scale(0.18 -0.18)">
     <use xlink:href="#DejaVuSans-42"/>
     <use x="50" xlink:href="#DejaVuSans-42"/>
     <use x="100" xlink:href="#DejaVuSans-42"/>
    </g>
   </g>
   <g id="text_17">
    <!-- * -->
    <g style="fill:#262626;" transform="translate(149.6208 78.784329)scale(0.18 -0.18)">
     <use xlink:href="#DejaVuSans-42"/>
    </g>
   </g>
   <g id="text_18">
    <!-- **** -->
    <g style="fill:#262626;" transform="translate(390.3048 78.784329)scale(0.18 -0.18)">
     <use xlink:href="#DejaVuSans-42"/>
     <use x="50" xlink:href="#DejaVuSans-42"/>
     <use x="100" xlink:href="#DejaVuSans-42"/>
     <use x="150" xlink:href="#DejaVuSans-42"/>
    </g>
   </g>
   <g id="text_19">
    <!-- *** -->
    <g style="fill:#262626;" transform="translate(267.7128 78.784329)scale(0.18 -0.18)">
     <use xlink:href="#DejaVuSans-42"/>
     <use x="50" xlink:href="#DejaVuSans-42"/>
     <use x="100" xlink:href="#DejaVuSans-42"/>
    </g>
   </g>
   <g id="text_20">
    <!-- **** -->
    <g style="fill:#262626;" transform="translate(403.014 51.252296)scale(0.18 -0.18)">
     <use xlink:href="#DejaVuSans-42"/>
     <use x="50" xlink:href="#DejaVuSans-42"/>
     <use x="100" xlink:href="#DejaVuSans-42"/>
     <use x="150" xlink:href="#DejaVuSans-42"/>
    </g>
   </g>
   <g id="text_21">
    <!-- * -->
    <g style="fill:#262626;" transform="translate(162.33 51.252296)scale(0.18 -0.18)">
     <use xlink:href="#DejaVuSans-42"/>
    </g>
   </g>
   <g id="text_22">
    <!-- *** -->
    <g style="fill:#262626;" transform="translate(280.422 51.252296)scale(0.18 -0.18)">
     <use xlink:href="#DejaVuSans-42"/>
     <use x="50" xlink:href="#DejaVuSans-42"/>
     <use x="100" xlink:href="#DejaVuSans-42"/>
    </g>
   </g>
   <g id="text_23">
    <!-- Non-smoker -->
    <g style="fill:#262626;" transform="translate(239.646375 249.338)scale(0.18 -0.18)">
     <defs>
      <path d="M 52 44.1875 
Q 55.375 50.25 60.0625 53.125 
Q 64.75 56 71.09375 56 
Q 79.640625 56 84.28125 50.015625 
Q 88.921875 44.046875 88.921875 33.015625 
L 88.921875 0 
L 79.890625 0 
L 79.890625 32.71875 
Q 79.890625 40.578125 77.09375 44.375 
Q 74.3125 48.1875 68.609375 48.1875 
Q 61.625 48.1875 57.5625 43.546875 
Q 53.515625 38.921875 53.515625 30.90625 
L 53.515625 0 
L 44.484375 0 
L 44.484375 32.71875 
Q 44.484375 40.625 41.703125 44.40625 
Q 38.921875 48.1875 33.109375 48.1875 
Q 26.21875 48.1875 22.15625 43.53125 
Q 18.109375 38.875 18.109375 30.90625 
L 18.109375 0 
L 9.078125 0 
L 9.078125 54.6875 
L 18.109375 54.6875 
L 18.109375 46.1875 
Q 21.1875 51.21875 25.484375 53.609375 
Q 29.78125 56 35.6875 56 
Q 41.65625 56 45.828125 52.96875 
Q 50 49.953125 52 44.1875 
z
" id="DejaVuSans-109"/>
      <path d="M 9.078125 75.984375 
L 18.109375 75.984375 
L 18.109375 31.109375 
L 44.921875 54.6875 
L 56.390625 54.6875 
L 27.390625 29.109375 
L 57.625 0 
L 45.90625 0 
L 18.109375 26.703125 
L 18.109375 0 
L 9.078125 0 
z
" id="DejaVuSans-107"/>
     </defs>
     <use xlink:href="#DejaVuSans-78"/>
     <use x="74.804688" xlink:href="#DejaVuSans-111"/>
     <use x="135.986328" xlink:href="#DejaVuSans-110"/>
     <use x="199.365234" xlink:href="#DejaVuSans-45"/>
     <use x="235.449219" xlink:href="#DejaVuSans-115"/>
     <use x="287.548828" xlink:href="#DejaVuSans-109"/>
     <use x="384.960938" xlink:href="#DejaVuSans-111"/>
     <use x="446.142578" xlink:href="#DejaVuSans-107"/>
     <use x="500.427734" xlink:href="#DejaVuSans-101"/>
     <use x="561.951172" xlink:href="#DejaVuSans-114"/>
    </g>
   </g>
   <g id="legend_1">
    <g id="patch_23">
     <path d="M 118.134 295.561797 
L 151.134 295.561797 
L 151.134 284.011797 
L 118.134 284.011797 
z
" style="fill:#9ce29c;stroke:#646464;stroke-linejoin:miter;stroke-width:0.75;"/>
    </g>
    <g id="text_24">
     <!-- PolyEN -->
     <g style="fill:#262626;" transform="translate(164.334 295.561797)scale(0.165 -0.165)">
      <defs>
       <path d="M 19.671875 64.796875 
L 19.671875 37.40625 
L 32.078125 37.40625 
Q 38.96875 37.40625 42.71875 40.96875 
Q 46.484375 44.53125 46.484375 51.125 
Q 46.484375 57.671875 42.71875 61.234375 
Q 38.96875 64.796875 32.078125 64.796875 
z
M 9.8125 72.90625 
L 32.078125 72.90625 
Q 44.34375 72.90625 50.609375 67.359375 
Q 56.890625 61.8125 56.890625 51.125 
Q 56.890625 40.328125 50.609375 34.8125 
Q 44.34375 29.296875 32.078125 29.296875 
L 19.671875 29.296875 
L 19.671875 0 
L 9.8125 0 
z
" id="DejaVuSans-80"/>
       <path d="M 9.421875 75.984375 
L 18.40625 75.984375 
L 18.40625 0 
L 9.421875 0 
z
" id="DejaVuSans-108"/>
       <path d="M 32.171875 -5.078125 
Q 28.375 -14.84375 24.75 -17.8125 
Q 21.140625 -20.796875 15.09375 -20.796875 
L 7.90625 -20.796875 
L 7.90625 -13.28125 
L 13.1875 -13.28125 
Q 16.890625 -13.28125 18.9375 -11.515625 
Q 21 -9.765625 23.484375 -3.21875 
L 25.09375 0.875 
L 2.984375 54.6875 
L 12.5 54.6875 
L 29.59375 11.921875 
L 46.6875 54.6875 
L 56.203125 54.6875 
z
" id="DejaVuSans-121"/>
       <path d="M 9.8125 72.90625 
L 55.90625 72.90625 
L 55.90625 64.59375 
L 19.671875 64.59375 
L 19.671875 43.015625 
L 54.390625 43.015625 
L 54.390625 34.71875 
L 19.671875 34.71875 
L 19.671875 8.296875 
L 56.78125 8.296875 
L 56.78125 0 
L 9.8125 0 
z
" id="DejaVuSans-69"/>
      </defs>
      <use xlink:href="#DejaVuSans-80"/>
      <use x="56.677734" xlink:href="#DejaVuSans-111"/>
      <use x="117.859375" xlink:href="#DejaVuSans-108"/>
      <use x="145.642578" xlink:href="#DejaVuSans-121"/>
      <use x="204.822266" xlink:href="#DejaVuSans-69"/>
      <use x="268.005859" xlink:href="#DejaVuSans-78"/>
     </g>
    </g>
    <g id="patch_24">
     <path d="M 118.134 319.780703 
L 151.134 319.780703 
L 151.134 308.230703 
L 118.134 308.230703 
z
" style="fill:#95cbec;stroke:#646464;stroke-linejoin:miter;stroke-width:0.75;"/>
    </g>
    <g id="text_25">
     <!-- LR -->
     <g style="fill:#262626;" transform="translate(164.334 319.780703)scale(0.165 -0.165)">
      <defs>
       <path d="M 44.390625 34.1875 
Q 47.5625 33.109375 50.5625 29.59375 
Q 53.5625 26.078125 56.59375 19.921875 
L 66.609375 0 
L 56 0 
L 46.6875 18.703125 
Q 43.0625 26.03125 39.671875 28.421875 
Q 36.28125 30.8125 30.421875 30.8125 
L 19.671875 30.8125 
L 19.671875 0 
L 9.8125 0 
L 9.8125 72.90625 
L 32.078125 72.90625 
Q 44.578125 72.90625 50.734375 67.671875 
Q 56.890625 62.453125 56.890625 51.90625 
Q 56.890625 45.015625 53.6875 40.46875 
Q 50.484375 35.9375 44.390625 34.1875 
z
M 19.671875 64.796875 
L 19.671875 38.921875 
L 32.078125 38.921875 
Q 39.203125 38.921875 42.84375 42.21875 
Q 46.484375 45.515625 46.484375 51.90625 
Q 46.484375 58.296875 42.84375 61.546875 
Q 39.203125 64.796875 32.078125 64.796875 
z
" id="DejaVuSans-82"/>
      </defs>
      <use xlink:href="#DejaVuSans-76"/>
      <use x="55.712891" xlink:href="#DejaVuSans-82"/>
     </g>
    </g>
    <g id="patch_25">
     <path d="M 118.134 343.999609 
L 151.134 343.999609 
L 151.134 332.449609 
L 118.134 332.449609 
z
" style="fill:#e98966;stroke:#646464;stroke-linejoin:miter;stroke-width:0.75;"/>
    </g>
    <g id="text_26">
     <!-- Fleischer et al -->
     <g style="fill:#262626;" transform="translate(164.334 343.999609)scale(0.165 -0.165)">
      <defs>
       <path d="M 9.8125 72.90625 
L 51.703125 72.90625 
L 51.703125 64.59375 
L 19.671875 64.59375 
L 19.671875 43.109375 
L 48.578125 43.109375 
L 48.578125 34.8125 
L 19.671875 34.8125 
L 19.671875 0 
L 9.8125 0 
z
" id="DejaVuSans-70"/>
       <path d="M 9.421875 54.6875 
L 18.40625 54.6875 
L 18.40625 0 
L 9.421875 0 
z
M 9.421875 75.984375 
L 18.40625 75.984375 
L 18.40625 64.59375 
L 9.421875 64.59375 
z
" id="DejaVuSans-105"/>
       <path d="M 54.890625 33.015625 
L 54.890625 0 
L 45.90625 0 
L 45.90625 32.71875 
Q 45.90625 40.484375 42.875 44.328125 
Q 39.84375 48.1875 33.796875 48.1875 
Q 26.515625 48.1875 22.3125 43.546875 
Q 18.109375 38.921875 18.109375 30.90625 
L 18.109375 0 
L 9.078125 0 
L 9.078125 75.984375 
L 18.109375 75.984375 
L 18.109375 46.1875 
Q 21.34375 51.125 25.703125 53.5625 
Q 30.078125 56 35.796875 56 
Q 45.21875 56 50.046875 50.171875 
Q 54.890625 44.34375 54.890625 33.015625 
z
" id="DejaVuSans-104"/>
      </defs>
      <use xlink:href="#DejaVuSans-70"/>
      <use x="57.519531" xlink:href="#DejaVuSans-108"/>
      <use x="85.302734" xlink:href="#DejaVuSans-101"/>
      <use x="146.826172" xlink:href="#DejaVuSans-105"/>
      <use x="174.609375" xlink:href="#DejaVuSans-115"/>
      <use x="226.708984" xlink:href="#DejaVuSans-99"/>
      <use x="281.689453" xlink:href="#DejaVuSans-104"/>
      <use x="345.068359" xlink:href="#DejaVuSans-101"/>
      <use x="406.591797" xlink:href="#DejaVuSans-114"/>
      <use x="447.705078" xlink:href="#DejaVuSans-32"/>
      <use x="479.492188" xlink:href="#DejaVuSans-101"/>
      <use x="541.015625" xlink:href="#DejaVuSans-116"/>
      <use x="580.224609" xlink:href="#DejaVuSans-32"/>
      <use x="612.011719" xlink:href="#DejaVuSans-97"/>
      <use x="673.291016" xlink:href="#DejaVuSans-108"/>
     </g>
    </g>
    <g id="patch_26">
     <path d="M 118.134 368.218516 
L 151.134 368.218516 
L 151.134 356.668516 
L 118.134 356.668516 
z
" style="fill:#f8e3cb;stroke:#646464;stroke-linejoin:miter;stroke-width:0.75;"/>
    </g>
    <g id="text_27">
     <!-- RAPToR -->
     <g style="fill:#262626;" transform="translate(164.334 368.218516)scale(0.165 -0.165)">
      <defs>
       <path d="M -0.296875 72.90625 
L 61.375 72.90625 
L 61.375 64.59375 
L 35.5 64.59375 
L 35.5 0 
L 25.59375 0 
L 25.59375 64.59375 
L -0.296875 64.59375 
z
" id="DejaVuSans-84"/>
      </defs>
      <use xlink:href="#DejaVuSans-82"/>
      <use x="65.482422" xlink:href="#DejaVuSans-65"/>
      <use x="133.890625" xlink:href="#DejaVuSans-80"/>
      <use x="194.193359" xlink:href="#DejaVuSans-84"/>
      <use x="238.277344" xlink:href="#DejaVuSans-111"/>
      <use x="299.458984" xlink:href="#DejaVuSans-82"/>
     </g>
    </g>
   </g>
  </g>
 </g>
 <defs>
  <clipPath id="p9fae7844e2">
   <rect height="262.324" width="381.276" x="103.284" y="124.176"/>
  </clipPath>
 </defs>
</svg>
