<?xml version="1.0" encoding="utf-8" standalone="no"?>
<!DOCTYPE svg PUBLIC "-//W3C//DTD SVG 1.1//EN"
  "http://www.w3.org/Graphics/SVG/1.1/DTD/svg11.dtd">
<!-- Created with matplotlib (https://matplotlib.org/) -->
<svg height="576pt" version="1.1" viewBox="0 0 288 576" width="288pt" xmlns="http://www.w3.org/2000/svg" xmlns:xlink="http://www.w3.org/1999/xlink">
 <metadata>
  <rdf:RDF xmlns:cc="http://creativecommons.org/ns#" xmlns:dc="http://purl.org/dc/elements/1.1/" xmlns:rdf="http://www.w3.org/1999/02/22-rdf-syntax-ns#">
   <cc:Work>
    <dc:type rdf:resource="http://purl.org/dc/dcmitype/StillImage"/>
    <dc:date>2023-05-12T22:40:55.611327</dc:date>
    <dc:format>image/svg+xml</dc:format>
    <dc:creator>
     <cc:Agent>
      <dc:title>Matplotlib v3.3.2, https://matplotlib.org/</dc:title>
     </cc:Agent>
    </dc:creator>
   </cc:Work>
  </rdf:RDF>
 </metadata>
 <defs>
  <style type="text/css">*{stroke-linecap:butt;stroke-linejoin:round;}</style>
 </defs>
 <g id="figure_1">
  <g id="patch_1">
   <path d="M 0 576 
L 288 576 
L 288 0 
L 0 0 
z
" style="fill:#ffffff;"/>
  </g>
  <g id="axes_1">
   <g id="patch_2">
    <path d="M 35.289 511.812 
L 252.711 511.812 
L 252.711 37.104 
L 35.289 37.104 
z
" style="fill:#ffffff;"/>
   </g>
   <g id="matplotlib.axis_1">
    <g id="xtick_1">
     <g id="line2d_1">
      <defs>
       <path d="M 0 0 
L 0 6 
" id="mc8b5fd4b3a" style="stroke:#262626;stroke-width:1.25;"/>
      </defs>
      <g>
       <use style="fill:#262626;stroke:#262626;stroke-width:1.25;" x="35.289" xlink:href="#mc8b5fd4b3a" y="511.812"/>
      </g>
     </g>
     <g id="text_1">
      <!-- 0.00 -->
      <g style="fill:#262626;" transform="translate(18.144469 533.013594)scale(0.154 -0.154)">
       <defs>
        <path d="M 31.78125 66.40625 
Q 24.171875 66.40625 20.328125 58.90625 
Q 16.5 51.421875 16.5 36.375 
Q 16.5 21.390625 20.328125 13.890625 
Q 24.171875 6.390625 31.78125 6.390625 
Q 39.453125 6.390625 43.28125 13.890625 
Q 47.125 21.390625 47.125 36.375 
Q 47.125 51.421875 43.28125 58.90625 
Q 39.453125 66.40625 31.78125 66.40625 
z
M 31.78125 74.21875 
Q 44.046875 74.21875 50.515625 64.515625 
Q 56.984375 54.828125 56.984375 36.375 
Q 56.984375 17.96875 50.515625 8.265625 
Q 44.046875 -1.421875 31.78125 -1.421875 
Q 19.53125 -1.421875 13.0625 8.265625 
Q 6.59375 17.96875 6.59375 36.375 
Q 6.59375 54.828125 13.0625 64.515625 
Q 19.53125 74.21875 31.78125 74.21875 
z
" id="DejaVuSans-48"/>
        <path d="M 10.6875 12.40625 
L 21 12.40625 
L 21 0 
L 10.6875 0 
z
" id="DejaVuSans-46"/>
       </defs>
       <use xlink:href="#DejaVuSans-48"/>
       <use x="63.623047" xlink:href="#DejaVuSans-46"/>
       <use x="95.410156" xlink:href="#DejaVuSans-48"/>
       <use x="159.033203" xlink:href="#DejaVuSans-48"/>
      </g>
     </g>
    </g>
    <g id="xtick_2">
     <g id="line2d_2">
      <g>
       <use style="fill:#262626;stroke:#262626;stroke-width:1.25;" x="89.6445" xlink:href="#mc8b5fd4b3a" y="511.812"/>
      </g>
     </g>
     <g id="text_2">
      <!-- 0.25 -->
      <g style="fill:#262626;" transform="translate(72.499969 533.013594)scale(0.154 -0.154)">
       <defs>
        <path d="M 19.1875 8.296875 
L 53.609375 8.296875 
L 53.609375 0 
L 7.328125 0 
L 7.328125 8.296875 
Q 12.9375 14.109375 22.625 23.890625 
Q 32.328125 33.6875 34.8125 36.53125 
Q 39.546875 41.84375 41.421875 45.53125 
Q 43.3125 49.21875 43.3125 52.78125 
Q 43.3125 58.59375 39.234375 62.25 
Q 35.15625 65.921875 28.609375 65.921875 
Q 23.96875 65.921875 18.8125 64.3125 
Q 13.671875 62.703125 7.8125 59.421875 
L 7.8125 69.390625 
Q 13.765625 71.78125 18.9375 73 
Q 24.125 74.21875 28.421875 74.21875 
Q 39.75 74.21875 46.484375 68.546875 
Q 53.21875 62.890625 53.21875 53.421875 
Q 53.21875 48.921875 51.53125 44.890625 
Q 49.859375 40.875 45.40625 35.40625 
Q 44.1875 33.984375 37.640625 27.21875 
Q 31.109375 20.453125 19.1875 8.296875 
z
" id="DejaVuSans-50"/>
        <path d="M 10.796875 72.90625 
L 49.515625 72.90625 
L 49.515625 64.59375 
L 19.828125 64.59375 
L 19.828125 46.734375 
Q 21.96875 47.46875 24.109375 47.828125 
Q 26.265625 48.1875 28.421875 48.1875 
Q 40.625 48.1875 47.75 41.5 
Q 54.890625 34.8125 54.890625 23.390625 
Q 54.890625 11.625 47.5625 5.09375 
Q 40.234375 -1.421875 26.90625 -1.421875 
Q 22.3125 -1.421875 17.546875 -0.640625 
Q 12.796875 0.140625 7.71875 1.703125 
L 7.71875 11.625 
Q 12.109375 9.234375 16.796875 8.0625 
Q 21.484375 6.890625 26.703125 6.890625 
Q 35.15625 6.890625 40.078125 11.328125 
Q 45.015625 15.765625 45.015625 23.390625 
Q 45.015625 31 40.078125 35.4375 
Q 35.15625 39.890625 26.703125 39.890625 
Q 22.75 39.890625 18.8125 39.015625 
Q 14.890625 38.140625 10.796875 36.28125 
z
" id="DejaVuSans-53"/>
       </defs>
       <use xlink:href="#DejaVuSans-48"/>
       <use x="63.623047" xlink:href="#DejaVuSans-46"/>
       <use x="95.410156" xlink:href="#DejaVuSans-50"/>
       <use x="159.033203" xlink:href="#DejaVuSans-53"/>
      </g>
     </g>
    </g>
    <g id="xtick_3">
     <g id="line2d_3">
      <g>
       <use style="fill:#262626;stroke:#262626;stroke-width:1.25;" x="144" xlink:href="#mc8b5fd4b3a" y="511.812"/>
      </g>
     </g>
     <g id="text_3">
      <!-- 0.50 -->
      <g style="fill:#262626;" transform="translate(126.855469 533.013594)scale(0.154 -0.154)">
       <use xlink:href="#DejaVuSans-48"/>
       <use x="63.623047" xlink:href="#DejaVuSans-46"/>
       <use x="95.410156" xlink:href="#DejaVuSans-53"/>
       <use x="159.033203" xlink:href="#DejaVuSans-48"/>
      </g>
     </g>
    </g>
    <g id="xtick_4">
     <g id="line2d_4">
      <g>
       <use style="fill:#262626;stroke:#262626;stroke-width:1.25;" x="198.3555" xlink:href="#mc8b5fd4b3a" y="511.812"/>
      </g>
     </g>
     <g id="text_4">
      <!-- 0.75 -->
      <g style="fill:#262626;" transform="translate(181.210969 533.013594)scale(0.154 -0.154)">
       <defs>
        <path d="M 8.203125 72.90625 
L 55.078125 72.90625 
L 55.078125 68.703125 
L 28.609375 0 
L 18.3125 0 
L 43.21875 64.59375 
L 8.203125 64.59375 
z
" id="DejaVuSans-55"/>
       </defs>
       <use xlink:href="#DejaVuSans-48"/>
       <use x="63.623047" xlink:href="#DejaVuSans-46"/>
       <use x="95.410156" xlink:href="#DejaVuSans-55"/>
       <use x="159.033203" xlink:href="#DejaVuSans-53"/>
      </g>
     </g>
    </g>
    <g id="xtick_5">
     <g id="line2d_5">
      <g>
       <use style="fill:#262626;stroke:#262626;stroke-width:1.25;" x="252.711" xlink:href="#mc8b5fd4b3a" y="511.812"/>
      </g>
     </g>
     <g id="text_5">
      <!-- 1.00 -->
      <g style="fill:#262626;" transform="translate(235.566469 533.013594)scale(0.154 -0.154)">
       <defs>
        <path d="M 12.40625 8.296875 
L 28.515625 8.296875 
L 28.515625 63.921875 
L 10.984375 60.40625 
L 10.984375 69.390625 
L 28.421875 72.90625 
L 38.28125 72.90625 
L 38.28125 8.296875 
L 54.390625 8.296875 
L 54.390625 0 
L 12.40625 0 
z
" id="DejaVuSans-49"/>
       </defs>
       <use xlink:href="#DejaVuSans-49"/>
       <use x="63.623047" xlink:href="#DejaVuSans-46"/>
       <use x="95.410156" xlink:href="#DejaVuSans-48"/>
       <use x="159.033203" xlink:href="#DejaVuSans-48"/>
      </g>
     </g>
    </g>
    <g id="text_6">
     <!-- Mean of $R^2$ -->
     <g style="fill:#262626;" transform="translate(97.212 552.981688)scale(0.168 -0.168)">
      <defs>
       <path d="M 9.8125 72.90625 
L 24.515625 72.90625 
L 43.109375 23.296875 
L 61.8125 72.90625 
L 76.515625 72.90625 
L 76.515625 0 
L 66.890625 0 
L 66.890625 64.015625 
L 48.09375 14.015625 
L 38.1875 14.015625 
L 19.390625 64.015625 
L 19.390625 0 
L 9.8125 0 
z
" id="DejaVuSans-77"/>
       <path d="M 56.203125 29.59375 
L 56.203125 25.203125 
L 14.890625 25.203125 
Q 15.484375 15.921875 20.484375 11.0625 
Q 25.484375 6.203125 34.421875 6.203125 
Q 39.59375 6.203125 44.453125 7.46875 
Q 49.3125 8.734375 54.109375 11.28125 
L 54.109375 2.78125 
Q 49.265625 0.734375 44.1875 -0.34375 
Q 39.109375 -1.421875 33.890625 -1.421875 
Q 20.796875 -1.421875 13.15625 6.1875 
Q 5.515625 13.8125 5.515625 26.8125 
Q 5.515625 40.234375 12.765625 48.109375 
Q 20.015625 56 32.328125 56 
Q 43.359375 56 49.78125 48.890625 
Q 56.203125 41.796875 56.203125 29.59375 
z
M 47.21875 32.234375 
Q 47.125 39.59375 43.09375 43.984375 
Q 39.0625 48.390625 32.421875 48.390625 
Q 24.90625 48.390625 20.390625 44.140625 
Q 15.875 39.890625 15.1875 32.171875 
z
" id="DejaVuSans-101"/>
       <path d="M 34.28125 27.484375 
Q 23.390625 27.484375 19.1875 25 
Q 14.984375 22.515625 14.984375 16.5 
Q 14.984375 11.71875 18.140625 8.90625 
Q 21.296875 6.109375 26.703125 6.109375 
Q 34.1875 6.109375 38.703125 11.40625 
Q 43.21875 16.703125 43.21875 25.484375 
L 43.21875 27.484375 
z
M 52.203125 31.203125 
L 52.203125 0 
L 43.21875 0 
L 43.21875 8.296875 
Q 40.140625 3.328125 35.546875 0.953125 
Q 30.953125 -1.421875 24.3125 -1.421875 
Q 15.921875 -1.421875 10.953125 3.296875 
Q 6 8.015625 6 15.921875 
Q 6 25.140625 12.171875 29.828125 
Q 18.359375 34.515625 30.609375 34.515625 
L 43.21875 34.515625 
L 43.21875 35.40625 
Q 43.21875 41.609375 39.140625 45 
Q 35.0625 48.390625 27.6875 48.390625 
Q 23 48.390625 18.546875 47.265625 
Q 14.109375 46.140625 10.015625 43.890625 
L 10.015625 52.203125 
Q 14.9375 54.109375 19.578125 55.046875 
Q 24.21875 56 28.609375 56 
Q 40.484375 56 46.34375 49.84375 
Q 52.203125 43.703125 52.203125 31.203125 
z
" id="DejaVuSans-97"/>
       <path d="M 54.890625 33.015625 
L 54.890625 0 
L 45.90625 0 
L 45.90625 32.71875 
Q 45.90625 40.484375 42.875 44.328125 
Q 39.84375 48.1875 33.796875 48.1875 
Q 26.515625 48.1875 22.3125 43.546875 
Q 18.109375 38.921875 18.109375 30.90625 
L 18.109375 0 
L 9.078125 0 
L 9.078125 54.6875 
L 18.109375 54.6875 
L 18.109375 46.1875 
Q 21.34375 51.125 25.703125 53.5625 
Q 30.078125 56 35.796875 56 
Q 45.21875 56 50.046875 50.171875 
Q 54.890625 44.34375 54.890625 33.015625 
z
" id="DejaVuSans-110"/>
       <path id="DejaVuSans-32"/>
       <path d="M 30.609375 48.390625 
Q 23.390625 48.390625 19.1875 42.75 
Q 14.984375 37.109375 14.984375 27.296875 
Q 14.984375 17.484375 19.15625 11.84375 
Q 23.34375 6.203125 30.609375 6.203125 
Q 37.796875 6.203125 41.984375 11.859375 
Q 46.1875 17.53125 46.1875 27.296875 
Q 46.1875 37.015625 41.984375 42.703125 
Q 37.796875 48.390625 30.609375 48.390625 
z
M 30.609375 56 
Q 42.328125 56 49.015625 48.375 
Q 55.71875 40.765625 55.71875 27.296875 
Q 55.71875 13.875 49.015625 6.21875 
Q 42.328125 -1.421875 30.609375 -1.421875 
Q 18.84375 -1.421875 12.171875 6.21875 
Q 5.515625 13.875 5.515625 27.296875 
Q 5.515625 40.765625 12.171875 48.375 
Q 18.84375 56 30.609375 56 
z
" id="DejaVuSans-111"/>
       <path d="M 37.109375 75.984375 
L 37.109375 68.5 
L 28.515625 68.5 
Q 23.6875 68.5 21.796875 66.546875 
Q 19.921875 64.59375 19.921875 59.515625 
L 19.921875 54.6875 
L 34.71875 54.6875 
L 34.71875 47.703125 
L 19.921875 47.703125 
L 19.921875 0 
L 10.890625 0 
L 10.890625 47.703125 
L 2.296875 47.703125 
L 2.296875 54.6875 
L 10.890625 54.6875 
L 10.890625 58.5 
Q 10.890625 67.625 15.140625 71.796875 
Q 19.390625 75.984375 28.609375 75.984375 
z
" id="DejaVuSans-102"/>
       <path d="M 25.203125 64.796875 
L 20.21875 38.921875 
L 32.90625 38.921875 
Q 40.375 38.921875 44.984375 43.046875 
Q 49.609375 47.171875 49.609375 53.8125 
Q 49.609375 59.125 46.5 61.953125 
Q 43.40625 64.796875 37.59375 64.796875 
z
M 43.3125 35.015625 
Q 46.4375 34.28125 48.515625 31.390625 
Q 50.59375 28.515625 53.328125 19.921875 
L 59.515625 0 
L 49.125 0 
L 43.40625 18.703125 
Q 41.21875 25.921875 38.328125 28.359375 
Q 35.453125 30.8125 29.5 30.8125 
L 18.609375 30.8125 
L 12.59375 0 
L 2.6875 0 
L 16.890625 72.90625 
L 39.109375 72.90625 
Q 49.21875 72.90625 54.609375 68.328125 
Q 60.015625 63.765625 60.015625 55.171875 
Q 60.015625 47.5625 55.421875 41.984375 
Q 50.828125 36.421875 43.3125 35.015625 
z
" id="DejaVuSans-Oblique-82"/>
      </defs>
      <use transform="translate(0 0.765625)" xlink:href="#DejaVuSans-77"/>
      <use transform="translate(86.279297 0.765625)" xlink:href="#DejaVuSans-101"/>
      <use transform="translate(147.802734 0.765625)" xlink:href="#DejaVuSans-97"/>
      <use transform="translate(209.082031 0.765625)" xlink:href="#DejaVuSans-110"/>
      <use transform="translate(272.460938 0.765625)" xlink:href="#DejaVuSans-32"/>
      <use transform="translate(304.248047 0.765625)" xlink:href="#DejaVuSans-111"/>
      <use transform="translate(365.429688 0.765625)" xlink:href="#DejaVuSans-102"/>
      <use transform="translate(400.634766 0.765625)" xlink:href="#DejaVuSans-32"/>
      <use transform="translate(432.421875 0.765625)" xlink:href="#DejaVuSans-Oblique-82"/>
      <use transform="translate(508.921068 39.046875)scale(0.7)" xlink:href="#DejaVuSans-50"/>
     </g>
    </g>
   </g>
   <g id="matplotlib.axis_2">
    <g id="ytick_1">
     <g id="line2d_6">
      <defs>
       <path d="M 0 0 
L -6 0 
" id="m7b9d5f1a89" style="stroke:#262626;stroke-width:1.25;"/>
      </defs>
      <g>
       <use style="fill:#262626;stroke:#262626;stroke-width:1.25;" x="35.289" xlink:href="#m7b9d5f1a89" y="48.9717"/>
      </g>
     </g>
    </g>
    <g id="ytick_2">
     <g id="line2d_7">
      <g>
       <use style="fill:#262626;stroke:#262626;stroke-width:1.25;" x="35.289" xlink:href="#m7b9d5f1a89" y="72.7071"/>
      </g>
     </g>
    </g>
    <g id="ytick_3">
     <g id="line2d_8">
      <g>
       <use style="fill:#262626;stroke:#262626;stroke-width:1.25;" x="35.289" xlink:href="#m7b9d5f1a89" y="96.4425"/>
      </g>
     </g>
    </g>
    <g id="ytick_4">
     <g id="line2d_9">
      <g>
       <use style="fill:#262626;stroke:#262626;stroke-width:1.25;" x="35.289" xlink:href="#m7b9d5f1a89" y="120.1779"/>
      </g>
     </g>
    </g>
    <g id="ytick_5">
     <g id="line2d_10">
      <g>
       <use style="fill:#262626;stroke:#262626;stroke-width:1.25;" x="35.289" xlink:href="#m7b9d5f1a89" y="143.9133"/>
      </g>
     </g>
    </g>
    <g id="ytick_6">
     <g id="line2d_11">
      <g>
       <use style="fill:#262626;stroke:#262626;stroke-width:1.25;" x="35.289" xlink:href="#m7b9d5f1a89" y="167.6487"/>
      </g>
     </g>
    </g>
    <g id="ytick_7">
     <g id="line2d_12">
      <g>
       <use style="fill:#262626;stroke:#262626;stroke-width:1.25;" x="35.289" xlink:href="#m7b9d5f1a89" y="191.3841"/>
      </g>
     </g>
    </g>
    <g id="ytick_8">
     <g id="line2d_13">
      <g>
       <use style="fill:#262626;stroke:#262626;stroke-width:1.25;" x="35.289" xlink:href="#m7b9d5f1a89" y="215.1195"/>
      </g>
     </g>
    </g>
    <g id="ytick_9">
     <g id="line2d_14">
      <g>
       <use style="fill:#262626;stroke:#262626;stroke-width:1.25;" x="35.289" xlink:href="#m7b9d5f1a89" y="238.8549"/>
      </g>
     </g>
    </g>
    <g id="ytick_10">
     <g id="line2d_15">
      <g>
       <use style="fill:#262626;stroke:#262626;stroke-width:1.25;" x="35.289" xlink:href="#m7b9d5f1a89" y="262.5903"/>
      </g>
     </g>
    </g>
    <g id="ytick_11">
     <g id="line2d_16">
      <g>
       <use style="fill:#262626;stroke:#262626;stroke-width:1.25;" x="35.289" xlink:href="#m7b9d5f1a89" y="286.3257"/>
      </g>
     </g>
    </g>
    <g id="ytick_12">
     <g id="line2d_17">
      <g>
       <use style="fill:#262626;stroke:#262626;stroke-width:1.25;" x="35.289" xlink:href="#m7b9d5f1a89" y="310.0611"/>
      </g>
     </g>
    </g>
    <g id="ytick_13">
     <g id="line2d_18">
      <g>
       <use style="fill:#262626;stroke:#262626;stroke-width:1.25;" x="35.289" xlink:href="#m7b9d5f1a89" y="333.7965"/>
      </g>
     </g>
    </g>
    <g id="ytick_14">
     <g id="line2d_19">
      <g>
       <use style="fill:#262626;stroke:#262626;stroke-width:1.25;" x="35.289" xlink:href="#m7b9d5f1a89" y="357.5319"/>
      </g>
     </g>
    </g>
    <g id="ytick_15">
     <g id="line2d_20">
      <g>
       <use style="fill:#262626;stroke:#262626;stroke-width:1.25;" x="35.289" xlink:href="#m7b9d5f1a89" y="381.2673"/>
      </g>
     </g>
    </g>
    <g id="ytick_16">
     <g id="line2d_21">
      <g>
       <use style="fill:#262626;stroke:#262626;stroke-width:1.25;" x="35.289" xlink:href="#m7b9d5f1a89" y="405.0027"/>
      </g>
     </g>
    </g>
    <g id="ytick_17">
     <g id="line2d_22">
      <g>
       <use style="fill:#262626;stroke:#262626;stroke-width:1.25;" x="35.289" xlink:href="#m7b9d5f1a89" y="428.7381"/>
      </g>
     </g>
    </g>
    <g id="ytick_18">
     <g id="line2d_23">
      <g>
       <use style="fill:#262626;stroke:#262626;stroke-width:1.25;" x="35.289" xlink:href="#m7b9d5f1a89" y="452.4735"/>
      </g>
     </g>
    </g>
    <g id="ytick_19">
     <g id="line2d_24">
      <g>
       <use style="fill:#262626;stroke:#262626;stroke-width:1.25;" x="35.289" xlink:href="#m7b9d5f1a89" y="476.2089"/>
      </g>
     </g>
    </g>
    <g id="ytick_20">
     <g id="line2d_25">
      <g>
       <use style="fill:#262626;stroke:#262626;stroke-width:1.25;" x="35.289" xlink:href="#m7b9d5f1a89" y="499.9443"/>
      </g>
     </g>
    </g>
   </g>
   <g id="patch_3">
    <path clip-path="url(#p780c01c3aa)" d="M 35.289 39.47754 
L 197.319097 39.47754 
L 197.319097 58.46586 
L 35.289 58.46586 
z
" style="fill:#e98966;stroke:#ffffff;stroke-linejoin:miter;"/>
   </g>
   <g id="patch_4">
    <path clip-path="url(#p780c01c3aa)" d="M 35.289 63.21294 
L 176.575609 63.21294 
L 176.575609 82.20126 
L 35.289 82.20126 
z
" style="fill:#e98966;stroke:#ffffff;stroke-linejoin:miter;"/>
   </g>
   <g id="patch_5">
    <path clip-path="url(#p780c01c3aa)" d="M 35.289 86.94834 
L 154.752347 86.94834 
L 154.752347 105.93666 
L 35.289 105.93666 
z
" style="fill:#e98966;stroke:#ffffff;stroke-linejoin:miter;"/>
   </g>
   <g id="patch_6">
    <path clip-path="url(#p780c01c3aa)" d="M 35.289 110.68374 
L 148.601025 110.68374 
L 148.601025 129.67206 
L 35.289 129.67206 
z
" style="fill:#e98966;stroke:#ffffff;stroke-linejoin:miter;"/>
   </g>
   <g id="patch_7">
    <path clip-path="url(#p780c01c3aa)" d="M 35.289 134.41914 
L 142.438063 134.41914 
L 142.438063 153.40746 
L 35.289 153.40746 
z
" style="fill:#e98966;stroke:#ffffff;stroke-linejoin:miter;"/>
   </g>
   <g id="patch_8">
    <path clip-path="url(#p780c01c3aa)" d="M 35.289 158.15454 
L 125.107331 158.15454 
L 125.107331 177.14286 
L 35.289 177.14286 
z
" style="fill:#e98966;stroke:#ffffff;stroke-linejoin:miter;"/>
   </g>
   <g id="patch_9">
    <path clip-path="url(#p780c01c3aa)" d="M 35.289 181.88994 
L 111.669731 181.88994 
L 111.669731 200.87826 
L 35.289 200.87826 
z
" style="fill:#e98966;stroke:#ffffff;stroke-linejoin:miter;"/>
   </g>
   <g id="patch_10">
    <path clip-path="url(#p780c01c3aa)" d="M 35.289 205.62534 
L 97.448161 205.62534 
L 97.448161 224.61366 
L 35.289 224.61366 
z
" style="fill:#e98966;stroke:#ffffff;stroke-linejoin:miter;"/>
   </g>
   <g id="patch_11">
    <path clip-path="url(#p780c01c3aa)" d="M 35.289 229.36074 
L 67.896293 229.36074 
L 67.896293 248.34906 
L 35.289 248.34906 
z
" style="fill:#e98966;stroke:#ffffff;stroke-linejoin:miter;"/>
   </g>
   <g id="patch_12">
    <path clip-path="url(#p780c01c3aa)" d="M 35.289 253.09614 
L 67.561419 253.09614 
L 67.561419 272.08446 
L 35.289 272.08446 
z
" style="fill:#e98966;stroke:#ffffff;stroke-linejoin:miter;"/>
   </g>
   <g id="patch_13">
    <path clip-path="url(#p780c01c3aa)" d="M 35.289 276.83154 
L 47.228543 276.83154 
L 47.228543 295.81986 
L 35.289 295.81986 
z
" style="fill:#e98966;stroke:#ffffff;stroke-linejoin:miter;"/>
   </g>
   <g id="patch_14">
    <path clip-path="url(#p780c01c3aa)" d="M 35.289 300.56694 
L 46.216123 300.56694 
L 46.216123 319.55526 
L 35.289 319.55526 
z
" style="fill:#e98966;stroke:#ffffff;stroke-linejoin:miter;"/>
   </g>
   <g id="patch_15">
    <path clip-path="url(#p780c01c3aa)" d="M 35.289 324.30234 
L 42.808593 324.30234 
L 42.808593 343.29066 
L 35.289 343.29066 
z
" style="fill:#e98966;stroke:#ffffff;stroke-linejoin:miter;"/>
   </g>
   <g id="patch_16">
    <path clip-path="url(#p780c01c3aa)" d="M 35.289 348.03774 
L 42.301486 348.03774 
L 42.301486 367.02606 
L 35.289 367.02606 
z
" style="fill:#e98966;stroke:#ffffff;stroke-linejoin:miter;"/>
   </g>
   <g id="patch_17">
    <path clip-path="url(#p780c01c3aa)" d="M 35.289 371.77314 
L 38.088669 371.77314 
L 38.088669 390.76146 
L 35.289 390.76146 
z
" style="fill:#e98966;stroke:#ffffff;stroke-linejoin:miter;"/>
   </g>
   <g id="patch_18">
    <path clip-path="url(#p780c01c3aa)" d="M 35.289 395.50854 
L 31.483215 395.50854 
L 31.483215 414.49686 
L 35.289 414.49686 
z
" style="fill:#e98966;stroke:#ffffff;stroke-linejoin:miter;"/>
   </g>
   <g id="patch_19">
    <path clip-path="url(#p780c01c3aa)" d="M 35.289 419.24394 
L 21.941097 419.24394 
L 21.941097 438.23226 
L 35.289 438.23226 
z
" style="fill:#e98966;stroke:#ffffff;stroke-linejoin:miter;"/>
   </g>
   <g id="patch_20">
    <path clip-path="url(#p780c01c3aa)" d="M 35.289 442.97934 
L 14.143632 442.97934 
L 14.143632 461.96766 
L 35.289 461.96766 
z
" style="fill:#e98966;stroke:#ffffff;stroke-linejoin:miter;"/>
   </g>
   <g id="patch_21">
    <path clip-path="url(#p780c01c3aa)" d="M 35.289 466.71474 
L 5.247986 466.71474 
L 5.247986 485.70306 
L 35.289 485.70306 
z
" style="fill:#e98966;stroke:#ffffff;stroke-linejoin:miter;"/>
   </g>
   <g id="patch_22">
    <path clip-path="url(#p780c01c3aa)" d="M 35.289 490.45014 
L 3.071261 490.45014 
L 3.071261 509.43846 
L 35.289 509.43846 
z
" style="fill:#e98966;stroke:#ffffff;stroke-linejoin:miter;"/>
   </g>
   <g id="line2d_26">
    <path clip-path="url(#p780c01c3aa)" d="M 192.884724 48.9717 
L 201.75347 48.9717 
" style="fill:none;stroke:#4c4c4c;stroke-linecap:round;stroke-width:2.7;"/>
   </g>
   <g id="line2d_27">
    <path clip-path="url(#p780c01c3aa)" d="M 192.884724 41.85108 
L 192.884724 56.09232 
" style="fill:none;stroke:#4c4c4c;stroke-linecap:round;stroke-width:2.7;"/>
   </g>
   <g id="line2d_28">
    <path clip-path="url(#p780c01c3aa)" d="M 201.75347 41.85108 
L 201.75347 56.09232 
" style="fill:none;stroke:#4c4c4c;stroke-linecap:round;stroke-width:2.7;"/>
   </g>
   <g id="line2d_29">
    <path clip-path="url(#p780c01c3aa)" d="M 173.343272 72.7071 
L 179.807945 72.7071 
" style="fill:none;stroke:#4c4c4c;stroke-linecap:round;stroke-width:2.7;"/>
   </g>
   <g id="line2d_30">
    <path clip-path="url(#p780c01c3aa)" d="M 173.343272 65.58648 
L 173.343272 79.82772 
" style="fill:none;stroke:#4c4c4c;stroke-linecap:round;stroke-width:2.7;"/>
   </g>
   <g id="line2d_31">
    <path clip-path="url(#p780c01c3aa)" d="M 179.807945 65.58648 
L 179.807945 79.82772 
" style="fill:none;stroke:#4c4c4c;stroke-linecap:round;stroke-width:2.7;"/>
   </g>
   <g id="line2d_32">
    <path clip-path="url(#p780c01c3aa)" d="M 151.938211 96.4425 
L 157.566483 96.4425 
" style="fill:none;stroke:#4c4c4c;stroke-linecap:round;stroke-width:2.7;"/>
   </g>
   <g id="line2d_33">
    <path clip-path="url(#p780c01c3aa)" d="M 151.938211 89.32188 
L 151.938211 103.56312 
" style="fill:none;stroke:#4c4c4c;stroke-linecap:round;stroke-width:2.7;"/>
   </g>
   <g id="line2d_34">
    <path clip-path="url(#p780c01c3aa)" d="M 157.566483 89.32188 
L 157.566483 103.56312 
" style="fill:none;stroke:#4c4c4c;stroke-linecap:round;stroke-width:2.7;"/>
   </g>
   <g id="line2d_35">
    <path clip-path="url(#p780c01c3aa)" d="M 135.297717 120.1779 
L 161.904334 120.1779 
" style="fill:none;stroke:#4c4c4c;stroke-linecap:round;stroke-width:2.7;"/>
   </g>
   <g id="line2d_36">
    <path clip-path="url(#p780c01c3aa)" d="M 135.297717 113.05728 
L 135.297717 127.29852 
" style="fill:none;stroke:#4c4c4c;stroke-linecap:round;stroke-width:2.7;"/>
   </g>
   <g id="line2d_37">
    <path clip-path="url(#p780c01c3aa)" d="M 161.904334 113.05728 
L 161.904334 127.29852 
" style="fill:none;stroke:#4c4c4c;stroke-linecap:round;stroke-width:2.7;"/>
   </g>
   <g id="line2d_38">
    <path clip-path="url(#p780c01c3aa)" d="M 136.596896 143.9133 
L 148.279229 143.9133 
" style="fill:none;stroke:#4c4c4c;stroke-linecap:round;stroke-width:2.7;"/>
   </g>
   <g id="line2d_39">
    <path clip-path="url(#p780c01c3aa)" d="M 136.596896 136.79268 
L 136.596896 151.03392 
" style="fill:none;stroke:#4c4c4c;stroke-linecap:round;stroke-width:2.7;"/>
   </g>
   <g id="line2d_40">
    <path clip-path="url(#p780c01c3aa)" d="M 148.279229 136.79268 
L 148.279229 151.03392 
" style="fill:none;stroke:#4c4c4c;stroke-linecap:round;stroke-width:2.7;"/>
   </g>
   <g id="line2d_41">
    <path clip-path="url(#p780c01c3aa)" d="M 117.961359 167.6487 
L 132.253304 167.6487 
" style="fill:none;stroke:#4c4c4c;stroke-linecap:round;stroke-width:2.7;"/>
   </g>
   <g id="line2d_42">
    <path clip-path="url(#p780c01c3aa)" d="M 117.961359 160.52808 
L 117.961359 174.76932 
" style="fill:none;stroke:#4c4c4c;stroke-linecap:round;stroke-width:2.7;"/>
   </g>
   <g id="line2d_43">
    <path clip-path="url(#p780c01c3aa)" d="M 132.253304 160.52808 
L 132.253304 174.76932 
" style="fill:none;stroke:#4c4c4c;stroke-linecap:round;stroke-width:2.7;"/>
   </g>
   <g id="line2d_44">
    <path clip-path="url(#p780c01c3aa)" d="M 108.250165 191.3841 
L 115.089297 191.3841 
" style="fill:none;stroke:#4c4c4c;stroke-linecap:round;stroke-width:2.7;"/>
   </g>
   <g id="line2d_45">
    <path clip-path="url(#p780c01c3aa)" d="M 108.250165 184.26348 
L 108.250165 198.50472 
" style="fill:none;stroke:#4c4c4c;stroke-linecap:round;stroke-width:2.7;"/>
   </g>
   <g id="line2d_46">
    <path clip-path="url(#p780c01c3aa)" d="M 115.089297 184.26348 
L 115.089297 198.50472 
" style="fill:none;stroke:#4c4c4c;stroke-linecap:round;stroke-width:2.7;"/>
   </g>
   <g id="line2d_47">
    <path clip-path="url(#p780c01c3aa)" d="M 87.035886 215.1195 
L 107.860435 215.1195 
" style="fill:none;stroke:#4c4c4c;stroke-linecap:round;stroke-width:2.7;"/>
   </g>
   <g id="line2d_48">
    <path clip-path="url(#p780c01c3aa)" d="M 87.035886 207.99888 
L 87.035886 222.24012 
" style="fill:none;stroke:#4c4c4c;stroke-linecap:round;stroke-width:2.7;"/>
   </g>
   <g id="line2d_49">
    <path clip-path="url(#p780c01c3aa)" d="M 107.860435 207.99888 
L 107.860435 222.24012 
" style="fill:none;stroke:#4c4c4c;stroke-linecap:round;stroke-width:2.7;"/>
   </g>
   <g id="line2d_50">
    <path clip-path="url(#p780c01c3aa)" d="M 51.272014 238.8549 
L 84.520571 238.8549 
" style="fill:none;stroke:#4c4c4c;stroke-linecap:round;stroke-width:2.7;"/>
   </g>
   <g id="line2d_51">
    <path clip-path="url(#p780c01c3aa)" d="M 51.272014 231.73428 
L 51.272014 245.97552 
" style="fill:none;stroke:#4c4c4c;stroke-linecap:round;stroke-width:2.7;"/>
   </g>
   <g id="line2d_52">
    <path clip-path="url(#p780c01c3aa)" d="M 84.520571 231.73428 
L 84.520571 245.97552 
" style="fill:none;stroke:#4c4c4c;stroke-linecap:round;stroke-width:2.7;"/>
   </g>
   <g id="line2d_53">
    <path clip-path="url(#p780c01c3aa)" d="M 64.707689 262.5903 
L 70.415149 262.5903 
" style="fill:none;stroke:#4c4c4c;stroke-linecap:round;stroke-width:2.7;"/>
   </g>
   <g id="line2d_54">
    <path clip-path="url(#p780c01c3aa)" d="M 64.707689 255.46968 
L 64.707689 269.71092 
" style="fill:none;stroke:#4c4c4c;stroke-linecap:round;stroke-width:2.7;"/>
   </g>
   <g id="line2d_55">
    <path clip-path="url(#p780c01c3aa)" d="M 70.415149 255.46968 
L 70.415149 269.71092 
" style="fill:none;stroke:#4c4c4c;stroke-linecap:round;stroke-width:2.7;"/>
   </g>
   <g id="line2d_56">
    <path clip-path="url(#p780c01c3aa)" d="M 15.773668 286.3257 
L 78.683419 286.3257 
" style="fill:none;stroke:#4c4c4c;stroke-linecap:round;stroke-width:2.7;"/>
   </g>
   <g id="line2d_57">
    <path clip-path="url(#p780c01c3aa)" d="M 15.773668 279.20508 
L 15.773668 293.44632 
" style="fill:none;stroke:#4c4c4c;stroke-linecap:round;stroke-width:2.7;"/>
   </g>
   <g id="line2d_58">
    <path clip-path="url(#p780c01c3aa)" d="M 78.683419 279.20508 
L 78.683419 293.44632 
" style="fill:none;stroke:#4c4c4c;stroke-linecap:round;stroke-width:2.7;"/>
   </g>
   <g id="line2d_59">
    <path clip-path="url(#p780c01c3aa)" d="M 28.268344 310.0611 
L 64.163902 310.0611 
" style="fill:none;stroke:#4c4c4c;stroke-linecap:round;stroke-width:2.7;"/>
   </g>
   <g id="line2d_60">
    <path clip-path="url(#p780c01c3aa)" d="M 28.268344 302.94048 
L 28.268344 317.18172 
" style="fill:none;stroke:#4c4c4c;stroke-linecap:round;stroke-width:2.7;"/>
   </g>
   <g id="line2d_61">
    <path clip-path="url(#p780c01c3aa)" d="M 64.163902 302.94048 
L 64.163902 317.18172 
" style="fill:none;stroke:#4c4c4c;stroke-linecap:round;stroke-width:2.7;"/>
   </g>
   <g id="line2d_62">
    <path clip-path="url(#p780c01c3aa)" d="M 32.146632 333.7965 
L 53.470555 333.7965 
" style="fill:none;stroke:#4c4c4c;stroke-linecap:round;stroke-width:2.7;"/>
   </g>
   <g id="line2d_63">
    <path clip-path="url(#p780c01c3aa)" d="M 32.146632 326.67588 
L 32.146632 340.91712 
" style="fill:none;stroke:#4c4c4c;stroke-linecap:round;stroke-width:2.7;"/>
   </g>
   <g id="line2d_64">
    <path clip-path="url(#p780c01c3aa)" d="M 53.470555 326.67588 
L 53.470555 340.91712 
" style="fill:none;stroke:#4c4c4c;stroke-linecap:round;stroke-width:2.7;"/>
   </g>
   <g id="line2d_65">
    <path clip-path="url(#p780c01c3aa)" d="M 7.812381 357.5319 
L 76.790591 357.5319 
" style="fill:none;stroke:#4c4c4c;stroke-linecap:round;stroke-width:2.7;"/>
   </g>
   <g id="line2d_66">
    <path clip-path="url(#p780c01c3aa)" d="M 7.812381 350.41128 
L 7.812381 364.65252 
" style="fill:none;stroke:#4c4c4c;stroke-linecap:round;stroke-width:2.7;"/>
   </g>
   <g id="line2d_67">
    <path clip-path="url(#p780c01c3aa)" d="M 76.790591 350.41128 
L 76.790591 364.65252 
" style="fill:none;stroke:#4c4c4c;stroke-linecap:round;stroke-width:2.7;"/>
   </g>
   <g id="line2d_68">
    <path clip-path="url(#p780c01c3aa)" d="M 29.974522 381.2673 
L 46.202817 381.2673 
" style="fill:none;stroke:#4c4c4c;stroke-linecap:round;stroke-width:2.7;"/>
   </g>
   <g id="line2d_69">
    <path clip-path="url(#p780c01c3aa)" d="M 29.974522 374.14668 
L 29.974522 388.38792 
" style="fill:none;stroke:#4c4c4c;stroke-linecap:round;stroke-width:2.7;"/>
   </g>
   <g id="line2d_70">
    <path clip-path="url(#p780c01c3aa)" d="M 46.202817 374.14668 
L 46.202817 388.38792 
" style="fill:none;stroke:#4c4c4c;stroke-linecap:round;stroke-width:2.7;"/>
   </g>
   <g id="line2d_71">
    <path clip-path="url(#p780c01c3aa)" d="M 9.505547 405.0027 
L 53.460882 405.0027 
" style="fill:none;stroke:#4c4c4c;stroke-linecap:round;stroke-width:2.7;"/>
   </g>
   <g id="line2d_72">
    <path clip-path="url(#p780c01c3aa)" d="M 9.505547 397.88208 
L 9.505547 412.12332 
" style="fill:none;stroke:#4c4c4c;stroke-linecap:round;stroke-width:2.7;"/>
   </g>
   <g id="line2d_73">
    <path clip-path="url(#p780c01c3aa)" d="M 53.460882 397.88208 
L 53.460882 412.12332 
" style="fill:none;stroke:#4c4c4c;stroke-linecap:round;stroke-width:2.7;"/>
   </g>
   <g id="line2d_74">
    <path clip-path="url(#p780c01c3aa)" d="M 9.224043 428.7381 
L 34.65815 428.7381 
" style="fill:none;stroke:#4c4c4c;stroke-linecap:round;stroke-width:2.7;"/>
   </g>
   <g id="line2d_75">
    <path clip-path="url(#p780c01c3aa)" d="M 9.224043 421.61748 
L 9.224043 435.85872 
" style="fill:none;stroke:#4c4c4c;stroke-linecap:round;stroke-width:2.7;"/>
   </g>
   <g id="line2d_76">
    <path clip-path="url(#p780c01c3aa)" d="M 34.65815 421.61748 
L 34.65815 435.85872 
" style="fill:none;stroke:#4c4c4c;stroke-linecap:round;stroke-width:2.7;"/>
   </g>
   <g id="line2d_77">
    <path clip-path="url(#p780c01c3aa)" d="M -1 452.4735 
L 35.926396 452.4735 
" style="fill:none;stroke:#4c4c4c;stroke-linecap:round;stroke-width:2.7;"/>
   </g>
   <g id="line2d_78">
    <path clip-path="url(#p780c01c3aa)" style="fill:none;stroke:#4c4c4c;stroke-linecap:round;stroke-width:2.7;"/>
   </g>
   <g id="line2d_79">
    <path clip-path="url(#p780c01c3aa)" d="M 35.926396 445.35288 
L 35.926396 459.59412 
" style="fill:none;stroke:#4c4c4c;stroke-linecap:round;stroke-width:2.7;"/>
   </g>
   <g id="line2d_80">
    <path clip-path="url(#p780c01c3aa)" d="M 2.940819 476.2089 
L 7.555154 476.2089 
" style="fill:none;stroke:#4c4c4c;stroke-linecap:round;stroke-width:2.7;"/>
   </g>
   <g id="line2d_81">
    <path clip-path="url(#p780c01c3aa)" d="M 2.940819 469.08828 
L 2.940819 483.32952 
" style="fill:none;stroke:#4c4c4c;stroke-linecap:round;stroke-width:2.7;"/>
   </g>
   <g id="line2d_82">
    <path clip-path="url(#p780c01c3aa)" d="M 7.555154 469.08828 
L 7.555154 483.32952 
" style="fill:none;stroke:#4c4c4c;stroke-linecap:round;stroke-width:2.7;"/>
   </g>
   <g id="line2d_83">
    <path clip-path="url(#p780c01c3aa)" d="M -1 499.9443 
L 41.718312 499.9443 
" style="fill:none;stroke:#4c4c4c;stroke-linecap:round;stroke-width:2.7;"/>
   </g>
   <g id="line2d_84">
    <path clip-path="url(#p780c01c3aa)" style="fill:none;stroke:#4c4c4c;stroke-linecap:round;stroke-width:2.7;"/>
   </g>
   <g id="line2d_85">
    <path clip-path="url(#p780c01c3aa)" d="M 41.718312 492.82368 
L 41.718312 507.06492 
" style="fill:none;stroke:#4c4c4c;stroke-linecap:round;stroke-width:2.7;"/>
   </g>
   <g id="patch_23">
    <path d="M 35.289 511.812 
L 35.289 37.104 
" style="fill:none;stroke:#262626;stroke-linecap:square;stroke-linejoin:miter;stroke-width:1.25;"/>
   </g>
   <g id="patch_24">
    <path d="M 35.289 511.812 
L 252.711 511.812 
" style="fill:none;stroke:#262626;stroke-linecap:square;stroke-linejoin:miter;stroke-width:1.25;"/>
   </g>
   <g id="text_7">
    <!-- HLCA -->
    <g style="fill:#262626;" transform="translate(121.390875 31.104)scale(0.168 -0.168)">
     <defs>
      <path d="M 9.8125 72.90625 
L 19.671875 72.90625 
L 19.671875 43.015625 
L 55.515625 43.015625 
L 55.515625 72.90625 
L 65.375 72.90625 
L 65.375 0 
L 55.515625 0 
L 55.515625 34.71875 
L 19.671875 34.71875 
L 19.671875 0 
L 9.8125 0 
z
" id="DejaVuSans-72"/>
      <path d="M 9.8125 72.90625 
L 19.671875 72.90625 
L 19.671875 8.296875 
L 55.171875 8.296875 
L 55.171875 0 
L 9.8125 0 
z
" id="DejaVuSans-76"/>
      <path d="M 64.40625 67.28125 
L 64.40625 56.890625 
Q 59.421875 61.53125 53.78125 63.8125 
Q 48.140625 66.109375 41.796875 66.109375 
Q 29.296875 66.109375 22.65625 58.46875 
Q 16.015625 50.828125 16.015625 36.375 
Q 16.015625 21.96875 22.65625 14.328125 
Q 29.296875 6.6875 41.796875 6.6875 
Q 48.140625 6.6875 53.78125 8.984375 
Q 59.421875 11.28125 64.40625 15.921875 
L 64.40625 5.609375 
Q 59.234375 2.09375 53.4375 0.328125 
Q 47.65625 -1.421875 41.21875 -1.421875 
Q 24.65625 -1.421875 15.125 8.703125 
Q 5.609375 18.84375 5.609375 36.375 
Q 5.609375 53.953125 15.125 64.078125 
Q 24.65625 74.21875 41.21875 74.21875 
Q 47.75 74.21875 53.53125 72.484375 
Q 59.328125 70.75 64.40625 67.28125 
z
" id="DejaVuSans-67"/>
      <path d="M 34.1875 63.1875 
L 20.796875 26.90625 
L 47.609375 26.90625 
z
M 28.609375 72.90625 
L 39.796875 72.90625 
L 67.578125 0 
L 57.328125 0 
L 50.6875 18.703125 
L 17.828125 18.703125 
L 11.1875 0 
L 0.78125 0 
z
" id="DejaVuSans-65"/>
     </defs>
     <use xlink:href="#DejaVuSans-72"/>
     <use x="75.195312" xlink:href="#DejaVuSans-76"/>
     <use x="130.908203" xlink:href="#DejaVuSans-67"/>
     <use x="200.732422" xlink:href="#DejaVuSans-65"/>
    </g>
   </g>
  </g>
 </g>
 <defs>
  <clipPath id="p780c01c3aa">
   <rect height="474.708" width="217.422" x="35.289" y="37.104"/>
  </clipPath>
 </defs>
</svg>
