<?xml version="1.0" encoding="utf-8" standalone="no"?>
<!DOCTYPE svg PUBLIC "-//W3C//DTD SVG 1.1//EN"
  "http://www.w3.org/Graphics/SVG/1.1/DTD/svg11.dtd">
<!-- Created with matplotlib (https://matplotlib.org/) -->
<svg height="576pt" version="1.1" viewBox="0 0 288 576" width="288pt" xmlns="http://www.w3.org/2000/svg" xmlns:xlink="http://www.w3.org/1999/xlink">
 <metadata>
  <rdf:RDF xmlns:cc="http://creativecommons.org/ns#" xmlns:dc="http://purl.org/dc/elements/1.1/" xmlns:rdf="http://www.w3.org/1999/02/22-rdf-syntax-ns#">
   <cc:Work>
    <dc:type rdf:resource="http://purl.org/dc/dcmitype/StillImage"/>
    <dc:date>2023-05-12T22:49:09.402986</dc:date>
    <dc:format>image/svg+xml</dc:format>
    <dc:creator>
     <cc:Agent>
      <dc:title>Matplotlib v3.3.2, https://matplotlib.org/</dc:title>
     </cc:Agent>
    </dc:creator>
   </cc:Work>
  </rdf:RDF>
 </metadata>
 <defs>
  <style type="text/css">*{stroke-linecap:butt;stroke-linejoin:round;}</style>
 </defs>
 <g id="figure_1">
  <g id="patch_1">
   <path d="M 0 576 
L 288 576 
L 288 0 
L 0 0 
z
" style="fill:#ffffff;"/>
  </g>
  <g id="axes_1">
   <g id="patch_2">
    <path d="M 35.289 511.812 
L 252.711 511.812 
L 252.711 37.104 
L 35.289 37.104 
z
" style="fill:#ffffff;"/>
   </g>
   <g id="matplotlib.axis_1">
    <g id="xtick_1">
     <g id="line2d_1">
      <defs>
       <path d="M 0 0 
L 0 6 
" id="mf3fa72e097" style="stroke:#262626;stroke-width:1.25;"/>
      </defs>
      <g>
       <use style="fill:#262626;stroke:#262626;stroke-width:1.25;" x="35.289" xlink:href="#mf3fa72e097" y="511.812"/>
      </g>
     </g>
     <g id="text_1">
      <!-- 0.00 -->
      <g style="fill:#262626;" transform="translate(18.144469 533.013594)scale(0.154 -0.154)">
       <defs>
        <path d="M 31.78125 66.40625 
Q 24.171875 66.40625 20.328125 58.90625 
Q 16.5 51.421875 16.5 36.375 
Q 16.5 21.390625 20.328125 13.890625 
Q 24.171875 6.390625 31.78125 6.390625 
Q 39.453125 6.390625 43.28125 13.890625 
Q 47.125 21.390625 47.125 36.375 
Q 47.125 51.421875 43.28125 58.90625 
Q 39.453125 66.40625 31.78125 66.40625 
z
M 31.78125 74.21875 
Q 44.046875 74.21875 50.515625 64.515625 
Q 56.984375 54.828125 56.984375 36.375 
Q 56.984375 17.96875 50.515625 8.265625 
Q 44.046875 -1.421875 31.78125 -1.421875 
Q 19.53125 -1.421875 13.0625 8.265625 
Q 6.59375 17.96875 6.59375 36.375 
Q 6.59375 54.828125 13.0625 64.515625 
Q 19.53125 74.21875 31.78125 74.21875 
z
" id="DejaVuSans-48"/>
        <path d="M 10.6875 12.40625 
L 21 12.40625 
L 21 0 
L 10.6875 0 
z
" id="DejaVuSans-46"/>
       </defs>
       <use xlink:href="#DejaVuSans-48"/>
       <use x="63.623047" xlink:href="#DejaVuSans-46"/>
       <use x="95.410156" xlink:href="#DejaVuSans-48"/>
       <use x="159.033203" xlink:href="#DejaVuSans-48"/>
      </g>
     </g>
    </g>
    <g id="xtick_2">
     <g id="line2d_2">
      <g>
       <use style="fill:#262626;stroke:#262626;stroke-width:1.25;" x="89.6445" xlink:href="#mf3fa72e097" y="511.812"/>
      </g>
     </g>
     <g id="text_2">
      <!-- 0.25 -->
      <g style="fill:#262626;" transform="translate(72.499969 533.013594)scale(0.154 -0.154)">
       <defs>
        <path d="M 19.1875 8.296875 
L 53.609375 8.296875 
L 53.609375 0 
L 7.328125 0 
L 7.328125 8.296875 
Q 12.9375 14.109375 22.625 23.890625 
Q 32.328125 33.6875 34.8125 36.53125 
Q 39.546875 41.84375 41.421875 45.53125 
Q 43.3125 49.21875 43.3125 52.78125 
Q 43.3125 58.59375 39.234375 62.25 
Q 35.15625 65.921875 28.609375 65.921875 
Q 23.96875 65.921875 18.8125 64.3125 
Q 13.671875 62.703125 7.8125 59.421875 
L 7.8125 69.390625 
Q 13.765625 71.78125 18.9375 73 
Q 24.125 74.21875 28.421875 74.21875 
Q 39.75 74.21875 46.484375 68.546875 
Q 53.21875 62.890625 53.21875 53.421875 
Q 53.21875 48.921875 51.53125 44.890625 
Q 49.859375 40.875 45.40625 35.40625 
Q 44.1875 33.984375 37.640625 27.21875 
Q 31.109375 20.453125 19.1875 8.296875 
z
" id="DejaVuSans-50"/>
        <path d="M 10.796875 72.90625 
L 49.515625 72.90625 
L 49.515625 64.59375 
L 19.828125 64.59375 
L 19.828125 46.734375 
Q 21.96875 47.46875 24.109375 47.828125 
Q 26.265625 48.1875 28.421875 48.1875 
Q 40.625 48.1875 47.75 41.5 
Q 54.890625 34.8125 54.890625 23.390625 
Q 54.890625 11.625 47.5625 5.09375 
Q 40.234375 -1.421875 26.90625 -1.421875 
Q 22.3125 -1.421875 17.546875 -0.640625 
Q 12.796875 0.140625 7.71875 1.703125 
L 7.71875 11.625 
Q 12.109375 9.234375 16.796875 8.0625 
Q 21.484375 6.890625 26.703125 6.890625 
Q 35.15625 6.890625 40.078125 11.328125 
Q 45.015625 15.765625 45.015625 23.390625 
Q 45.015625 31 40.078125 35.4375 
Q 35.15625 39.890625 26.703125 39.890625 
Q 22.75 39.890625 18.8125 39.015625 
Q 14.890625 38.140625 10.796875 36.28125 
z
" id="DejaVuSans-53"/>
       </defs>
       <use xlink:href="#DejaVuSans-48"/>
       <use x="63.623047" xlink:href="#DejaVuSans-46"/>
       <use x="95.410156" xlink:href="#DejaVuSans-50"/>
       <use x="159.033203" xlink:href="#DejaVuSans-53"/>
      </g>
     </g>
    </g>
    <g id="xtick_3">
     <g id="line2d_3">
      <g>
       <use style="fill:#262626;stroke:#262626;stroke-width:1.25;" x="144" xlink:href="#mf3fa72e097" y="511.812"/>
      </g>
     </g>
     <g id="text_3">
      <!-- 0.50 -->
      <g style="fill:#262626;" transform="translate(126.855469 533.013594)scale(0.154 -0.154)">
       <use xlink:href="#DejaVuSans-48"/>
       <use x="63.623047" xlink:href="#DejaVuSans-46"/>
       <use x="95.410156" xlink:href="#DejaVuSans-53"/>
       <use x="159.033203" xlink:href="#DejaVuSans-48"/>
      </g>
     </g>
    </g>
    <g id="xtick_4">
     <g id="line2d_4">
      <g>
       <use style="fill:#262626;stroke:#262626;stroke-width:1.25;" x="198.3555" xlink:href="#mf3fa72e097" y="511.812"/>
      </g>
     </g>
     <g id="text_4">
      <!-- 0.75 -->
      <g style="fill:#262626;" transform="translate(181.210969 533.013594)scale(0.154 -0.154)">
       <defs>
        <path d="M 8.203125 72.90625 
L 55.078125 72.90625 
L 55.078125 68.703125 
L 28.609375 0 
L 18.3125 0 
L 43.21875 64.59375 
L 8.203125 64.59375 
z
" id="DejaVuSans-55"/>
       </defs>
       <use xlink:href="#DejaVuSans-48"/>
       <use x="63.623047" xlink:href="#DejaVuSans-46"/>
       <use x="95.410156" xlink:href="#DejaVuSans-55"/>
       <use x="159.033203" xlink:href="#DejaVuSans-53"/>
      </g>
     </g>
    </g>
    <g id="xtick_5">
     <g id="line2d_5">
      <g>
       <use style="fill:#262626;stroke:#262626;stroke-width:1.25;" x="252.711" xlink:href="#mf3fa72e097" y="511.812"/>
      </g>
     </g>
     <g id="text_5">
      <!-- 1.00 -->
      <g style="fill:#262626;" transform="translate(235.566469 533.013594)scale(0.154 -0.154)">
       <defs>
        <path d="M 12.40625 8.296875 
L 28.515625 8.296875 
L 28.515625 63.921875 
L 10.984375 60.40625 
L 10.984375 69.390625 
L 28.421875 72.90625 
L 38.28125 72.90625 
L 38.28125 8.296875 
L 54.390625 8.296875 
L 54.390625 0 
L 12.40625 0 
z
" id="DejaVuSans-49"/>
       </defs>
       <use xlink:href="#DejaVuSans-49"/>
       <use x="63.623047" xlink:href="#DejaVuSans-46"/>
       <use x="95.410156" xlink:href="#DejaVuSans-48"/>
       <use x="159.033203" xlink:href="#DejaVuSans-48"/>
      </g>
     </g>
    </g>
    <g id="text_6">
     <!-- Mean of $R^2$ -->
     <g style="fill:#262626;" transform="translate(97.212 552.981688)scale(0.168 -0.168)">
      <defs>
       <path d="M 9.8125 72.90625 
L 24.515625 72.90625 
L 43.109375 23.296875 
L 61.8125 72.90625 
L 76.515625 72.90625 
L 76.515625 0 
L 66.890625 0 
L 66.890625 64.015625 
L 48.09375 14.015625 
L 38.1875 14.015625 
L 19.390625 64.015625 
L 19.390625 0 
L 9.8125 0 
z
" id="DejaVuSans-77"/>
       <path d="M 56.203125 29.59375 
L 56.203125 25.203125 
L 14.890625 25.203125 
Q 15.484375 15.921875 20.484375 11.0625 
Q 25.484375 6.203125 34.421875 6.203125 
Q 39.59375 6.203125 44.453125 7.46875 
Q 49.3125 8.734375 54.109375 11.28125 
L 54.109375 2.78125 
Q 49.265625 0.734375 44.1875 -0.34375 
Q 39.109375 -1.421875 33.890625 -1.421875 
Q 20.796875 -1.421875 13.15625 6.1875 
Q 5.515625 13.8125 5.515625 26.8125 
Q 5.515625 40.234375 12.765625 48.109375 
Q 20.015625 56 32.328125 56 
Q 43.359375 56 49.78125 48.890625 
Q 56.203125 41.796875 56.203125 29.59375 
z
M 47.21875 32.234375 
Q 47.125 39.59375 43.09375 43.984375 
Q 39.0625 48.390625 32.421875 48.390625 
Q 24.90625 48.390625 20.390625 44.140625 
Q 15.875 39.890625 15.1875 32.171875 
z
" id="DejaVuSans-101"/>
       <path d="M 34.28125 27.484375 
Q 23.390625 27.484375 19.1875 25 
Q 14.984375 22.515625 14.984375 16.5 
Q 14.984375 11.71875 18.140625 8.90625 
Q 21.296875 6.109375 26.703125 6.109375 
Q 34.1875 6.109375 38.703125 11.40625 
Q 43.21875 16.703125 43.21875 25.484375 
L 43.21875 27.484375 
z
M 52.203125 31.203125 
L 52.203125 0 
L 43.21875 0 
L 43.21875 8.296875 
Q 40.140625 3.328125 35.546875 0.953125 
Q 30.953125 -1.421875 24.3125 -1.421875 
Q 15.921875 -1.421875 10.953125 3.296875 
Q 6 8.015625 6 15.921875 
Q 6 25.140625 12.171875 29.828125 
Q 18.359375 34.515625 30.609375 34.515625 
L 43.21875 34.515625 
L 43.21875 35.40625 
Q 43.21875 41.609375 39.140625 45 
Q 35.0625 48.390625 27.6875 48.390625 
Q 23 48.390625 18.546875 47.265625 
Q 14.109375 46.140625 10.015625 43.890625 
L 10.015625 52.203125 
Q 14.9375 54.109375 19.578125 55.046875 
Q 24.21875 56 28.609375 56 
Q 40.484375 56 46.34375 49.84375 
Q 52.203125 43.703125 52.203125 31.203125 
z
" id="DejaVuSans-97"/>
       <path d="M 54.890625 33.015625 
L 54.890625 0 
L 45.90625 0 
L 45.90625 32.71875 
Q 45.90625 40.484375 42.875 44.328125 
Q 39.84375 48.1875 33.796875 48.1875 
Q 26.515625 48.1875 22.3125 43.546875 
Q 18.109375 38.921875 18.109375 30.90625 
L 18.109375 0 
L 9.078125 0 
L 9.078125 54.6875 
L 18.109375 54.6875 
L 18.109375 46.1875 
Q 21.34375 51.125 25.703125 53.5625 
Q 30.078125 56 35.796875 56 
Q 45.21875 56 50.046875 50.171875 
Q 54.890625 44.34375 54.890625 33.015625 
z
" id="DejaVuSans-110"/>
       <path id="DejaVuSans-32"/>
       <path d="M 30.609375 48.390625 
Q 23.390625 48.390625 19.1875 42.75 
Q 14.984375 37.109375 14.984375 27.296875 
Q 14.984375 17.484375 19.15625 11.84375 
Q 23.34375 6.203125 30.609375 6.203125 
Q 37.796875 6.203125 41.984375 11.859375 
Q 46.1875 17.53125 46.1875 27.296875 
Q 46.1875 37.015625 41.984375 42.703125 
Q 37.796875 48.390625 30.609375 48.390625 
z
M 30.609375 56 
Q 42.328125 56 49.015625 48.375 
Q 55.71875 40.765625 55.71875 27.296875 
Q 55.71875 13.875 49.015625 6.21875 
Q 42.328125 -1.421875 30.609375 -1.421875 
Q 18.84375 -1.421875 12.171875 6.21875 
Q 5.515625 13.875 5.515625 27.296875 
Q 5.515625 40.765625 12.171875 48.375 
Q 18.84375 56 30.609375 56 
z
" id="DejaVuSans-111"/>
       <path d="M 37.109375 75.984375 
L 37.109375 68.5 
L 28.515625 68.5 
Q 23.6875 68.5 21.796875 66.546875 
Q 19.921875 64.59375 19.921875 59.515625 
L 19.921875 54.6875 
L 34.71875 54.6875 
L 34.71875 47.703125 
L 19.921875 47.703125 
L 19.921875 0 
L 10.890625 0 
L 10.890625 47.703125 
L 2.296875 47.703125 
L 2.296875 54.6875 
L 10.890625 54.6875 
L 10.890625 58.5 
Q 10.890625 67.625 15.140625 71.796875 
Q 19.390625 75.984375 28.609375 75.984375 
z
" id="DejaVuSans-102"/>
       <path d="M 25.203125 64.796875 
L 20.21875 38.921875 
L 32.90625 38.921875 
Q 40.375 38.921875 44.984375 43.046875 
Q 49.609375 47.171875 49.609375 53.8125 
Q 49.609375 59.125 46.5 61.953125 
Q 43.40625 64.796875 37.59375 64.796875 
z
M 43.3125 35.015625 
Q 46.4375 34.28125 48.515625 31.390625 
Q 50.59375 28.515625 53.328125 19.921875 
L 59.515625 0 
L 49.125 0 
L 43.40625 18.703125 
Q 41.21875 25.921875 38.328125 28.359375 
Q 35.453125 30.8125 29.5 30.8125 
L 18.609375 30.8125 
L 12.59375 0 
L 2.6875 0 
L 16.890625 72.90625 
L 39.109375 72.90625 
Q 49.21875 72.90625 54.609375 68.328125 
Q 60.015625 63.765625 60.015625 55.171875 
Q 60.015625 47.5625 55.421875 41.984375 
Q 50.828125 36.421875 43.3125 35.015625 
z
" id="DejaVuSans-Oblique-82"/>
      </defs>
      <use transform="translate(0 0.765625)" xlink:href="#DejaVuSans-77"/>
      <use transform="translate(86.279297 0.765625)" xlink:href="#DejaVuSans-101"/>
      <use transform="translate(147.802734 0.765625)" xlink:href="#DejaVuSans-97"/>
      <use transform="translate(209.082031 0.765625)" xlink:href="#DejaVuSans-110"/>
      <use transform="translate(272.460938 0.765625)" xlink:href="#DejaVuSans-32"/>
      <use transform="translate(304.248047 0.765625)" xlink:href="#DejaVuSans-111"/>
      <use transform="translate(365.429688 0.765625)" xlink:href="#DejaVuSans-102"/>
      <use transform="translate(400.634766 0.765625)" xlink:href="#DejaVuSans-32"/>
      <use transform="translate(432.421875 0.765625)" xlink:href="#DejaVuSans-Oblique-82"/>
      <use transform="translate(508.921068 39.046875)scale(0.7)" xlink:href="#DejaVuSans-50"/>
     </g>
    </g>
   </g>
   <g id="matplotlib.axis_2">
    <g id="ytick_1">
     <g id="line2d_6">
      <defs>
       <path d="M 0 0 
L -6 0 
" id="mcaae7ae91f" style="stroke:#262626;stroke-width:1.25;"/>
      </defs>
      <g>
       <use style="fill:#262626;stroke:#262626;stroke-width:1.25;" x="35.289" xlink:href="#mcaae7ae91f" y="48.9717"/>
      </g>
     </g>
    </g>
    <g id="ytick_2">
     <g id="line2d_7">
      <g>
       <use style="fill:#262626;stroke:#262626;stroke-width:1.25;" x="35.289" xlink:href="#mcaae7ae91f" y="72.7071"/>
      </g>
     </g>
    </g>
    <g id="ytick_3">
     <g id="line2d_8">
      <g>
       <use style="fill:#262626;stroke:#262626;stroke-width:1.25;" x="35.289" xlink:href="#mcaae7ae91f" y="96.4425"/>
      </g>
     </g>
    </g>
    <g id="ytick_4">
     <g id="line2d_9">
      <g>
       <use style="fill:#262626;stroke:#262626;stroke-width:1.25;" x="35.289" xlink:href="#mcaae7ae91f" y="120.1779"/>
      </g>
     </g>
    </g>
    <g id="ytick_5">
     <g id="line2d_10">
      <g>
       <use style="fill:#262626;stroke:#262626;stroke-width:1.25;" x="35.289" xlink:href="#mcaae7ae91f" y="143.9133"/>
      </g>
     </g>
    </g>
    <g id="ytick_6">
     <g id="line2d_11">
      <g>
       <use style="fill:#262626;stroke:#262626;stroke-width:1.25;" x="35.289" xlink:href="#mcaae7ae91f" y="167.6487"/>
      </g>
     </g>
    </g>
    <g id="ytick_7">
     <g id="line2d_12">
      <g>
       <use style="fill:#262626;stroke:#262626;stroke-width:1.25;" x="35.289" xlink:href="#mcaae7ae91f" y="191.3841"/>
      </g>
     </g>
    </g>
    <g id="ytick_8">
     <g id="line2d_13">
      <g>
       <use style="fill:#262626;stroke:#262626;stroke-width:1.25;" x="35.289" xlink:href="#mcaae7ae91f" y="215.1195"/>
      </g>
     </g>
    </g>
    <g id="ytick_9">
     <g id="line2d_14">
      <g>
       <use style="fill:#262626;stroke:#262626;stroke-width:1.25;" x="35.289" xlink:href="#mcaae7ae91f" y="238.8549"/>
      </g>
     </g>
    </g>
    <g id="ytick_10">
     <g id="line2d_15">
      <g>
       <use style="fill:#262626;stroke:#262626;stroke-width:1.25;" x="35.289" xlink:href="#mcaae7ae91f" y="262.5903"/>
      </g>
     </g>
    </g>
    <g id="ytick_11">
     <g id="line2d_16">
      <g>
       <use style="fill:#262626;stroke:#262626;stroke-width:1.25;" x="35.289" xlink:href="#mcaae7ae91f" y="286.3257"/>
      </g>
     </g>
    </g>
    <g id="ytick_12">
     <g id="line2d_17">
      <g>
       <use style="fill:#262626;stroke:#262626;stroke-width:1.25;" x="35.289" xlink:href="#mcaae7ae91f" y="310.0611"/>
      </g>
     </g>
    </g>
    <g id="ytick_13">
     <g id="line2d_18">
      <g>
       <use style="fill:#262626;stroke:#262626;stroke-width:1.25;" x="35.289" xlink:href="#mcaae7ae91f" y="333.7965"/>
      </g>
     </g>
    </g>
    <g id="ytick_14">
     <g id="line2d_19">
      <g>
       <use style="fill:#262626;stroke:#262626;stroke-width:1.25;" x="35.289" xlink:href="#mcaae7ae91f" y="357.5319"/>
      </g>
     </g>
    </g>
    <g id="ytick_15">
     <g id="line2d_20">
      <g>
       <use style="fill:#262626;stroke:#262626;stroke-width:1.25;" x="35.289" xlink:href="#mcaae7ae91f" y="381.2673"/>
      </g>
     </g>
    </g>
    <g id="ytick_16">
     <g id="line2d_21">
      <g>
       <use style="fill:#262626;stroke:#262626;stroke-width:1.25;" x="35.289" xlink:href="#mcaae7ae91f" y="405.0027"/>
      </g>
     </g>
    </g>
    <g id="ytick_17">
     <g id="line2d_22">
      <g>
       <use style="fill:#262626;stroke:#262626;stroke-width:1.25;" x="35.289" xlink:href="#mcaae7ae91f" y="428.7381"/>
      </g>
     </g>
    </g>
    <g id="ytick_18">
     <g id="line2d_23">
      <g>
       <use style="fill:#262626;stroke:#262626;stroke-width:1.25;" x="35.289" xlink:href="#mcaae7ae91f" y="452.4735"/>
      </g>
     </g>
    </g>
    <g id="ytick_19">
     <g id="line2d_24">
      <g>
       <use style="fill:#262626;stroke:#262626;stroke-width:1.25;" x="35.289" xlink:href="#mcaae7ae91f" y="476.2089"/>
      </g>
     </g>
    </g>
    <g id="ytick_20">
     <g id="line2d_25">
      <g>
       <use style="fill:#262626;stroke:#262626;stroke-width:1.25;" x="35.289" xlink:href="#mcaae7ae91f" y="499.9443"/>
      </g>
     </g>
    </g>
   </g>
   <g id="patch_3">
    <path clip-path="url(#pe883e0b763)" d="M 35.289 39.47754 
L 159.569067 39.47754 
L 159.569067 58.46586 
L 35.289 58.46586 
z
" style="fill:#df8920;stroke:#ffffff;stroke-linejoin:miter;"/>
   </g>
   <g id="patch_4">
    <path clip-path="url(#pe883e0b763)" d="M 35.289 63.21294 
L 159.512583 63.21294 
L 159.512583 82.20126 
L 35.289 82.20126 
z
" style="fill:#df8920;stroke:#ffffff;stroke-linejoin:miter;"/>
   </g>
   <g id="patch_5">
    <path clip-path="url(#pe883e0b763)" d="M 35.289 86.94834 
L 151.710692 86.94834 
L 151.710692 105.93666 
L 35.289 105.93666 
z
" style="fill:#df8920;stroke:#ffffff;stroke-linejoin:miter;"/>
   </g>
   <g id="patch_6">
    <path clip-path="url(#pe883e0b763)" d="M 35.289 110.68374 
L 146.843398 110.68374 
L 146.843398 129.67206 
L 35.289 129.67206 
z
" style="fill:#df8920;stroke:#ffffff;stroke-linejoin:miter;"/>
   </g>
   <g id="patch_7">
    <path clip-path="url(#pe883e0b763)" d="M 35.289 134.41914 
L 146.152979 134.41914 
L 146.152979 153.40746 
L 35.289 153.40746 
z
" style="fill:#df8920;stroke:#ffffff;stroke-linejoin:miter;"/>
   </g>
   <g id="patch_8">
    <path clip-path="url(#pe883e0b763)" d="M 35.289 158.15454 
L 142.478981 158.15454 
L 142.478981 177.14286 
L 35.289 177.14286 
z
" style="fill:#df8920;stroke:#ffffff;stroke-linejoin:miter;"/>
   </g>
   <g id="patch_9">
    <path clip-path="url(#pe883e0b763)" d="M 35.289 181.88994 
L 125.32018 181.88994 
L 125.32018 200.87826 
L 35.289 200.87826 
z
" style="fill:#df8920;stroke:#ffffff;stroke-linejoin:miter;"/>
   </g>
   <g id="patch_10">
    <path clip-path="url(#pe883e0b763)" d="M 35.289 205.62534 
L 125.028594 205.62534 
L 125.028594 224.61366 
L 35.289 224.61366 
z
" style="fill:#df8920;stroke:#ffffff;stroke-linejoin:miter;"/>
   </g>
   <g id="patch_11">
    <path clip-path="url(#pe883e0b763)" d="M 35.289 229.36074 
L 119.992315 229.36074 
L 119.992315 248.34906 
L 35.289 248.34906 
z
" style="fill:#df8920;stroke:#ffffff;stroke-linejoin:miter;"/>
   </g>
   <g id="patch_12">
    <path clip-path="url(#pe883e0b763)" d="M 35.289 253.09614 
L 117.602655 253.09614 
L 117.602655 272.08446 
L 35.289 272.08446 
z
" style="fill:#df8920;stroke:#ffffff;stroke-linejoin:miter;"/>
   </g>
   <g id="patch_13">
    <path clip-path="url(#pe883e0b763)" d="M 35.289 276.83154 
L 117.100253 276.83154 
L 117.100253 295.81986 
L 35.289 295.81986 
z
" style="fill:#df8920;stroke:#ffffff;stroke-linejoin:miter;"/>
   </g>
   <g id="patch_14">
    <path clip-path="url(#pe883e0b763)" d="M 35.289 300.56694 
L 112.754531 300.56694 
L 112.754531 319.55526 
L 35.289 319.55526 
z
" style="fill:#df8920;stroke:#ffffff;stroke-linejoin:miter;"/>
   </g>
   <g id="patch_15">
    <path clip-path="url(#pe883e0b763)" d="M 35.289 324.30234 
L 108.915874 324.30234 
L 108.915874 343.29066 
L 35.289 343.29066 
z
" style="fill:#df8920;stroke:#ffffff;stroke-linejoin:miter;"/>
   </g>
   <g id="patch_16">
    <path clip-path="url(#pe883e0b763)" d="M 35.289 348.03774 
L 104.942993 348.03774 
L 104.942993 367.02606 
L 35.289 367.02606 
z
" style="fill:#df8920;stroke:#ffffff;stroke-linejoin:miter;"/>
   </g>
   <g id="patch_17">
    <path clip-path="url(#pe883e0b763)" d="M 35.289 371.77314 
L 104.303939 371.77314 
L 104.303939 390.76146 
L 35.289 390.76146 
z
" style="fill:#df8920;stroke:#ffffff;stroke-linejoin:miter;"/>
   </g>
   <g id="patch_18">
    <path clip-path="url(#pe883e0b763)" d="M 35.289 395.50854 
L 103.424086 395.50854 
L 103.424086 414.49686 
L 35.289 414.49686 
z
" style="fill:#df8920;stroke:#ffffff;stroke-linejoin:miter;"/>
   </g>
   <g id="patch_19">
    <path clip-path="url(#pe883e0b763)" d="M 35.289 419.24394 
L 101.652698 419.24394 
L 101.652698 438.23226 
L 35.289 438.23226 
z
" style="fill:#df8920;stroke:#ffffff;stroke-linejoin:miter;"/>
   </g>
   <g id="patch_20">
    <path clip-path="url(#pe883e0b763)" d="M 35.289 442.97934 
L 70.565952 442.97934 
L 70.565952 461.96766 
L 35.289 461.96766 
z
" style="fill:#df8920;stroke:#ffffff;stroke-linejoin:miter;"/>
   </g>
   <g id="patch_21">
    <path clip-path="url(#pe883e0b763)" d="M 35.289 466.71474 
L 49.820843 466.71474 
L 49.820843 485.70306 
L 35.289 485.70306 
z
" style="fill:#df8920;stroke:#ffffff;stroke-linejoin:miter;"/>
   </g>
   <g id="patch_22">
    <path clip-path="url(#pe883e0b763)" d="M 35.289 490.45014 
L 49.601022 490.45014 
L 49.601022 509.43846 
L 35.289 509.43846 
z
" style="fill:#df8920;stroke:#ffffff;stroke-linejoin:miter;"/>
   </g>
   <g id="line2d_26">
    <path clip-path="url(#pe883e0b763)" d="M 148.475262 48.9717 
L 170.662873 48.9717 
" style="fill:none;stroke:#4c4c4c;stroke-linecap:round;stroke-width:2.7;"/>
   </g>
   <g id="line2d_27">
    <path clip-path="url(#pe883e0b763)" d="M 148.475262 41.85108 
L 148.475262 56.09232 
" style="fill:none;stroke:#4c4c4c;stroke-linecap:round;stroke-width:2.7;"/>
   </g>
   <g id="line2d_28">
    <path clip-path="url(#pe883e0b763)" d="M 170.662873 41.85108 
L 170.662873 56.09232 
" style="fill:none;stroke:#4c4c4c;stroke-linecap:round;stroke-width:2.7;"/>
   </g>
   <g id="line2d_29">
    <path clip-path="url(#pe883e0b763)" d="M 154.440036 72.7071 
L 164.585131 72.7071 
" style="fill:none;stroke:#4c4c4c;stroke-linecap:round;stroke-width:2.7;"/>
   </g>
   <g id="line2d_30">
    <path clip-path="url(#pe883e0b763)" d="M 154.440036 65.58648 
L 154.440036 79.82772 
" style="fill:none;stroke:#4c4c4c;stroke-linecap:round;stroke-width:2.7;"/>
   </g>
   <g id="line2d_31">
    <path clip-path="url(#pe883e0b763)" d="M 164.585131 65.58648 
L 164.585131 79.82772 
" style="fill:none;stroke:#4c4c4c;stroke-linecap:round;stroke-width:2.7;"/>
   </g>
   <g id="line2d_32">
    <path clip-path="url(#pe883e0b763)" d="M 145.426879 96.4425 
L 157.994504 96.4425 
" style="fill:none;stroke:#4c4c4c;stroke-linecap:round;stroke-width:2.7;"/>
   </g>
   <g id="line2d_33">
    <path clip-path="url(#pe883e0b763)" d="M 145.426879 89.32188 
L 145.426879 103.56312 
" style="fill:none;stroke:#4c4c4c;stroke-linecap:round;stroke-width:2.7;"/>
   </g>
   <g id="line2d_34">
    <path clip-path="url(#pe883e0b763)" d="M 157.994504 89.32188 
L 157.994504 103.56312 
" style="fill:none;stroke:#4c4c4c;stroke-linecap:round;stroke-width:2.7;"/>
   </g>
   <g id="line2d_35">
    <path clip-path="url(#pe883e0b763)" d="M 142.769142 120.1779 
L 150.917655 120.1779 
" style="fill:none;stroke:#4c4c4c;stroke-linecap:round;stroke-width:2.7;"/>
   </g>
   <g id="line2d_36">
    <path clip-path="url(#pe883e0b763)" d="M 142.769142 113.05728 
L 142.769142 127.29852 
" style="fill:none;stroke:#4c4c4c;stroke-linecap:round;stroke-width:2.7;"/>
   </g>
   <g id="line2d_37">
    <path clip-path="url(#pe883e0b763)" d="M 150.917655 113.05728 
L 150.917655 127.29852 
" style="fill:none;stroke:#4c4c4c;stroke-linecap:round;stroke-width:2.7;"/>
   </g>
   <g id="line2d_38">
    <path clip-path="url(#pe883e0b763)" d="M 143.155914 143.9133 
L 149.150044 143.9133 
" style="fill:none;stroke:#4c4c4c;stroke-linecap:round;stroke-width:2.7;"/>
   </g>
   <g id="line2d_39">
    <path clip-path="url(#pe883e0b763)" d="M 143.155914 136.79268 
L 143.155914 151.03392 
" style="fill:none;stroke:#4c4c4c;stroke-linecap:round;stroke-width:2.7;"/>
   </g>
   <g id="line2d_40">
    <path clip-path="url(#pe883e0b763)" d="M 149.150044 136.79268 
L 149.150044 151.03392 
" style="fill:none;stroke:#4c4c4c;stroke-linecap:round;stroke-width:2.7;"/>
   </g>
   <g id="line2d_41">
    <path clip-path="url(#pe883e0b763)" d="M 139.075162 167.6487 
L 145.8828 167.6487 
" style="fill:none;stroke:#4c4c4c;stroke-linecap:round;stroke-width:2.7;"/>
   </g>
   <g id="line2d_42">
    <path clip-path="url(#pe883e0b763)" d="M 139.075162 160.52808 
L 139.075162 174.76932 
" style="fill:none;stroke:#4c4c4c;stroke-linecap:round;stroke-width:2.7;"/>
   </g>
   <g id="line2d_43">
    <path clip-path="url(#pe883e0b763)" d="M 145.8828 160.52808 
L 145.8828 174.76932 
" style="fill:none;stroke:#4c4c4c;stroke-linecap:round;stroke-width:2.7;"/>
   </g>
   <g id="line2d_44">
    <path clip-path="url(#pe883e0b763)" d="M 114.476836 191.3841 
L 136.163524 191.3841 
" style="fill:none;stroke:#4c4c4c;stroke-linecap:round;stroke-width:2.7;"/>
   </g>
   <g id="line2d_45">
    <path clip-path="url(#pe883e0b763)" d="M 114.476836 184.26348 
L 114.476836 198.50472 
" style="fill:none;stroke:#4c4c4c;stroke-linecap:round;stroke-width:2.7;"/>
   </g>
   <g id="line2d_46">
    <path clip-path="url(#pe883e0b763)" d="M 136.163524 184.26348 
L 136.163524 198.50472 
" style="fill:none;stroke:#4c4c4c;stroke-linecap:round;stroke-width:2.7;"/>
   </g>
   <g id="line2d_47">
    <path clip-path="url(#pe883e0b763)" d="M 121.267832 215.1195 
L 128.789356 215.1195 
" style="fill:none;stroke:#4c4c4c;stroke-linecap:round;stroke-width:2.7;"/>
   </g>
   <g id="line2d_48">
    <path clip-path="url(#pe883e0b763)" d="M 121.267832 207.99888 
L 121.267832 222.24012 
" style="fill:none;stroke:#4c4c4c;stroke-linecap:round;stroke-width:2.7;"/>
   </g>
   <g id="line2d_49">
    <path clip-path="url(#pe883e0b763)" d="M 128.789356 207.99888 
L 128.789356 222.24012 
" style="fill:none;stroke:#4c4c4c;stroke-linecap:round;stroke-width:2.7;"/>
   </g>
   <g id="line2d_50">
    <path clip-path="url(#pe883e0b763)" d="M 113.255059 238.8549 
L 126.72957 238.8549 
" style="fill:none;stroke:#4c4c4c;stroke-linecap:round;stroke-width:2.7;"/>
   </g>
   <g id="line2d_51">
    <path clip-path="url(#pe883e0b763)" d="M 113.255059 231.73428 
L 113.255059 245.97552 
" style="fill:none;stroke:#4c4c4c;stroke-linecap:round;stroke-width:2.7;"/>
   </g>
   <g id="line2d_52">
    <path clip-path="url(#pe883e0b763)" d="M 126.72957 231.73428 
L 126.72957 245.97552 
" style="fill:none;stroke:#4c4c4c;stroke-linecap:round;stroke-width:2.7;"/>
   </g>
   <g id="line2d_53">
    <path clip-path="url(#pe883e0b763)" d="M 106.674331 262.5903 
L 128.530978 262.5903 
" style="fill:none;stroke:#4c4c4c;stroke-linecap:round;stroke-width:2.7;"/>
   </g>
   <g id="line2d_54">
    <path clip-path="url(#pe883e0b763)" d="M 106.674331 255.46968 
L 106.674331 269.71092 
" style="fill:none;stroke:#4c4c4c;stroke-linecap:round;stroke-width:2.7;"/>
   </g>
   <g id="line2d_55">
    <path clip-path="url(#pe883e0b763)" d="M 128.530978 255.46968 
L 128.530978 269.71092 
" style="fill:none;stroke:#4c4c4c;stroke-linecap:round;stroke-width:2.7;"/>
   </g>
   <g id="line2d_56">
    <path clip-path="url(#pe883e0b763)" d="M 111.052454 286.3257 
L 123.148052 286.3257 
" style="fill:none;stroke:#4c4c4c;stroke-linecap:round;stroke-width:2.7;"/>
   </g>
   <g id="line2d_57">
    <path clip-path="url(#pe883e0b763)" d="M 111.052454 279.20508 
L 111.052454 293.44632 
" style="fill:none;stroke:#4c4c4c;stroke-linecap:round;stroke-width:2.7;"/>
   </g>
   <g id="line2d_58">
    <path clip-path="url(#pe883e0b763)" d="M 123.148052 279.20508 
L 123.148052 293.44632 
" style="fill:none;stroke:#4c4c4c;stroke-linecap:round;stroke-width:2.7;"/>
   </g>
   <g id="line2d_59">
    <path clip-path="url(#pe883e0b763)" d="M 110.238083 310.0611 
L 115.27098 310.0611 
" style="fill:none;stroke:#4c4c4c;stroke-linecap:round;stroke-width:2.7;"/>
   </g>
   <g id="line2d_60">
    <path clip-path="url(#pe883e0b763)" d="M 110.238083 302.94048 
L 110.238083 317.18172 
" style="fill:none;stroke:#4c4c4c;stroke-linecap:round;stroke-width:2.7;"/>
   </g>
   <g id="line2d_61">
    <path clip-path="url(#pe883e0b763)" d="M 115.27098 302.94048 
L 115.27098 317.18172 
" style="fill:none;stroke:#4c4c4c;stroke-linecap:round;stroke-width:2.7;"/>
   </g>
   <g id="line2d_62">
    <path clip-path="url(#pe883e0b763)" d="M 98.808068 333.7965 
L 119.023681 333.7965 
" style="fill:none;stroke:#4c4c4c;stroke-linecap:round;stroke-width:2.7;"/>
   </g>
   <g id="line2d_63">
    <path clip-path="url(#pe883e0b763)" d="M 98.808068 326.67588 
L 98.808068 340.91712 
" style="fill:none;stroke:#4c4c4c;stroke-linecap:round;stroke-width:2.7;"/>
   </g>
   <g id="line2d_64">
    <path clip-path="url(#pe883e0b763)" d="M 119.023681 326.67588 
L 119.023681 340.91712 
" style="fill:none;stroke:#4c4c4c;stroke-linecap:round;stroke-width:2.7;"/>
   </g>
   <g id="line2d_65">
    <path clip-path="url(#pe883e0b763)" d="M 100.799111 357.5319 
L 109.086874 357.5319 
" style="fill:none;stroke:#4c4c4c;stroke-linecap:round;stroke-width:2.7;"/>
   </g>
   <g id="line2d_66">
    <path clip-path="url(#pe883e0b763)" d="M 100.799111 350.41128 
L 100.799111 364.65252 
" style="fill:none;stroke:#4c4c4c;stroke-linecap:round;stroke-width:2.7;"/>
   </g>
   <g id="line2d_67">
    <path clip-path="url(#pe883e0b763)" d="M 109.086874 350.41128 
L 109.086874 364.65252 
" style="fill:none;stroke:#4c4c4c;stroke-linecap:round;stroke-width:2.7;"/>
   </g>
   <g id="line2d_68">
    <path clip-path="url(#pe883e0b763)" d="M 93.533456 381.2673 
L 115.074422 381.2673 
" style="fill:none;stroke:#4c4c4c;stroke-linecap:round;stroke-width:2.7;"/>
   </g>
   <g id="line2d_69">
    <path clip-path="url(#pe883e0b763)" d="M 93.533456 374.14668 
L 93.533456 388.38792 
" style="fill:none;stroke:#4c4c4c;stroke-linecap:round;stroke-width:2.7;"/>
   </g>
   <g id="line2d_70">
    <path clip-path="url(#pe883e0b763)" d="M 115.074422 374.14668 
L 115.074422 388.38792 
" style="fill:none;stroke:#4c4c4c;stroke-linecap:round;stroke-width:2.7;"/>
   </g>
   <g id="line2d_71">
    <path clip-path="url(#pe883e0b763)" d="M 99.132725 405.0027 
L 107.715447 405.0027 
" style="fill:none;stroke:#4c4c4c;stroke-linecap:round;stroke-width:2.7;"/>
   </g>
   <g id="line2d_72">
    <path clip-path="url(#pe883e0b763)" d="M 99.132725 397.88208 
L 99.132725 412.12332 
" style="fill:none;stroke:#4c4c4c;stroke-linecap:round;stroke-width:2.7;"/>
   </g>
   <g id="line2d_73">
    <path clip-path="url(#pe883e0b763)" d="M 107.715447 397.88208 
L 107.715447 412.12332 
" style="fill:none;stroke:#4c4c4c;stroke-linecap:round;stroke-width:2.7;"/>
   </g>
   <g id="line2d_74">
    <path clip-path="url(#pe883e0b763)" d="M 98.193996 428.7381 
L 105.1114 428.7381 
" style="fill:none;stroke:#4c4c4c;stroke-linecap:round;stroke-width:2.7;"/>
   </g>
   <g id="line2d_75">
    <path clip-path="url(#pe883e0b763)" d="M 98.193996 421.61748 
L 98.193996 435.85872 
" style="fill:none;stroke:#4c4c4c;stroke-linecap:round;stroke-width:2.7;"/>
   </g>
   <g id="line2d_76">
    <path clip-path="url(#pe883e0b763)" d="M 105.1114 421.61748 
L 105.1114 435.85872 
" style="fill:none;stroke:#4c4c4c;stroke-linecap:round;stroke-width:2.7;"/>
   </g>
   <g id="line2d_77">
    <path clip-path="url(#pe883e0b763)" d="M 62.155537 452.4735 
L 78.976366 452.4735 
" style="fill:none;stroke:#4c4c4c;stroke-linecap:round;stroke-width:2.7;"/>
   </g>
   <g id="line2d_78">
    <path clip-path="url(#pe883e0b763)" d="M 62.155537 445.35288 
L 62.155537 459.59412 
" style="fill:none;stroke:#4c4c4c;stroke-linecap:round;stroke-width:2.7;"/>
   </g>
   <g id="line2d_79">
    <path clip-path="url(#pe883e0b763)" d="M 78.976366 445.35288 
L 78.976366 459.59412 
" style="fill:none;stroke:#4c4c4c;stroke-linecap:round;stroke-width:2.7;"/>
   </g>
   <g id="line2d_80">
    <path clip-path="url(#pe883e0b763)" d="M 31.918259 476.2089 
L 67.723427 476.2089 
" style="fill:none;stroke:#4c4c4c;stroke-linecap:round;stroke-width:2.7;"/>
   </g>
   <g id="line2d_81">
    <path clip-path="url(#pe883e0b763)" d="M 31.918259 469.08828 
L 31.918259 483.32952 
" style="fill:none;stroke:#4c4c4c;stroke-linecap:round;stroke-width:2.7;"/>
   </g>
   <g id="line2d_82">
    <path clip-path="url(#pe883e0b763)" d="M 67.723427 469.08828 
L 67.723427 483.32952 
" style="fill:none;stroke:#4c4c4c;stroke-linecap:round;stroke-width:2.7;"/>
   </g>
   <g id="line2d_83">
    <path clip-path="url(#pe883e0b763)" d="M 43.145307 499.9443 
L 56.056738 499.9443 
" style="fill:none;stroke:#4c4c4c;stroke-linecap:round;stroke-width:2.7;"/>
   </g>
   <g id="line2d_84">
    <path clip-path="url(#pe883e0b763)" d="M 43.145307 492.82368 
L 43.145307 507.06492 
" style="fill:none;stroke:#4c4c4c;stroke-linecap:round;stroke-width:2.7;"/>
   </g>
   <g id="line2d_85">
    <path clip-path="url(#pe883e0b763)" d="M 56.056738 492.82368 
L 56.056738 507.06492 
" style="fill:none;stroke:#4c4c4c;stroke-linecap:round;stroke-width:2.7;"/>
   </g>
   <g id="patch_23">
    <path d="M 35.289 511.812 
L 35.289 37.104 
" style="fill:none;stroke:#262626;stroke-linecap:square;stroke-linejoin:miter;stroke-width:1.25;"/>
   </g>
   <g id="patch_24">
    <path d="M 35.289 511.812 
L 252.711 511.812 
" style="fill:none;stroke:#262626;stroke-linecap:square;stroke-linejoin:miter;stroke-width:1.25;"/>
   </g>
   <g id="text_7">
    <!-- Nuc-seq -->
    <g style="fill:#262626;" transform="translate(109.865813 31.104)scale(0.168 -0.168)">
     <defs>
      <path d="M 9.8125 72.90625 
L 23.09375 72.90625 
L 55.421875 11.921875 
L 55.421875 72.90625 
L 64.984375 72.90625 
L 64.984375 0 
L 51.703125 0 
L 19.390625 60.984375 
L 19.390625 0 
L 9.8125 0 
z
" id="DejaVuSans-78"/>
      <path d="M 8.5 21.578125 
L 8.5 54.6875 
L 17.484375 54.6875 
L 17.484375 21.921875 
Q 17.484375 14.15625 20.5 10.265625 
Q 23.53125 6.390625 29.59375 6.390625 
Q 36.859375 6.390625 41.078125 11.03125 
Q 45.3125 15.671875 45.3125 23.6875 
L 45.3125 54.6875 
L 54.296875 54.6875 
L 54.296875 0 
L 45.3125 0 
L 45.3125 8.40625 
Q 42.046875 3.421875 37.71875 1 
Q 33.40625 -1.421875 27.6875 -1.421875 
Q 18.265625 -1.421875 13.375 4.4375 
Q 8.5 10.296875 8.5 21.578125 
z
M 31.109375 56 
z
" id="DejaVuSans-117"/>
      <path d="M 48.78125 52.59375 
L 48.78125 44.1875 
Q 44.96875 46.296875 41.140625 47.34375 
Q 37.3125 48.390625 33.40625 48.390625 
Q 24.65625 48.390625 19.8125 42.84375 
Q 14.984375 37.3125 14.984375 27.296875 
Q 14.984375 17.28125 19.8125 11.734375 
Q 24.65625 6.203125 33.40625 6.203125 
Q 37.3125 6.203125 41.140625 7.25 
Q 44.96875 8.296875 48.78125 10.40625 
L 48.78125 2.09375 
Q 45.015625 0.34375 40.984375 -0.53125 
Q 36.96875 -1.421875 32.421875 -1.421875 
Q 20.0625 -1.421875 12.78125 6.34375 
Q 5.515625 14.109375 5.515625 27.296875 
Q 5.515625 40.671875 12.859375 48.328125 
Q 20.21875 56 33.015625 56 
Q 37.15625 56 41.109375 55.140625 
Q 45.0625 54.296875 48.78125 52.59375 
z
" id="DejaVuSans-99"/>
      <path d="M 4.890625 31.390625 
L 31.203125 31.390625 
L 31.203125 23.390625 
L 4.890625 23.390625 
z
" id="DejaVuSans-45"/>
      <path d="M 44.28125 53.078125 
L 44.28125 44.578125 
Q 40.484375 46.53125 36.375 47.5 
Q 32.28125 48.484375 27.875 48.484375 
Q 21.1875 48.484375 17.84375 46.4375 
Q 14.5 44.390625 14.5 40.28125 
Q 14.5 37.15625 16.890625 35.375 
Q 19.28125 33.59375 26.515625 31.984375 
L 29.59375 31.296875 
Q 39.15625 29.25 43.1875 25.515625 
Q 47.21875 21.78125 47.21875 15.09375 
Q 47.21875 7.46875 41.1875 3.015625 
Q 35.15625 -1.421875 24.609375 -1.421875 
Q 20.21875 -1.421875 15.453125 -0.5625 
Q 10.6875 0.296875 5.421875 2 
L 5.421875 11.28125 
Q 10.40625 8.6875 15.234375 7.390625 
Q 20.0625 6.109375 24.8125 6.109375 
Q 31.15625 6.109375 34.5625 8.28125 
Q 37.984375 10.453125 37.984375 14.40625 
Q 37.984375 18.0625 35.515625 20.015625 
Q 33.0625 21.96875 24.703125 23.78125 
L 21.578125 24.515625 
Q 13.234375 26.265625 9.515625 29.90625 
Q 5.8125 33.546875 5.8125 39.890625 
Q 5.8125 47.609375 11.28125 51.796875 
Q 16.75 56 26.8125 56 
Q 31.78125 56 36.171875 55.265625 
Q 40.578125 54.546875 44.28125 53.078125 
z
" id="DejaVuSans-115"/>
      <path d="M 14.796875 27.296875 
Q 14.796875 17.390625 18.875 11.75 
Q 22.953125 6.109375 30.078125 6.109375 
Q 37.203125 6.109375 41.296875 11.75 
Q 45.40625 17.390625 45.40625 27.296875 
Q 45.40625 37.203125 41.296875 42.84375 
Q 37.203125 48.484375 30.078125 48.484375 
Q 22.953125 48.484375 18.875 42.84375 
Q 14.796875 37.203125 14.796875 27.296875 
z
M 45.40625 8.203125 
Q 42.578125 3.328125 38.25 0.953125 
Q 33.9375 -1.421875 27.875 -1.421875 
Q 17.96875 -1.421875 11.734375 6.484375 
Q 5.515625 14.40625 5.515625 27.296875 
Q 5.515625 40.1875 11.734375 48.09375 
Q 17.96875 56 27.875 56 
Q 33.9375 56 38.25 53.625 
Q 42.578125 51.265625 45.40625 46.390625 
L 45.40625 54.6875 
L 54.390625 54.6875 
L 54.390625 -20.796875 
L 45.40625 -20.796875 
z
" id="DejaVuSans-113"/>
     </defs>
     <use xlink:href="#DejaVuSans-78"/>
     <use x="74.804688" xlink:href="#DejaVuSans-117"/>
     <use x="138.183594" xlink:href="#DejaVuSans-99"/>
     <use x="193.164062" xlink:href="#DejaVuSans-45"/>
     <use x="229.248047" xlink:href="#DejaVuSans-115"/>
     <use x="281.347656" xlink:href="#DejaVuSans-101"/>
     <use x="342.871094" xlink:href="#DejaVuSans-113"/>
    </g>
   </g>
  </g>
 </g>
 <defs>
  <clipPath id="pe883e0b763">
   <rect height="474.708" width="217.422" x="35.289" y="37.104"/>
  </clipPath>
 </defs>
</svg>
