<?xml version="1.0" encoding="utf-8" standalone="no"?>
<!DOCTYPE svg PUBLIC "-//W3C//DTD SVG 1.1//EN"
  "http://www.w3.org/Graphics/SVG/1.1/DTD/svg11.dtd">
<!-- Created with matplotlib (https://matplotlib.org/) -->
<svg height="324pt" version="1.1" viewBox="0 0 1008 324" width="1008pt" xmlns="http://www.w3.org/2000/svg" xmlns:xlink="http://www.w3.org/1999/xlink">
 <metadata>
  <rdf:RDF xmlns:cc="http://creativecommons.org/ns#" xmlns:dc="http://purl.org/dc/elements/1.1/" xmlns:rdf="http://www.w3.org/1999/02/22-rdf-syntax-ns#">
   <cc:Work>
    <dc:type rdf:resource="http://purl.org/dc/dcmitype/StillImage"/>
    <dc:date>2023-05-13T14:12:43.136009</dc:date>
    <dc:format>image/svg+xml</dc:format>
    <dc:creator>
     <cc:Agent>
      <dc:title>Matplotlib v3.3.2, https://matplotlib.org/</dc:title>
     </cc:Agent>
    </dc:creator>
   </cc:Work>
  </rdf:RDF>
 </metadata>
 <defs>
  <style type="text/css">*{stroke-linecap:butt;stroke-linejoin:round;}</style>
 </defs>
 <g id="figure_1">
  <g id="patch_1">
   <path d="M 0 324 
L 1008 324 
L 1008 0 
L 0 0 
z
" style="fill:#ffffff;"/>
  </g>
  <g id="axes_1">
   <g id="patch_2">
    <path d="M 67.572 273.748 
L 824.068 273.748 
L 824.068 43.872 
L 67.572 43.872 
z
" style="fill:#ffffff;"/>
   </g>
   <g id="matplotlib.axis_1">
    <g id="xtick_1">
     <g id="text_1">
      <!-- HLCA(LOO) -->
      <g style="fill:#262626;" transform="translate(141.601464 297.457078)scale(0.187 -0.187)">
       <defs>
        <path d="M 9.8125 72.90625 
L 19.671875 72.90625 
L 19.671875 43.015625 
L 55.515625 43.015625 
L 55.515625 72.90625 
L 65.375 72.90625 
L 65.375 0 
L 55.515625 0 
L 55.515625 34.71875 
L 19.671875 34.71875 
L 19.671875 0 
L 9.8125 0 
z
" id="DejaVuSans-72"/>
        <path d="M 9.8125 72.90625 
L 19.671875 72.90625 
L 19.671875 8.296875 
L 55.171875 8.296875 
L 55.171875 0 
L 9.8125 0 
z
" id="DejaVuSans-76"/>
        <path d="M 64.40625 67.28125 
L 64.40625 56.890625 
Q 59.421875 61.53125 53.78125 63.8125 
Q 48.140625 66.109375 41.796875 66.109375 
Q 29.296875 66.109375 22.65625 58.46875 
Q 16.015625 50.828125 16.015625 36.375 
Q 16.015625 21.96875 22.65625 14.328125 
Q 29.296875 6.6875 41.796875 6.6875 
Q 48.140625 6.6875 53.78125 8.984375 
Q 59.421875 11.28125 64.40625 15.921875 
L 64.40625 5.609375 
Q 59.234375 2.09375 53.4375 0.328125 
Q 47.65625 -1.421875 41.21875 -1.421875 
Q 24.65625 -1.421875 15.125 8.703125 
Q 5.609375 18.84375 5.609375 36.375 
Q 5.609375 53.953125 15.125 64.078125 
Q 24.65625 74.21875 41.21875 74.21875 
Q 47.75 74.21875 53.53125 72.484375 
Q 59.328125 70.75 64.40625 67.28125 
z
" id="DejaVuSans-67"/>
        <path d="M 34.1875 63.1875 
L 20.796875 26.90625 
L 47.609375 26.90625 
z
M 28.609375 72.90625 
L 39.796875 72.90625 
L 67.578125 0 
L 57.328125 0 
L 50.6875 18.703125 
L 17.828125 18.703125 
L 11.1875 0 
L 0.78125 0 
z
" id="DejaVuSans-65"/>
        <path d="M 31 75.875 
Q 24.46875 64.65625 21.28125 53.65625 
Q 18.109375 42.671875 18.109375 31.390625 
Q 18.109375 20.125 21.3125 9.0625 
Q 24.515625 -2 31 -13.1875 
L 23.1875 -13.1875 
Q 15.875 -1.703125 12.234375 9.375 
Q 8.59375 20.453125 8.59375 31.390625 
Q 8.59375 42.28125 12.203125 53.3125 
Q 15.828125 64.359375 23.1875 75.875 
z
" id="DejaVuSans-40"/>
        <path d="M 39.40625 66.21875 
Q 28.65625 66.21875 22.328125 58.203125 
Q 16.015625 50.203125 16.015625 36.375 
Q 16.015625 22.609375 22.328125 14.59375 
Q 28.65625 6.59375 39.40625 6.59375 
Q 50.140625 6.59375 56.421875 14.59375 
Q 62.703125 22.609375 62.703125 36.375 
Q 62.703125 50.203125 56.421875 58.203125 
Q 50.140625 66.21875 39.40625 66.21875 
z
M 39.40625 74.21875 
Q 54.734375 74.21875 63.90625 63.9375 
Q 73.09375 53.65625 73.09375 36.375 
Q 73.09375 19.140625 63.90625 8.859375 
Q 54.734375 -1.421875 39.40625 -1.421875 
Q 24.03125 -1.421875 14.8125 8.828125 
Q 5.609375 19.09375 5.609375 36.375 
Q 5.609375 53.65625 14.8125 63.9375 
Q 24.03125 74.21875 39.40625 74.21875 
z
" id="DejaVuSans-79"/>
        <path d="M 8.015625 75.875 
L 15.828125 75.875 
Q 23.140625 64.359375 26.78125 53.3125 
Q 30.421875 42.28125 30.421875 31.390625 
Q 30.421875 20.453125 26.78125 9.375 
Q 23.140625 -1.703125 15.828125 -13.1875 
L 8.015625 -13.1875 
Q 14.5 -2 17.703125 9.0625 
Q 20.90625 20.125 20.90625 31.390625 
Q 20.90625 42.671875 17.703125 53.65625 
Q 14.5 64.65625 8.015625 75.875 
z
" id="DejaVuSans-41"/>
       </defs>
       <use xlink:href="#DejaVuSans-72"/>
       <use x="75.195312" xlink:href="#DejaVuSans-76"/>
       <use x="130.908203" xlink:href="#DejaVuSans-67"/>
       <use x="200.732422" xlink:href="#DejaVuSans-65"/>
       <use x="269.140625" xlink:href="#DejaVuSans-40"/>
       <use x="308.154297" xlink:href="#DejaVuSans-76"/>
       <use x="360.242188" xlink:href="#DejaVuSans-79"/>
       <use x="438.953125" xlink:href="#DejaVuSans-79"/>
       <use x="517.664062" xlink:href="#DejaVuSans-41"/>
      </g>
     </g>
    </g>
    <g id="xtick_2">
     <g id="text_2">
      <!-- CD -->
      <g style="fill:#262626;" transform="translate(432.09157 297.457078)scale(0.187 -0.187)">
       <defs>
        <path d="M 19.671875 64.796875 
L 19.671875 8.109375 
L 31.59375 8.109375 
Q 46.6875 8.109375 53.6875 14.9375 
Q 60.6875 21.78125 60.6875 36.53125 
Q 60.6875 51.171875 53.6875 57.984375 
Q 46.6875 64.796875 31.59375 64.796875 
z
M 9.8125 72.90625 
L 30.078125 72.90625 
Q 51.265625 72.90625 61.171875 64.09375 
Q 71.09375 55.28125 71.09375 36.53125 
Q 71.09375 17.671875 61.125 8.828125 
Q 51.171875 0 30.078125 0 
L 9.8125 0 
z
" id="DejaVuSans-68"/>
       </defs>
       <use xlink:href="#DejaVuSans-67"/>
       <use x="69.824219" xlink:href="#DejaVuSans-68"/>
      </g>
     </g>
    </g>
    <g id="xtick_3">
     <g id="text_3">
      <!-- Nuc-seq(LOO) -->
      <g style="fill:#262626;" transform="translate(633.103638 297.457078)scale(0.187 -0.187)">
       <defs>
        <path d="M 9.8125 72.90625 
L 23.09375 72.90625 
L 55.421875 11.921875 
L 55.421875 72.90625 
L 64.984375 72.90625 
L 64.984375 0 
L 51.703125 0 
L 19.390625 60.984375 
L 19.390625 0 
L 9.8125 0 
z
" id="DejaVuSans-78"/>
        <path d="M 8.5 21.578125 
L 8.5 54.6875 
L 17.484375 54.6875 
L 17.484375 21.921875 
Q 17.484375 14.15625 20.5 10.265625 
Q 23.53125 6.390625 29.59375 6.390625 
Q 36.859375 6.390625 41.078125 11.03125 
Q 45.3125 15.671875 45.3125 23.6875 
L 45.3125 54.6875 
L 54.296875 54.6875 
L 54.296875 0 
L 45.3125 0 
L 45.3125 8.40625 
Q 42.046875 3.421875 37.71875 1 
Q 33.40625 -1.421875 27.6875 -1.421875 
Q 18.265625 -1.421875 13.375 4.4375 
Q 8.5 10.296875 8.5 21.578125 
z
M 31.109375 56 
z
" id="DejaVuSans-117"/>
        <path d="M 48.78125 52.59375 
L 48.78125 44.1875 
Q 44.96875 46.296875 41.140625 47.34375 
Q 37.3125 48.390625 33.40625 48.390625 
Q 24.65625 48.390625 19.8125 42.84375 
Q 14.984375 37.3125 14.984375 27.296875 
Q 14.984375 17.28125 19.8125 11.734375 
Q 24.65625 6.203125 33.40625 6.203125 
Q 37.3125 6.203125 41.140625 7.25 
Q 44.96875 8.296875 48.78125 10.40625 
L 48.78125 2.09375 
Q 45.015625 0.34375 40.984375 -0.53125 
Q 36.96875 -1.421875 32.421875 -1.421875 
Q 20.0625 -1.421875 12.78125 6.34375 
Q 5.515625 14.109375 5.515625 27.296875 
Q 5.515625 40.671875 12.859375 48.328125 
Q 20.21875 56 33.015625 56 
Q 37.15625 56 41.109375 55.140625 
Q 45.0625 54.296875 48.78125 52.59375 
z
" id="DejaVuSans-99"/>
        <path d="M 4.890625 31.390625 
L 31.203125 31.390625 
L 31.203125 23.390625 
L 4.890625 23.390625 
z
" id="DejaVuSans-45"/>
        <path d="M 44.28125 53.078125 
L 44.28125 44.578125 
Q 40.484375 46.53125 36.375 47.5 
Q 32.28125 48.484375 27.875 48.484375 
Q 21.1875 48.484375 17.84375 46.4375 
Q 14.5 44.390625 14.5 40.28125 
Q 14.5 37.15625 16.890625 35.375 
Q 19.28125 33.59375 26.515625 31.984375 
L 29.59375 31.296875 
Q 39.15625 29.25 43.1875 25.515625 
Q 47.21875 21.78125 47.21875 15.09375 
Q 47.21875 7.46875 41.1875 3.015625 
Q 35.15625 -1.421875 24.609375 -1.421875 
Q 20.21875 -1.421875 15.453125 -0.5625 
Q 10.6875 0.296875 5.421875 2 
L 5.421875 11.28125 
Q 10.40625 8.6875 15.234375 7.390625 
Q 20.0625 6.109375 24.8125 6.109375 
Q 31.15625 6.109375 34.5625 8.28125 
Q 37.984375 10.453125 37.984375 14.40625 
Q 37.984375 18.0625 35.515625 20.015625 
Q 33.0625 21.96875 24.703125 23.78125 
L 21.578125 24.515625 
Q 13.234375 26.265625 9.515625 29.90625 
Q 5.8125 33.546875 5.8125 39.890625 
Q 5.8125 47.609375 11.28125 51.796875 
Q 16.75 56 26.8125 56 
Q 31.78125 56 36.171875 55.265625 
Q 40.578125 54.546875 44.28125 53.078125 
z
" id="DejaVuSans-115"/>
        <path d="M 56.203125 29.59375 
L 56.203125 25.203125 
L 14.890625 25.203125 
Q 15.484375 15.921875 20.484375 11.0625 
Q 25.484375 6.203125 34.421875 6.203125 
Q 39.59375 6.203125 44.453125 7.46875 
Q 49.3125 8.734375 54.109375 11.28125 
L 54.109375 2.78125 
Q 49.265625 0.734375 44.1875 -0.34375 
Q 39.109375 -1.421875 33.890625 -1.421875 
Q 20.796875 -1.421875 13.15625 6.1875 
Q 5.515625 13.8125 5.515625 26.8125 
Q 5.515625 40.234375 12.765625 48.109375 
Q 20.015625 56 32.328125 56 
Q 43.359375 56 49.78125 48.890625 
Q 56.203125 41.796875 56.203125 29.59375 
z
M 47.21875 32.234375 
Q 47.125 39.59375 43.09375 43.984375 
Q 39.0625 48.390625 32.421875 48.390625 
Q 24.90625 48.390625 20.390625 44.140625 
Q 15.875 39.890625 15.1875 32.171875 
z
" id="DejaVuSans-101"/>
        <path d="M 14.796875 27.296875 
Q 14.796875 17.390625 18.875 11.75 
Q 22.953125 6.109375 30.078125 6.109375 
Q 37.203125 6.109375 41.296875 11.75 
Q 45.40625 17.390625 45.40625 27.296875 
Q 45.40625 37.203125 41.296875 42.84375 
Q 37.203125 48.484375 30.078125 48.484375 
Q 22.953125 48.484375 18.875 42.84375 
Q 14.796875 37.203125 14.796875 27.296875 
z
M 45.40625 8.203125 
Q 42.578125 3.328125 38.25 0.953125 
Q 33.9375 -1.421875 27.875 -1.421875 
Q 17.96875 -1.421875 11.734375 6.484375 
Q 5.515625 14.40625 5.515625 27.296875 
Q 5.515625 40.1875 11.734375 48.09375 
Q 17.96875 56 27.875 56 
Q 33.9375 56 38.25 53.625 
Q 42.578125 51.265625 45.40625 46.390625 
L 45.40625 54.6875 
L 54.390625 54.6875 
L 54.390625 -20.796875 
L 45.40625 -20.796875 
z
" id="DejaVuSans-113"/>
       </defs>
       <use xlink:href="#DejaVuSans-78"/>
       <use x="74.804688" xlink:href="#DejaVuSans-117"/>
       <use x="138.183594" xlink:href="#DejaVuSans-99"/>
       <use x="193.164062" xlink:href="#DejaVuSans-45"/>
       <use x="229.248047" xlink:href="#DejaVuSans-115"/>
       <use x="281.347656" xlink:href="#DejaVuSans-101"/>
       <use x="342.871094" xlink:href="#DejaVuSans-113"/>
       <use x="406.347656" xlink:href="#DejaVuSans-40"/>
       <use x="445.361328" xlink:href="#DejaVuSans-76"/>
       <use x="497.449219" xlink:href="#DejaVuSans-79"/>
       <use x="576.160156" xlink:href="#DejaVuSans-79"/>
       <use x="654.871094" xlink:href="#DejaVuSans-41"/>
      </g>
     </g>
    </g>
   </g>
   <g id="matplotlib.axis_2">
    <g id="ytick_1">
     <g id="text_4">
      <!-- 0 -->
      <g style="fill:#262626;" transform="translate(46.174125 50.976539)scale(0.187 -0.187)">
       <defs>
        <path d="M 31.78125 66.40625 
Q 24.171875 66.40625 20.328125 58.90625 
Q 16.5 51.421875 16.5 36.375 
Q 16.5 21.390625 20.328125 13.890625 
Q 24.171875 6.390625 31.78125 6.390625 
Q 39.453125 6.390625 43.28125 13.890625 
Q 47.125 21.390625 47.125 36.375 
Q 47.125 51.421875 43.28125 58.90625 
Q 39.453125 66.40625 31.78125 66.40625 
z
M 31.78125 74.21875 
Q 44.046875 74.21875 50.515625 64.515625 
Q 56.984375 54.828125 56.984375 36.375 
Q 56.984375 17.96875 50.515625 8.265625 
Q 44.046875 -1.421875 31.78125 -1.421875 
Q 19.53125 -1.421875 13.0625 8.265625 
Q 6.59375 17.96875 6.59375 36.375 
Q 6.59375 54.828125 13.0625 64.515625 
Q 19.53125 74.21875 31.78125 74.21875 
z
" id="DejaVuSans-48"/>
       </defs>
       <use xlink:href="#DejaVuSans-48"/>
      </g>
     </g>
    </g>
    <g id="ytick_2">
     <g id="text_5">
      <!-- 2 -->
      <g style="fill:#262626;" transform="translate(46.174125 116.655396)scale(0.187 -0.187)">
       <defs>
        <path d="M 19.1875 8.296875 
L 53.609375 8.296875 
L 53.609375 0 
L 7.328125 0 
L 7.328125 8.296875 
Q 12.9375 14.109375 22.625 23.890625 
Q 32.328125 33.6875 34.8125 36.53125 
Q 39.546875 41.84375 41.421875 45.53125 
Q 43.3125 49.21875 43.3125 52.78125 
Q 43.3125 58.59375 39.234375 62.25 
Q 35.15625 65.921875 28.609375 65.921875 
Q 23.96875 65.921875 18.8125 64.3125 
Q 13.671875 62.703125 7.8125 59.421875 
L 7.8125 69.390625 
Q 13.765625 71.78125 18.9375 73 
Q 24.125 74.21875 28.421875 74.21875 
Q 39.75 74.21875 46.484375 68.546875 
Q 53.21875 62.890625 53.21875 53.421875 
Q 53.21875 48.921875 51.53125 44.890625 
Q 49.859375 40.875 45.40625 35.40625 
Q 44.1875 33.984375 37.640625 27.21875 
Q 31.109375 20.453125 19.1875 8.296875 
z
" id="DejaVuSans-50"/>
       </defs>
       <use xlink:href="#DejaVuSans-50"/>
      </g>
     </g>
    </g>
    <g id="ytick_3">
     <g id="text_6">
      <!-- 4 -->
      <g style="fill:#262626;" transform="translate(46.174125 182.334253)scale(0.187 -0.187)">
       <defs>
        <path d="M 37.796875 64.3125 
L 12.890625 25.390625 
L 37.796875 25.390625 
z
M 35.203125 72.90625 
L 47.609375 72.90625 
L 47.609375 25.390625 
L 58.015625 25.390625 
L 58.015625 17.1875 
L 47.609375 17.1875 
L 47.609375 0 
L 37.796875 0 
L 37.796875 17.1875 
L 4.890625 17.1875 
L 4.890625 26.703125 
z
" id="DejaVuSans-52"/>
       </defs>
       <use xlink:href="#DejaVuSans-52"/>
      </g>
     </g>
    </g>
    <g id="ytick_4">
     <g id="text_7">
      <!-- 6 -->
      <g style="fill:#262626;" transform="translate(46.174125 248.01311)scale(0.187 -0.187)">
       <defs>
        <path d="M 33.015625 40.375 
Q 26.375 40.375 22.484375 35.828125 
Q 18.609375 31.296875 18.609375 23.390625 
Q 18.609375 15.53125 22.484375 10.953125 
Q 26.375 6.390625 33.015625 6.390625 
Q 39.65625 6.390625 43.53125 10.953125 
Q 47.40625 15.53125 47.40625 23.390625 
Q 47.40625 31.296875 43.53125 35.828125 
Q 39.65625 40.375 33.015625 40.375 
z
M 52.59375 71.296875 
L 52.59375 62.3125 
Q 48.875 64.0625 45.09375 64.984375 
Q 41.3125 65.921875 37.59375 65.921875 
Q 27.828125 65.921875 22.671875 59.328125 
Q 17.53125 52.734375 16.796875 39.40625 
Q 19.671875 43.65625 24.015625 45.921875 
Q 28.375 48.1875 33.59375 48.1875 
Q 44.578125 48.1875 50.953125 41.515625 
Q 57.328125 34.859375 57.328125 23.390625 
Q 57.328125 12.15625 50.6875 5.359375 
Q 44.046875 -1.421875 33.015625 -1.421875 
Q 20.359375 -1.421875 13.671875 8.265625 
Q 6.984375 17.96875 6.984375 36.375 
Q 6.984375 53.65625 15.1875 63.9375 
Q 23.390625 74.21875 37.203125 74.21875 
Q 40.921875 74.21875 44.703125 73.484375 
Q 48.484375 72.75 52.59375 71.296875 
z
" id="DejaVuSans-54"/>
       </defs>
       <use xlink:href="#DejaVuSans-54"/>
      </g>
     </g>
    </g>
    <g id="text_8">
     <!-- Ranking of gene types -->
     <g style="fill:#262626;" transform="translate(37.931563 273.212562)rotate(-90)scale(0.204 -0.204)">
      <defs>
       <path d="M 44.390625 34.1875 
Q 47.5625 33.109375 50.5625 29.59375 
Q 53.5625 26.078125 56.59375 19.921875 
L 66.609375 0 
L 56 0 
L 46.6875 18.703125 
Q 43.0625 26.03125 39.671875 28.421875 
Q 36.28125 30.8125 30.421875 30.8125 
L 19.671875 30.8125 
L 19.671875 0 
L 9.8125 0 
L 9.8125 72.90625 
L 32.078125 72.90625 
Q 44.578125 72.90625 50.734375 67.671875 
Q 56.890625 62.453125 56.890625 51.90625 
Q 56.890625 45.015625 53.6875 40.46875 
Q 50.484375 35.9375 44.390625 34.1875 
z
M 19.671875 64.796875 
L 19.671875 38.921875 
L 32.078125 38.921875 
Q 39.203125 38.921875 42.84375 42.21875 
Q 46.484375 45.515625 46.484375 51.90625 
Q 46.484375 58.296875 42.84375 61.546875 
Q 39.203125 64.796875 32.078125 64.796875 
z
" id="DejaVuSans-82"/>
       <path d="M 34.28125 27.484375 
Q 23.390625 27.484375 19.1875 25 
Q 14.984375 22.515625 14.984375 16.5 
Q 14.984375 11.71875 18.140625 8.90625 
Q 21.296875 6.109375 26.703125 6.109375 
Q 34.1875 6.109375 38.703125 11.40625 
Q 43.21875 16.703125 43.21875 25.484375 
L 43.21875 27.484375 
z
M 52.203125 31.203125 
L 52.203125 0 
L 43.21875 0 
L 43.21875 8.296875 
Q 40.140625 3.328125 35.546875 0.953125 
Q 30.953125 -1.421875 24.3125 -1.421875 
Q 15.921875 -1.421875 10.953125 3.296875 
Q 6 8.015625 6 15.921875 
Q 6 25.140625 12.171875 29.828125 
Q 18.359375 34.515625 30.609375 34.515625 
L 43.21875 34.515625 
L 43.21875 35.40625 
Q 43.21875 41.609375 39.140625 45 
Q 35.0625 48.390625 27.6875 48.390625 
Q 23 48.390625 18.546875 47.265625 
Q 14.109375 46.140625 10.015625 43.890625 
L 10.015625 52.203125 
Q 14.9375 54.109375 19.578125 55.046875 
Q 24.21875 56 28.609375 56 
Q 40.484375 56 46.34375 49.84375 
Q 52.203125 43.703125 52.203125 31.203125 
z
" id="DejaVuSans-97"/>
       <path d="M 54.890625 33.015625 
L 54.890625 0 
L 45.90625 0 
L 45.90625 32.71875 
Q 45.90625 40.484375 42.875 44.328125 
Q 39.84375 48.1875 33.796875 48.1875 
Q 26.515625 48.1875 22.3125 43.546875 
Q 18.109375 38.921875 18.109375 30.90625 
L 18.109375 0 
L 9.078125 0 
L 9.078125 54.6875 
L 18.109375 54.6875 
L 18.109375 46.1875 
Q 21.34375 51.125 25.703125 53.5625 
Q 30.078125 56 35.796875 56 
Q 45.21875 56 50.046875 50.171875 
Q 54.890625 44.34375 54.890625 33.015625 
z
" id="DejaVuSans-110"/>
       <path d="M 9.078125 75.984375 
L 18.109375 75.984375 
L 18.109375 31.109375 
L 44.921875 54.6875 
L 56.390625 54.6875 
L 27.390625 29.109375 
L 57.625 0 
L 45.90625 0 
L 18.109375 26.703125 
L 18.109375 0 
L 9.078125 0 
z
" id="DejaVuSans-107"/>
       <path d="M 9.421875 54.6875 
L 18.40625 54.6875 
L 18.40625 0 
L 9.421875 0 
z
M 9.421875 75.984375 
L 18.40625 75.984375 
L 18.40625 64.59375 
L 9.421875 64.59375 
z
" id="DejaVuSans-105"/>
       <path d="M 45.40625 27.984375 
Q 45.40625 37.75 41.375 43.109375 
Q 37.359375 48.484375 30.078125 48.484375 
Q 22.859375 48.484375 18.828125 43.109375 
Q 14.796875 37.75 14.796875 27.984375 
Q 14.796875 18.265625 18.828125 12.890625 
Q 22.859375 7.515625 30.078125 7.515625 
Q 37.359375 7.515625 41.375 12.890625 
Q 45.40625 18.265625 45.40625 27.984375 
z
M 54.390625 6.78125 
Q 54.390625 -7.171875 48.1875 -13.984375 
Q 42 -20.796875 29.203125 -20.796875 
Q 24.46875 -20.796875 20.265625 -20.09375 
Q 16.0625 -19.390625 12.109375 -17.921875 
L 12.109375 -9.1875 
Q 16.0625 -11.328125 19.921875 -12.34375 
Q 23.78125 -13.375 27.78125 -13.375 
Q 36.625 -13.375 41.015625 -8.765625 
Q 45.40625 -4.15625 45.40625 5.171875 
L 45.40625 9.625 
Q 42.625 4.78125 38.28125 2.390625 
Q 33.9375 0 27.875 0 
Q 17.828125 0 11.671875 7.65625 
Q 5.515625 15.328125 5.515625 27.984375 
Q 5.515625 40.671875 11.671875 48.328125 
Q 17.828125 56 27.875 56 
Q 33.9375 56 38.28125 53.609375 
Q 42.625 51.21875 45.40625 46.390625 
L 45.40625 54.6875 
L 54.390625 54.6875 
z
" id="DejaVuSans-103"/>
       <path id="DejaVuSans-32"/>
       <path d="M 30.609375 48.390625 
Q 23.390625 48.390625 19.1875 42.75 
Q 14.984375 37.109375 14.984375 27.296875 
Q 14.984375 17.484375 19.15625 11.84375 
Q 23.34375 6.203125 30.609375 6.203125 
Q 37.796875 6.203125 41.984375 11.859375 
Q 46.1875 17.53125 46.1875 27.296875 
Q 46.1875 37.015625 41.984375 42.703125 
Q 37.796875 48.390625 30.609375 48.390625 
z
M 30.609375 56 
Q 42.328125 56 49.015625 48.375 
Q 55.71875 40.765625 55.71875 27.296875 
Q 55.71875 13.875 49.015625 6.21875 
Q 42.328125 -1.421875 30.609375 -1.421875 
Q 18.84375 -1.421875 12.171875 6.21875 
Q 5.515625 13.875 5.515625 27.296875 
Q 5.515625 40.765625 12.171875 48.375 
Q 18.84375 56 30.609375 56 
z
" id="DejaVuSans-111"/>
       <path d="M 37.109375 75.984375 
L 37.109375 68.5 
L 28.515625 68.5 
Q 23.6875 68.5 21.796875 66.546875 
Q 19.921875 64.59375 19.921875 59.515625 
L 19.921875 54.6875 
L 34.71875 54.6875 
L 34.71875 47.703125 
L 19.921875 47.703125 
L 19.921875 0 
L 10.890625 0 
L 10.890625 47.703125 
L 2.296875 47.703125 
L 2.296875 54.6875 
L 10.890625 54.6875 
L 10.890625 58.5 
Q 10.890625 67.625 15.140625 71.796875 
Q 19.390625 75.984375 28.609375 75.984375 
z
" id="DejaVuSans-102"/>
       <path d="M 18.3125 70.21875 
L 18.3125 54.6875 
L 36.8125 54.6875 
L 36.8125 47.703125 
L 18.3125 47.703125 
L 18.3125 18.015625 
Q 18.3125 11.328125 20.140625 9.421875 
Q 21.96875 7.515625 27.59375 7.515625 
L 36.8125 7.515625 
L 36.8125 0 
L 27.59375 0 
Q 17.1875 0 13.234375 3.875 
Q 9.28125 7.765625 9.28125 18.015625 
L 9.28125 47.703125 
L 2.6875 47.703125 
L 2.6875 54.6875 
L 9.28125 54.6875 
L 9.28125 70.21875 
z
" id="DejaVuSans-116"/>
       <path d="M 32.171875 -5.078125 
Q 28.375 -14.84375 24.75 -17.8125 
Q 21.140625 -20.796875 15.09375 -20.796875 
L 7.90625 -20.796875 
L 7.90625 -13.28125 
L 13.1875 -13.28125 
Q 16.890625 -13.28125 18.9375 -11.515625 
Q 21 -9.765625 23.484375 -3.21875 
L 25.09375 0.875 
L 2.984375 54.6875 
L 12.5 54.6875 
L 29.59375 11.921875 
L 46.6875 54.6875 
L 56.203125 54.6875 
z
" id="DejaVuSans-121"/>
       <path d="M 18.109375 8.203125 
L 18.109375 -20.796875 
L 9.078125 -20.796875 
L 9.078125 54.6875 
L 18.109375 54.6875 
L 18.109375 46.390625 
Q 20.953125 51.265625 25.265625 53.625 
Q 29.59375 56 35.59375 56 
Q 45.5625 56 51.78125 48.09375 
Q 58.015625 40.1875 58.015625 27.296875 
Q 58.015625 14.40625 51.78125 6.484375 
Q 45.5625 -1.421875 35.59375 -1.421875 
Q 29.59375 -1.421875 25.265625 0.953125 
Q 20.953125 3.328125 18.109375 8.203125 
z
M 48.6875 27.296875 
Q 48.6875 37.203125 44.609375 42.84375 
Q 40.53125 48.484375 33.40625 48.484375 
Q 26.265625 48.484375 22.1875 42.84375 
Q 18.109375 37.203125 18.109375 27.296875 
Q 18.109375 17.390625 22.1875 11.75 
Q 26.265625 6.109375 33.40625 6.109375 
Q 40.53125 6.109375 44.609375 11.75 
Q 48.6875 17.390625 48.6875 27.296875 
z
" id="DejaVuSans-112"/>
      </defs>
      <use xlink:href="#DejaVuSans-82"/>
      <use x="67.232422" xlink:href="#DejaVuSans-97"/>
      <use x="128.511719" xlink:href="#DejaVuSans-110"/>
      <use x="191.890625" xlink:href="#DejaVuSans-107"/>
      <use x="249.800781" xlink:href="#DejaVuSans-105"/>
      <use x="277.583984" xlink:href="#DejaVuSans-110"/>
      <use x="340.962891" xlink:href="#DejaVuSans-103"/>
      <use x="404.439453" xlink:href="#DejaVuSans-32"/>
      <use x="436.226562" xlink:href="#DejaVuSans-111"/>
      <use x="497.408203" xlink:href="#DejaVuSans-102"/>
      <use x="532.613281" xlink:href="#DejaVuSans-32"/>
      <use x="564.400391" xlink:href="#DejaVuSans-103"/>
      <use x="627.876953" xlink:href="#DejaVuSans-101"/>
      <use x="689.400391" xlink:href="#DejaVuSans-110"/>
      <use x="752.779297" xlink:href="#DejaVuSans-101"/>
      <use x="814.302734" xlink:href="#DejaVuSans-32"/>
      <use x="846.089844" xlink:href="#DejaVuSans-116"/>
      <use x="885.298828" xlink:href="#DejaVuSans-121"/>
      <use x="944.478516" xlink:href="#DejaVuSans-112"/>
      <use x="1007.955078" xlink:href="#DejaVuSans-101"/>
      <use x="1069.478516" xlink:href="#DejaVuSans-115"/>
     </g>
    </g>
   </g>
   <g id="patch_3">
    <path clip-path="url(#p1c5b349d24)" d="M 93.124754 142.390286 
L 126.074357 142.390286 
L 126.074357 208.069143 
L 93.124754 208.069143 
L 93.124754 142.390286 
z
" style="fill:#fbf5e0;stroke:#4d4d4d;stroke-linejoin:miter;stroke-width:3;"/>
   </g>
   <g id="patch_4">
    <path clip-path="url(#p1c5b349d24)" d="M 126.746798 142.390286 
L 159.696402 142.390286 
L 159.696402 240.908571 
L 126.746798 240.908571 
L 126.746798 142.390286 
z
" style="fill:#e2a673;stroke:#4d4d4d;stroke-linejoin:miter;stroke-width:3;"/>
   </g>
   <g id="patch_5">
    <path clip-path="url(#p1c5b349d24)" d="M 160.368843 150.600143 
L 193.318446 150.600143 
L 193.318446 224.488857 
L 160.368843 224.488857 
L 160.368843 150.600143 
z
" style="fill:#e28e8e;stroke:#4d4d4d;stroke-linejoin:miter;stroke-width:3;"/>
   </g>
   <g id="patch_6">
    <path clip-path="url(#p1c5b349d24)" d="M 193.990887 109.550857 
L 226.940491 109.550857 
L 226.940491 208.069143 
L 193.990887 208.069143 
L 193.990887 109.550857 
z
" style="fill:#cd7dca;stroke:#4d4d4d;stroke-linejoin:miter;stroke-width:3;"/>
   </g>
   <g id="patch_7">
    <path clip-path="url(#p1c5b349d24)" d="M 227.612932 109.550857 
L 260.562535 109.550857 
L 260.562535 167.019857 
L 227.612932 167.019857 
L 227.612932 109.550857 
z
" style="fill:#987dce;stroke:#4d4d4d;stroke-linejoin:miter;stroke-width:3;"/>
   </g>
   <g id="patch_8">
    <path clip-path="url(#p1c5b349d24)" d="M 261.234976 84.921286 
L 294.18458 84.921286 
L 294.18458 142.390286 
L 261.234976 142.390286 
L 261.234976 84.921286 
z
" style="fill:#808080;stroke:#4d4d4d;stroke-linejoin:miter;stroke-width:3;"/>
   </g>
   <g id="patch_9">
    <path clip-path="url(#p1c5b349d24)" d="M 345.290087 142.390286 
L 378.239691 142.390286 
L 378.239691 240.908571 
L 345.290087 240.908571 
L 345.290087 142.390286 
z
" style="fill:#fbf5e0;stroke:#4d4d4d;stroke-linejoin:miter;stroke-width:3;"/>
   </g>
   <g id="patch_10">
    <path clip-path="url(#p1c5b349d24)" d="M 378.912132 117.760714 
L 411.861735 117.760714 
L 411.861735 240.908571 
L 378.912132 240.908571 
L 378.912132 117.760714 
z
" style="fill:#e2a673;stroke:#4d4d4d;stroke-linejoin:miter;stroke-width:3;"/>
   </g>
   <g id="patch_11">
    <path clip-path="url(#p1c5b349d24)" d="M 412.534176 142.390286 
L 445.48378 142.390286 
L 445.48378 208.069143 
L 412.534176 208.069143 
L 412.534176 142.390286 
z
" style="fill:#e28e8e;stroke:#4d4d4d;stroke-linejoin:miter;stroke-width:3;"/>
   </g>
   <g id="patch_12">
    <path clip-path="url(#p1c5b349d24)" d="M 446.15622 109.550857 
L 479.105824 109.550857 
L 479.105824 175.229714 
L 446.15622 175.229714 
L 446.15622 109.550857 
z
" style="fill:#cd7dca;stroke:#4d4d4d;stroke-linejoin:miter;stroke-width:3;"/>
   </g>
   <g id="patch_13">
    <path clip-path="url(#p1c5b349d24)" d="M 479.778265 150.600143 
L 512.727868 150.600143 
L 512.727868 208.069143 
L 479.778265 208.069143 
L 479.778265 150.600143 
z
" style="fill:#987dce;stroke:#4d4d4d;stroke-linejoin:miter;stroke-width:3;"/>
   </g>
   <g id="patch_14">
    <path clip-path="url(#p1c5b349d24)" d="M 513.400309 76.711429 
L 546.349913 76.711429 
L 546.349913 134.180429 
L 513.400309 134.180429 
L 513.400309 76.711429 
z
" style="fill:#808080;stroke:#4d4d4d;stroke-linejoin:miter;stroke-width:3;"/>
   </g>
   <g id="patch_15">
    <path clip-path="url(#p1c5b349d24)" d="M 597.45542 109.550857 
L 630.405024 109.550857 
L 630.405024 167.019857 
L 597.45542 167.019857 
L 597.45542 109.550857 
z
" style="fill:#fbf5e0;stroke:#4d4d4d;stroke-linejoin:miter;stroke-width:3;"/>
   </g>
   <g id="patch_16">
    <path clip-path="url(#p1c5b349d24)" d="M 631.077465 84.921286 
L 664.027068 84.921286 
L 664.027068 208.069143 
L 631.077465 208.069143 
L 631.077465 84.921286 
z
" style="fill:#e2a673;stroke:#4d4d4d;stroke-linejoin:miter;stroke-width:3;"/>
   </g>
   <g id="patch_17">
    <path clip-path="url(#p1c5b349d24)" d="M 664.699509 175.229714 
L 697.649113 175.229714 
L 697.649113 240.908571 
L 664.699509 240.908571 
L 664.699509 175.229714 
z
" style="fill:#e28e8e;stroke:#4d4d4d;stroke-linejoin:miter;stroke-width:3;"/>
   </g>
   <g id="patch_18">
    <path clip-path="url(#p1c5b349d24)" d="M 698.321554 150.600143 
L 731.271157 150.600143 
L 731.271157 232.698714 
L 698.321554 232.698714 
L 698.321554 150.600143 
z
" style="fill:#cd7dca;stroke:#4d4d4d;stroke-linejoin:miter;stroke-width:3;"/>
   </g>
   <g id="patch_19">
    <path clip-path="url(#p1c5b349d24)" d="M 731.943598 109.550857 
L 764.893202 109.550857 
L 764.893202 175.229714 
L 731.943598 175.229714 
L 731.943598 109.550857 
z
" style="fill:#987dce;stroke:#4d4d4d;stroke-linejoin:miter;stroke-width:3;"/>
   </g>
   <g id="patch_20">
    <path clip-path="url(#p1c5b349d24)" d="M 765.565643 84.921286 
L 798.515246 84.921286 
L 798.515246 191.649429 
L 765.565643 191.649429 
L 765.565643 84.921286 
z
" style="fill:#808080;stroke:#4d4d4d;stroke-linejoin:miter;stroke-width:3;"/>
   </g>
   <g id="patch_21">
    <path clip-path="url(#p1c5b349d24)" d="M 193.654667 43.872 
L 193.654667 43.872 
L 193.654667 43.872 
L 193.654667 43.872 
z
" style="fill:#fbf5e0;stroke:#4d4d4d;stroke-linejoin:miter;stroke-width:1.5;"/>
   </g>
   <g id="patch_22">
    <path clip-path="url(#p1c5b349d24)" d="M 193.654667 43.872 
L 193.654667 43.872 
L 193.654667 43.872 
L 193.654667 43.872 
z
" style="fill:#e2a673;stroke:#4d4d4d;stroke-linejoin:miter;stroke-width:1.5;"/>
   </g>
   <g id="patch_23">
    <path clip-path="url(#p1c5b349d24)" d="M 193.654667 43.872 
L 193.654667 43.872 
L 193.654667 43.872 
L 193.654667 43.872 
z
" style="fill:#e28e8e;stroke:#4d4d4d;stroke-linejoin:miter;stroke-width:1.5;"/>
   </g>
   <g id="patch_24">
    <path clip-path="url(#p1c5b349d24)" d="M 193.654667 43.872 
L 193.654667 43.872 
L 193.654667 43.872 
L 193.654667 43.872 
z
" style="fill:#cd7dca;stroke:#4d4d4d;stroke-linejoin:miter;stroke-width:1.5;"/>
   </g>
   <g id="patch_25">
    <path clip-path="url(#p1c5b349d24)" d="M 193.654667 43.872 
L 193.654667 43.872 
L 193.654667 43.872 
L 193.654667 43.872 
z
" style="fill:#987dce;stroke:#4d4d4d;stroke-linejoin:miter;stroke-width:1.5;"/>
   </g>
   <g id="patch_26">
    <path clip-path="url(#p1c5b349d24)" d="M 193.654667 43.872 
L 193.654667 43.872 
L 193.654667 43.872 
L 193.654667 43.872 
z
" style="fill:#808080;stroke:#4d4d4d;stroke-linejoin:miter;stroke-width:1.5;"/>
   </g>
   <g id="line2d_1">
    <path clip-path="url(#p1c5b349d24)" d="M 109.599556 142.390286 
L 109.599556 76.711429 
" style="fill:none;stroke:#4d4d4d;stroke-linecap:round;stroke-width:3;"/>
   </g>
   <g id="line2d_2">
    <path clip-path="url(#p1c5b349d24)" d="M 109.599556 208.069143 
L 109.599556 240.908571 
" style="fill:none;stroke:#4d4d4d;stroke-linecap:round;stroke-width:3;"/>
   </g>
   <g id="line2d_3">
    <path clip-path="url(#p1c5b349d24)" d="M 101.362155 76.711429 
L 117.836956 76.711429 
" style="fill:none;stroke:#4d4d4d;stroke-linecap:round;stroke-width:3;"/>
   </g>
   <g id="line2d_4">
    <path clip-path="url(#p1c5b349d24)" d="M 101.362155 240.908571 
L 117.836956 240.908571 
" style="fill:none;stroke:#4d4d4d;stroke-linecap:round;stroke-width:3;"/>
   </g>
   <g id="line2d_5"/>
   <g id="line2d_6">
    <path clip-path="url(#p1c5b349d24)" d="M 143.2216 142.390286 
L 143.2216 76.711429 
" style="fill:none;stroke:#4d4d4d;stroke-linecap:round;stroke-width:3;"/>
   </g>
   <g id="line2d_7">
    <path clip-path="url(#p1c5b349d24)" d="M 143.2216 240.908571 
L 143.2216 240.908571 
" style="fill:none;stroke:#4d4d4d;stroke-linecap:round;stroke-width:3;"/>
   </g>
   <g id="line2d_8">
    <path clip-path="url(#p1c5b349d24)" d="M 134.984199 76.711429 
L 151.459001 76.711429 
" style="fill:none;stroke:#4d4d4d;stroke-linecap:round;stroke-width:3;"/>
   </g>
   <g id="line2d_9">
    <path clip-path="url(#p1c5b349d24)" d="M 134.984199 240.908571 
L 151.459001 240.908571 
" style="fill:none;stroke:#4d4d4d;stroke-linecap:round;stroke-width:3;"/>
   </g>
   <g id="line2d_10"/>
   <g id="line2d_11">
    <path clip-path="url(#p1c5b349d24)" d="M 176.843644 150.600143 
L 176.843644 109.550857 
" style="fill:none;stroke:#4d4d4d;stroke-linecap:round;stroke-width:3;"/>
   </g>
   <g id="line2d_12">
    <path clip-path="url(#p1c5b349d24)" d="M 176.843644 224.488857 
L 176.843644 240.908571 
" style="fill:none;stroke:#4d4d4d;stroke-linecap:round;stroke-width:3;"/>
   </g>
   <g id="line2d_13">
    <path clip-path="url(#p1c5b349d24)" d="M 168.606244 109.550857 
L 185.081045 109.550857 
" style="fill:none;stroke:#4d4d4d;stroke-linecap:round;stroke-width:3;"/>
   </g>
   <g id="line2d_14">
    <path clip-path="url(#p1c5b349d24)" d="M 168.606244 240.908571 
L 185.081045 240.908571 
" style="fill:none;stroke:#4d4d4d;stroke-linecap:round;stroke-width:3;"/>
   </g>
   <g id="line2d_15"/>
   <g id="line2d_16">
    <path clip-path="url(#p1c5b349d24)" d="M 210.465689 109.550857 
L 210.465689 76.711429 
" style="fill:none;stroke:#4d4d4d;stroke-linecap:round;stroke-width:3;"/>
   </g>
   <g id="line2d_17">
    <path clip-path="url(#p1c5b349d24)" d="M 210.465689 208.069143 
L 210.465689 208.069143 
" style="fill:none;stroke:#4d4d4d;stroke-linecap:round;stroke-width:3;"/>
   </g>
   <g id="line2d_18">
    <path clip-path="url(#p1c5b349d24)" d="M 202.228288 76.711429 
L 218.70309 76.711429 
" style="fill:none;stroke:#4d4d4d;stroke-linecap:round;stroke-width:3;"/>
   </g>
   <g id="line2d_19">
    <path clip-path="url(#p1c5b349d24)" d="M 202.228288 208.069143 
L 218.70309 208.069143 
" style="fill:none;stroke:#4d4d4d;stroke-linecap:round;stroke-width:3;"/>
   </g>
   <g id="line2d_20"/>
   <g id="line2d_21">
    <path clip-path="url(#p1c5b349d24)" d="M 244.087733 109.550857 
L 244.087733 76.711429 
" style="fill:none;stroke:#4d4d4d;stroke-linecap:round;stroke-width:3;"/>
   </g>
   <g id="line2d_22">
    <path clip-path="url(#p1c5b349d24)" d="M 244.087733 167.019857 
L 244.087733 240.908571 
" style="fill:none;stroke:#4d4d4d;stroke-linecap:round;stroke-width:3;"/>
   </g>
   <g id="line2d_23">
    <path clip-path="url(#p1c5b349d24)" d="M 235.850332 76.711429 
L 252.325134 76.711429 
" style="fill:none;stroke:#4d4d4d;stroke-linecap:round;stroke-width:3;"/>
   </g>
   <g id="line2d_24">
    <path clip-path="url(#p1c5b349d24)" d="M 235.850332 240.908571 
L 252.325134 240.908571 
" style="fill:none;stroke:#4d4d4d;stroke-linecap:round;stroke-width:3;"/>
   </g>
   <g id="line2d_25"/>
   <g id="line2d_26">
    <path clip-path="url(#p1c5b349d24)" d="M 277.709778 84.921286 
L 277.709778 76.711429 
" style="fill:none;stroke:#4d4d4d;stroke-linecap:round;stroke-width:3;"/>
   </g>
   <g id="line2d_27">
    <path clip-path="url(#p1c5b349d24)" d="M 277.709778 142.390286 
L 277.709778 208.069143 
" style="fill:none;stroke:#4d4d4d;stroke-linecap:round;stroke-width:3;"/>
   </g>
   <g id="line2d_28">
    <path clip-path="url(#p1c5b349d24)" d="M 269.472377 76.711429 
L 285.947179 76.711429 
" style="fill:none;stroke:#4d4d4d;stroke-linecap:round;stroke-width:3;"/>
   </g>
   <g id="line2d_29">
    <path clip-path="url(#p1c5b349d24)" d="M 269.472377 208.069143 
L 285.947179 208.069143 
" style="fill:none;stroke:#4d4d4d;stroke-linecap:round;stroke-width:3;"/>
   </g>
   <g id="line2d_30">
    <defs>
     <path d="M 0 2.5 
C 0.663008 2.5 1.29895 2.236584 1.767767 1.767767 
C 2.236584 1.29895 2.5 0.663008 2.5 0 
C 2.5 -0.663008 2.236584 -1.29895 1.767767 -1.767767 
C 1.29895 -2.236584 0.663008 -2.5 0 -2.5 
C -0.663008 -2.5 -1.29895 -2.236584 -1.767767 -1.767767 
C -2.236584 -1.29895 -2.5 -0.663008 -2.5 0 
C -2.5 0.663008 -2.236584 1.29895 -1.767767 1.767767 
C -1.29895 2.236584 -0.663008 2.5 0 2.5 
z
" id="mec0be84e5e" style="stroke:#4d4d4d;"/>
    </defs>
    <g clip-path="url(#p1c5b349d24)">
     <use style="fill:#4d4d4d;stroke:#4d4d4d;" x="277.709778" xlink:href="#mec0be84e5e" y="240.908571"/>
    </g>
   </g>
   <g id="line2d_31">
    <path clip-path="url(#p1c5b349d24)" d="M 361.764889 142.390286 
L 361.764889 109.550857 
" style="fill:none;stroke:#4d4d4d;stroke-linecap:round;stroke-width:3;"/>
   </g>
   <g id="line2d_32">
    <path clip-path="url(#p1c5b349d24)" d="M 361.764889 240.908571 
L 361.764889 240.908571 
" style="fill:none;stroke:#4d4d4d;stroke-linecap:round;stroke-width:3;"/>
   </g>
   <g id="line2d_33">
    <path clip-path="url(#p1c5b349d24)" d="M 353.527488 109.550857 
L 370.00229 109.550857 
" style="fill:none;stroke:#4d4d4d;stroke-linecap:round;stroke-width:3;"/>
   </g>
   <g id="line2d_34">
    <path clip-path="url(#p1c5b349d24)" d="M 353.527488 240.908571 
L 370.00229 240.908571 
" style="fill:none;stroke:#4d4d4d;stroke-linecap:round;stroke-width:3;"/>
   </g>
   <g id="line2d_35"/>
   <g id="line2d_36">
    <path clip-path="url(#p1c5b349d24)" d="M 395.386933 117.760714 
L 395.386933 76.711429 
" style="fill:none;stroke:#4d4d4d;stroke-linecap:round;stroke-width:3;"/>
   </g>
   <g id="line2d_37">
    <path clip-path="url(#p1c5b349d24)" d="M 395.386933 240.908571 
L 395.386933 240.908571 
" style="fill:none;stroke:#4d4d4d;stroke-linecap:round;stroke-width:3;"/>
   </g>
   <g id="line2d_38">
    <path clip-path="url(#p1c5b349d24)" d="M 387.149532 76.711429 
L 403.624334 76.711429 
" style="fill:none;stroke:#4d4d4d;stroke-linecap:round;stroke-width:3;"/>
   </g>
   <g id="line2d_39">
    <path clip-path="url(#p1c5b349d24)" d="M 387.149532 240.908571 
L 403.624334 240.908571 
" style="fill:none;stroke:#4d4d4d;stroke-linecap:round;stroke-width:3;"/>
   </g>
   <g id="line2d_40"/>
   <g id="line2d_41">
    <path clip-path="url(#p1c5b349d24)" d="M 429.008978 142.390286 
L 429.008978 109.550857 
" style="fill:none;stroke:#4d4d4d;stroke-linecap:round;stroke-width:3;"/>
   </g>
   <g id="line2d_42">
    <path clip-path="url(#p1c5b349d24)" d="M 429.008978 208.069143 
L 429.008978 240.908571 
" style="fill:none;stroke:#4d4d4d;stroke-linecap:round;stroke-width:3;"/>
   </g>
   <g id="line2d_43">
    <path clip-path="url(#p1c5b349d24)" d="M 420.771577 109.550857 
L 437.246379 109.550857 
" style="fill:none;stroke:#4d4d4d;stroke-linecap:round;stroke-width:3;"/>
   </g>
   <g id="line2d_44">
    <path clip-path="url(#p1c5b349d24)" d="M 420.771577 240.908571 
L 437.246379 240.908571 
" style="fill:none;stroke:#4d4d4d;stroke-linecap:round;stroke-width:3;"/>
   </g>
   <g id="line2d_45"/>
   <g id="line2d_46">
    <path clip-path="url(#p1c5b349d24)" d="M 462.631022 109.550857 
L 462.631022 76.711429 
" style="fill:none;stroke:#4d4d4d;stroke-linecap:round;stroke-width:3;"/>
   </g>
   <g id="line2d_47">
    <path clip-path="url(#p1c5b349d24)" d="M 462.631022 175.229714 
L 462.631022 175.229714 
" style="fill:none;stroke:#4d4d4d;stroke-linecap:round;stroke-width:3;"/>
   </g>
   <g id="line2d_48">
    <path clip-path="url(#p1c5b349d24)" d="M 454.393621 76.711429 
L 470.868423 76.711429 
" style="fill:none;stroke:#4d4d4d;stroke-linecap:round;stroke-width:3;"/>
   </g>
   <g id="line2d_49">
    <path clip-path="url(#p1c5b349d24)" d="M 454.393621 175.229714 
L 470.868423 175.229714 
" style="fill:none;stroke:#4d4d4d;stroke-linecap:round;stroke-width:3;"/>
   </g>
   <g id="line2d_50"/>
   <g id="line2d_51">
    <path clip-path="url(#p1c5b349d24)" d="M 496.253067 150.600143 
L 496.253067 109.550857 
" style="fill:none;stroke:#4d4d4d;stroke-linecap:round;stroke-width:3;"/>
   </g>
   <g id="line2d_52">
    <path clip-path="url(#p1c5b349d24)" d="M 496.253067 208.069143 
L 496.253067 208.069143 
" style="fill:none;stroke:#4d4d4d;stroke-linecap:round;stroke-width:3;"/>
   </g>
   <g id="line2d_53">
    <path clip-path="url(#p1c5b349d24)" d="M 488.015666 109.550857 
L 504.490468 109.550857 
" style="fill:none;stroke:#4d4d4d;stroke-linecap:round;stroke-width:3;"/>
   </g>
   <g id="line2d_54">
    <path clip-path="url(#p1c5b349d24)" d="M 488.015666 208.069143 
L 504.490468 208.069143 
" style="fill:none;stroke:#4d4d4d;stroke-linecap:round;stroke-width:3;"/>
   </g>
   <g id="line2d_55"/>
   <g id="line2d_56">
    <path clip-path="url(#p1c5b349d24)" d="M 529.875111 76.711429 
L 529.875111 76.711429 
" style="fill:none;stroke:#4d4d4d;stroke-linecap:round;stroke-width:3;"/>
   </g>
   <g id="line2d_57">
    <path clip-path="url(#p1c5b349d24)" d="M 529.875111 134.180429 
L 529.875111 175.229714 
" style="fill:none;stroke:#4d4d4d;stroke-linecap:round;stroke-width:3;"/>
   </g>
   <g id="line2d_58">
    <path clip-path="url(#p1c5b349d24)" d="M 521.63771 76.711429 
L 538.112512 76.711429 
" style="fill:none;stroke:#4d4d4d;stroke-linecap:round;stroke-width:3;"/>
   </g>
   <g id="line2d_59">
    <path clip-path="url(#p1c5b349d24)" d="M 521.63771 175.229714 
L 538.112512 175.229714 
" style="fill:none;stroke:#4d4d4d;stroke-linecap:round;stroke-width:3;"/>
   </g>
   <g id="line2d_60">
    <g clip-path="url(#p1c5b349d24)">
     <use style="fill:#4d4d4d;stroke:#4d4d4d;" x="529.875111" xlink:href="#mec0be84e5e" y="240.908571"/>
    </g>
   </g>
   <g id="line2d_61">
    <path clip-path="url(#p1c5b349d24)" d="M 613.930222 109.550857 
L 613.930222 76.711429 
" style="fill:none;stroke:#4d4d4d;stroke-linecap:round;stroke-width:3;"/>
   </g>
   <g id="line2d_62">
    <path clip-path="url(#p1c5b349d24)" d="M 613.930222 167.019857 
L 613.930222 240.908571 
" style="fill:none;stroke:#4d4d4d;stroke-linecap:round;stroke-width:3;"/>
   </g>
   <g id="line2d_63">
    <path clip-path="url(#p1c5b349d24)" d="M 605.692821 76.711429 
L 622.167623 76.711429 
" style="fill:none;stroke:#4d4d4d;stroke-linecap:round;stroke-width:3;"/>
   </g>
   <g id="line2d_64">
    <path clip-path="url(#p1c5b349d24)" d="M 605.692821 240.908571 
L 622.167623 240.908571 
" style="fill:none;stroke:#4d4d4d;stroke-linecap:round;stroke-width:3;"/>
   </g>
   <g id="line2d_65"/>
   <g id="line2d_66">
    <path clip-path="url(#p1c5b349d24)" d="M 647.552267 84.921286 
L 647.552267 76.711429 
" style="fill:none;stroke:#4d4d4d;stroke-linecap:round;stroke-width:3;"/>
   </g>
   <g id="line2d_67">
    <path clip-path="url(#p1c5b349d24)" d="M 647.552267 208.069143 
L 647.552267 240.908571 
" style="fill:none;stroke:#4d4d4d;stroke-linecap:round;stroke-width:3;"/>
   </g>
   <g id="line2d_68">
    <path clip-path="url(#p1c5b349d24)" d="M 639.314866 76.711429 
L 655.789668 76.711429 
" style="fill:none;stroke:#4d4d4d;stroke-linecap:round;stroke-width:3;"/>
   </g>
   <g id="line2d_69">
    <path clip-path="url(#p1c5b349d24)" d="M 639.314866 240.908571 
L 655.789668 240.908571 
" style="fill:none;stroke:#4d4d4d;stroke-linecap:round;stroke-width:3;"/>
   </g>
   <g id="line2d_70"/>
   <g id="line2d_71">
    <path clip-path="url(#p1c5b349d24)" d="M 681.174311 175.229714 
L 681.174311 76.711429 
" style="fill:none;stroke:#4d4d4d;stroke-linecap:round;stroke-width:3;"/>
   </g>
   <g id="line2d_72">
    <path clip-path="url(#p1c5b349d24)" d="M 681.174311 240.908571 
L 681.174311 240.908571 
" style="fill:none;stroke:#4d4d4d;stroke-linecap:round;stroke-width:3;"/>
   </g>
   <g id="line2d_73">
    <path clip-path="url(#p1c5b349d24)" d="M 672.93691 76.711429 
L 689.411712 76.711429 
" style="fill:none;stroke:#4d4d4d;stroke-linecap:round;stroke-width:3;"/>
   </g>
   <g id="line2d_74">
    <path clip-path="url(#p1c5b349d24)" d="M 672.93691 240.908571 
L 689.411712 240.908571 
" style="fill:none;stroke:#4d4d4d;stroke-linecap:round;stroke-width:3;"/>
   </g>
   <g id="line2d_75"/>
   <g id="line2d_76">
    <path clip-path="url(#p1c5b349d24)" d="M 714.796356 150.600143 
L 714.796356 109.550857 
" style="fill:none;stroke:#4d4d4d;stroke-linecap:round;stroke-width:3;"/>
   </g>
   <g id="line2d_77">
    <path clip-path="url(#p1c5b349d24)" d="M 714.796356 232.698714 
L 714.796356 240.908571 
" style="fill:none;stroke:#4d4d4d;stroke-linecap:round;stroke-width:3;"/>
   </g>
   <g id="line2d_78">
    <path clip-path="url(#p1c5b349d24)" d="M 706.558955 109.550857 
L 723.033756 109.550857 
" style="fill:none;stroke:#4d4d4d;stroke-linecap:round;stroke-width:3;"/>
   </g>
   <g id="line2d_79">
    <path clip-path="url(#p1c5b349d24)" d="M 706.558955 240.908571 
L 723.033756 240.908571 
" style="fill:none;stroke:#4d4d4d;stroke-linecap:round;stroke-width:3;"/>
   </g>
   <g id="line2d_80"/>
   <g id="line2d_81">
    <path clip-path="url(#p1c5b349d24)" d="M 748.4184 109.550857 
L 748.4184 76.711429 
" style="fill:none;stroke:#4d4d4d;stroke-linecap:round;stroke-width:3;"/>
   </g>
   <g id="line2d_82">
    <path clip-path="url(#p1c5b349d24)" d="M 748.4184 175.229714 
L 748.4184 208.069143 
" style="fill:none;stroke:#4d4d4d;stroke-linecap:round;stroke-width:3;"/>
   </g>
   <g id="line2d_83">
    <path clip-path="url(#p1c5b349d24)" d="M 740.180999 76.711429 
L 756.655801 76.711429 
" style="fill:none;stroke:#4d4d4d;stroke-linecap:round;stroke-width:3;"/>
   </g>
   <g id="line2d_84">
    <path clip-path="url(#p1c5b349d24)" d="M 740.180999 208.069143 
L 756.655801 208.069143 
" style="fill:none;stroke:#4d4d4d;stroke-linecap:round;stroke-width:3;"/>
   </g>
   <g id="line2d_85"/>
   <g id="line2d_86">
    <path clip-path="url(#p1c5b349d24)" d="M 782.040444 84.921286 
L 782.040444 76.711429 
" style="fill:none;stroke:#4d4d4d;stroke-linecap:round;stroke-width:3;"/>
   </g>
   <g id="line2d_87">
    <path clip-path="url(#p1c5b349d24)" d="M 782.040444 191.649429 
L 782.040444 240.908571 
" style="fill:none;stroke:#4d4d4d;stroke-linecap:round;stroke-width:3;"/>
   </g>
   <g id="line2d_88">
    <path clip-path="url(#p1c5b349d24)" d="M 773.803044 76.711429 
L 790.277845 76.711429 
" style="fill:none;stroke:#4d4d4d;stroke-linecap:round;stroke-width:3;"/>
   </g>
   <g id="line2d_89">
    <path clip-path="url(#p1c5b349d24)" d="M 773.803044 240.908571 
L 790.277845 240.908571 
" style="fill:none;stroke:#4d4d4d;stroke-linecap:round;stroke-width:3;"/>
   </g>
   <g id="line2d_90"/>
   <g id="line2d_91">
    <path clip-path="url(#p1c5b349d24)" d="M 93.124754 175.229714 
L 126.074357 175.229714 
" style="fill:none;stroke:#4d4d4d;stroke-linecap:round;stroke-width:3;"/>
   </g>
   <g id="line2d_92">
    <path clip-path="url(#p1c5b349d24)" d="M 126.746798 191.649429 
L 159.696402 191.649429 
" style="fill:none;stroke:#4d4d4d;stroke-linecap:round;stroke-width:3;"/>
   </g>
   <g id="line2d_93">
    <path clip-path="url(#p1c5b349d24)" d="M 160.368843 175.229714 
L 193.318446 175.229714 
" style="fill:none;stroke:#4d4d4d;stroke-linecap:round;stroke-width:3;"/>
   </g>
   <g id="line2d_94">
    <path clip-path="url(#p1c5b349d24)" d="M 193.990887 175.229714 
L 226.940491 175.229714 
" style="fill:none;stroke:#4d4d4d;stroke-linecap:round;stroke-width:3;"/>
   </g>
   <g id="line2d_95">
    <path clip-path="url(#p1c5b349d24)" d="M 227.612932 142.390286 
L 260.562535 142.390286 
" style="fill:none;stroke:#4d4d4d;stroke-linecap:round;stroke-width:3;"/>
   </g>
   <g id="line2d_96">
    <path clip-path="url(#p1c5b349d24)" d="M 261.234976 109.550857 
L 294.18458 109.550857 
" style="fill:none;stroke:#4d4d4d;stroke-linecap:round;stroke-width:3;"/>
   </g>
   <g id="line2d_97">
    <path clip-path="url(#p1c5b349d24)" d="M 345.290087 191.649429 
L 378.239691 191.649429 
" style="fill:none;stroke:#4d4d4d;stroke-linecap:round;stroke-width:3;"/>
   </g>
   <g id="line2d_98">
    <path clip-path="url(#p1c5b349d24)" d="M 378.912132 175.229714 
L 411.861735 175.229714 
" style="fill:none;stroke:#4d4d4d;stroke-linecap:round;stroke-width:3;"/>
   </g>
   <g id="line2d_99">
    <path clip-path="url(#p1c5b349d24)" d="M 412.534176 191.649429 
L 445.48378 191.649429 
" style="fill:none;stroke:#4d4d4d;stroke-linecap:round;stroke-width:3;"/>
   </g>
   <g id="line2d_100">
    <path clip-path="url(#p1c5b349d24)" d="M 446.15622 125.970571 
L 479.105824 125.970571 
" style="fill:none;stroke:#4d4d4d;stroke-linecap:round;stroke-width:3;"/>
   </g>
   <g id="line2d_101">
    <path clip-path="url(#p1c5b349d24)" d="M 479.778265 175.229714 
L 512.727868 175.229714 
" style="fill:none;stroke:#4d4d4d;stroke-linecap:round;stroke-width:3;"/>
   </g>
   <g id="line2d_102">
    <path clip-path="url(#p1c5b349d24)" d="M 513.400309 76.711429 
L 546.349913 76.711429 
" style="fill:none;stroke:#4d4d4d;stroke-linecap:round;stroke-width:3;"/>
   </g>
   <g id="line2d_103">
    <path clip-path="url(#p1c5b349d24)" d="M 597.45542 142.390286 
L 630.405024 142.390286 
" style="fill:none;stroke:#4d4d4d;stroke-linecap:round;stroke-width:3;"/>
   </g>
   <g id="line2d_104">
    <path clip-path="url(#p1c5b349d24)" d="M 631.077465 142.390286 
L 664.027068 142.390286 
" style="fill:none;stroke:#4d4d4d;stroke-linecap:round;stroke-width:3;"/>
   </g>
   <g id="line2d_105">
    <path clip-path="url(#p1c5b349d24)" d="M 664.699509 208.069143 
L 697.649113 208.069143 
" style="fill:none;stroke:#4d4d4d;stroke-linecap:round;stroke-width:3;"/>
   </g>
   <g id="line2d_106">
    <path clip-path="url(#p1c5b349d24)" d="M 698.321554 175.229714 
L 731.271157 175.229714 
" style="fill:none;stroke:#4d4d4d;stroke-linecap:round;stroke-width:3;"/>
   </g>
   <g id="line2d_107">
    <path clip-path="url(#p1c5b349d24)" d="M 731.943598 158.81 
L 764.893202 158.81 
" style="fill:none;stroke:#4d4d4d;stroke-linecap:round;stroke-width:3;"/>
   </g>
   <g id="line2d_108">
    <path clip-path="url(#p1c5b349d24)" d="M 765.565643 125.970571 
L 798.515246 125.970571 
" style="fill:none;stroke:#4d4d4d;stroke-linecap:round;stroke-width:3;"/>
   </g>
   <g id="patch_27">
    <path d="M 67.572 273.748 
L 67.572 43.872 
" style="fill:none;stroke:#262626;stroke-linecap:square;stroke-linejoin:miter;stroke-width:1.25;"/>
   </g>
   <g id="patch_28">
    <path d="M 824.068 273.748 
L 824.068 43.872 
" style="fill:none;stroke:#262626;stroke-linecap:square;stroke-linejoin:miter;stroke-width:1.25;"/>
   </g>
   <g id="patch_29">
    <path d="M 67.572 273.748 
L 824.068 273.748 
" style="fill:none;stroke:#262626;stroke-linecap:square;stroke-linejoin:miter;stroke-width:1.25;"/>
   </g>
   <g id="patch_30">
    <path d="M 67.572 43.872 
L 824.068 43.872 
" style="fill:none;stroke:#262626;stroke-linecap:square;stroke-linejoin:miter;stroke-width:1.25;"/>
   </g>
   <g id="text_9">
    <!-- Non-smoker -->
    <g style="fill:#262626;" transform="translate(384.307625 37.872)scale(0.204 -0.204)">
     <defs>
      <path d="M 52 44.1875 
Q 55.375 50.25 60.0625 53.125 
Q 64.75 56 71.09375 56 
Q 79.640625 56 84.28125 50.015625 
Q 88.921875 44.046875 88.921875 33.015625 
L 88.921875 0 
L 79.890625 0 
L 79.890625 32.71875 
Q 79.890625 40.578125 77.09375 44.375 
Q 74.3125 48.1875 68.609375 48.1875 
Q 61.625 48.1875 57.5625 43.546875 
Q 53.515625 38.921875 53.515625 30.90625 
L 53.515625 0 
L 44.484375 0 
L 44.484375 32.71875 
Q 44.484375 40.625 41.703125 44.40625 
Q 38.921875 48.1875 33.109375 48.1875 
Q 26.21875 48.1875 22.15625 43.53125 
Q 18.109375 38.875 18.109375 30.90625 
L 18.109375 0 
L 9.078125 0 
L 9.078125 54.6875 
L 18.109375 54.6875 
L 18.109375 46.1875 
Q 21.1875 51.21875 25.484375 53.609375 
Q 29.78125 56 35.6875 56 
Q 41.65625 56 45.828125 52.96875 
Q 50 49.953125 52 44.1875 
z
" id="DejaVuSans-109"/>
      <path d="M 41.109375 46.296875 
Q 39.59375 47.171875 37.8125 47.578125 
Q 36.03125 48 33.890625 48 
Q 26.265625 48 22.1875 43.046875 
Q 18.109375 38.09375 18.109375 28.8125 
L 18.109375 0 
L 9.078125 0 
L 9.078125 54.6875 
L 18.109375 54.6875 
L 18.109375 46.1875 
Q 20.953125 51.171875 25.484375 53.578125 
Q 30.03125 56 36.53125 56 
Q 37.453125 56 38.578125 55.875 
Q 39.703125 55.765625 41.0625 55.515625 
z
" id="DejaVuSans-114"/>
     </defs>
     <use xlink:href="#DejaVuSans-78"/>
     <use x="74.804688" xlink:href="#DejaVuSans-111"/>
     <use x="135.986328" xlink:href="#DejaVuSans-110"/>
     <use x="199.365234" xlink:href="#DejaVuSans-45"/>
     <use x="235.449219" xlink:href="#DejaVuSans-115"/>
     <use x="287.548828" xlink:href="#DejaVuSans-109"/>
     <use x="384.960938" xlink:href="#DejaVuSans-111"/>
     <use x="446.142578" xlink:href="#DejaVuSans-107"/>
     <use x="500.427734" xlink:href="#DejaVuSans-101"/>
     <use x="561.951172" xlink:href="#DejaVuSans-114"/>
    </g>
   </g>
   <g id="legend_1">
    <g id="patch_31">
     <path d="M 840.898 95.349797 
L 878.298 95.349797 
L 878.298 82.259797 
L 840.898 82.259797 
z
" style="fill:#fbf5e0;stroke:#4d4d4d;stroke-linejoin:miter;stroke-width:1.5;"/>
    </g>
    <g id="text_10">
     <!-- CellAge -->
     <g style="fill:#262626;" transform="translate(893.258 95.349797)scale(0.187 -0.187)">
      <defs>
       <path d="M 9.421875 75.984375 
L 18.40625 75.984375 
L 18.40625 0 
L 9.421875 0 
z
" id="DejaVuSans-108"/>
      </defs>
      <use xlink:href="#DejaVuSans-67"/>
      <use x="69.824219" xlink:href="#DejaVuSans-101"/>
      <use x="131.347656" xlink:href="#DejaVuSans-108"/>
      <use x="159.130859" xlink:href="#DejaVuSans-108"/>
      <use x="186.914062" xlink:href="#DejaVuSans-65"/>
      <use x="255.322266" xlink:href="#DejaVuSans-103"/>
      <use x="318.798828" xlink:href="#DejaVuSans-101"/>
     </g>
    </g>
    <g id="patch_32">
     <path d="M 840.898 122.797891 
L 878.298 122.797891 
L 878.298 109.707891 
L 840.898 109.707891 
z
" style="fill:#e2a673;stroke:#4d4d4d;stroke-linejoin:miter;stroke-width:1.5;"/>
    </g>
    <g id="text_11">
     <!-- SASP2 -->
     <g style="fill:#262626;" transform="translate(893.258 122.797891)scale(0.187 -0.187)">
      <defs>
       <path d="M 53.515625 70.515625 
L 53.515625 60.890625 
Q 47.90625 63.578125 42.921875 64.890625 
Q 37.9375 66.21875 33.296875 66.21875 
Q 25.25 66.21875 20.875 63.09375 
Q 16.5 59.96875 16.5 54.203125 
Q 16.5 49.359375 19.40625 46.890625 
Q 22.3125 44.4375 30.421875 42.921875 
L 36.375 41.703125 
Q 47.40625 39.59375 52.65625 34.296875 
Q 57.90625 29 57.90625 20.125 
Q 57.90625 9.515625 50.796875 4.046875 
Q 43.703125 -1.421875 29.984375 -1.421875 
Q 24.8125 -1.421875 18.96875 -0.25 
Q 13.140625 0.921875 6.890625 3.21875 
L 6.890625 13.375 
Q 12.890625 10.015625 18.65625 8.296875 
Q 24.421875 6.59375 29.984375 6.59375 
Q 38.421875 6.59375 43.015625 9.90625 
Q 47.609375 13.234375 47.609375 19.390625 
Q 47.609375 24.75 44.3125 27.78125 
Q 41.015625 30.8125 33.5 32.328125 
L 27.484375 33.5 
Q 16.453125 35.6875 11.515625 40.375 
Q 6.59375 45.0625 6.59375 53.421875 
Q 6.59375 63.09375 13.40625 68.65625 
Q 20.21875 74.21875 32.171875 74.21875 
Q 37.3125 74.21875 42.625 73.28125 
Q 47.953125 72.359375 53.515625 70.515625 
z
" id="DejaVuSans-83"/>
       <path d="M 19.671875 64.796875 
L 19.671875 37.40625 
L 32.078125 37.40625 
Q 38.96875 37.40625 42.71875 40.96875 
Q 46.484375 44.53125 46.484375 51.125 
Q 46.484375 57.671875 42.71875 61.234375 
Q 38.96875 64.796875 32.078125 64.796875 
z
M 9.8125 72.90625 
L 32.078125 72.90625 
Q 44.34375 72.90625 50.609375 67.359375 
Q 56.890625 61.8125 56.890625 51.125 
Q 56.890625 40.328125 50.609375 34.8125 
Q 44.34375 29.296875 32.078125 29.296875 
L 19.671875 29.296875 
L 19.671875 0 
L 9.8125 0 
z
" id="DejaVuSans-80"/>
      </defs>
      <use xlink:href="#DejaVuSans-83"/>
      <use x="65.351562" xlink:href="#DejaVuSans-65"/>
      <use x="133.759766" xlink:href="#DejaVuSans-83"/>
      <use x="197.236328" xlink:href="#DejaVuSans-80"/>
      <use x="257.539062" xlink:href="#DejaVuSans-50"/>
     </g>
    </g>
    <g id="patch_33">
     <path d="M 840.898 150.245984 
L 878.298 150.245984 
L 878.298 137.155984 
L 840.898 137.155984 
z
" style="fill:#e28e8e;stroke:#4d4d4d;stroke-linejoin:miter;stroke-width:1.5;"/>
    </g>
    <g id="text_12">
     <!-- Fridman -->
     <g style="fill:#262626;" transform="translate(893.258 150.245984)scale(0.187 -0.187)">
      <defs>
       <path d="M 9.8125 72.90625 
L 51.703125 72.90625 
L 51.703125 64.59375 
L 19.671875 64.59375 
L 19.671875 43.109375 
L 48.578125 43.109375 
L 48.578125 34.8125 
L 19.671875 34.8125 
L 19.671875 0 
L 9.8125 0 
z
" id="DejaVuSans-70"/>
       <path d="M 45.40625 46.390625 
L 45.40625 75.984375 
L 54.390625 75.984375 
L 54.390625 0 
L 45.40625 0 
L 45.40625 8.203125 
Q 42.578125 3.328125 38.25 0.953125 
Q 33.9375 -1.421875 27.875 -1.421875 
Q 17.96875 -1.421875 11.734375 6.484375 
Q 5.515625 14.40625 5.515625 27.296875 
Q 5.515625 40.1875 11.734375 48.09375 
Q 17.96875 56 27.875 56 
Q 33.9375 56 38.25 53.625 
Q 42.578125 51.265625 45.40625 46.390625 
z
M 14.796875 27.296875 
Q 14.796875 17.390625 18.875 11.75 
Q 22.953125 6.109375 30.078125 6.109375 
Q 37.203125 6.109375 41.296875 11.75 
Q 45.40625 17.390625 45.40625 27.296875 
Q 45.40625 37.203125 41.296875 42.84375 
Q 37.203125 48.484375 30.078125 48.484375 
Q 22.953125 48.484375 18.875 42.84375 
Q 14.796875 37.203125 14.796875 27.296875 
z
" id="DejaVuSans-100"/>
      </defs>
      <use xlink:href="#DejaVuSans-70"/>
      <use x="50.269531" xlink:href="#DejaVuSans-114"/>
      <use x="91.382812" xlink:href="#DejaVuSans-105"/>
      <use x="119.166016" xlink:href="#DejaVuSans-100"/>
      <use x="182.642578" xlink:href="#DejaVuSans-109"/>
      <use x="280.054688" xlink:href="#DejaVuSans-97"/>
      <use x="341.333984" xlink:href="#DejaVuSans-110"/>
     </g>
    </g>
    <g id="patch_34">
     <path d="M 840.898 177.694078 
L 878.298 177.694078 
L 878.298 164.604078 
L 840.898 164.604078 
z
" style="fill:#cd7dca;stroke:#4d4d4d;stroke-linejoin:miter;stroke-width:1.5;"/>
    </g>
    <g id="text_13">
     <!-- SenMayo -->
     <g style="fill:#262626;" transform="translate(893.258 177.694078)scale(0.187 -0.187)">
      <defs>
       <path d="M 9.8125 72.90625 
L 24.515625 72.90625 
L 43.109375 23.296875 
L 61.8125 72.90625 
L 76.515625 72.90625 
L 76.515625 0 
L 66.890625 0 
L 66.890625 64.015625 
L 48.09375 14.015625 
L 38.1875 14.015625 
L 19.390625 64.015625 
L 19.390625 0 
L 9.8125 0 
z
" id="DejaVuSans-77"/>
      </defs>
      <use xlink:href="#DejaVuSans-83"/>
      <use x="63.476562" xlink:href="#DejaVuSans-101"/>
      <use x="125" xlink:href="#DejaVuSans-110"/>
      <use x="188.378906" xlink:href="#DejaVuSans-77"/>
      <use x="274.658203" xlink:href="#DejaVuSans-97"/>
      <use x="335.9375" xlink:href="#DejaVuSans-121"/>
      <use x="395.117188" xlink:href="#DejaVuSans-111"/>
     </g>
    </g>
    <g id="patch_35">
     <path d="M 840.898 205.142172 
L 878.298 205.142172 
L 878.298 192.052172 
L 840.898 192.052172 
z
" style="fill:#987dce;stroke:#4d4d4d;stroke-linejoin:miter;stroke-width:1.5;"/>
    </g>
    <g id="text_14">
     <!-- Union -->
     <g style="fill:#262626;" transform="translate(893.258 205.142172)scale(0.187 -0.187)">
      <defs>
       <path d="M 8.6875 72.90625 
L 18.609375 72.90625 
L 18.609375 28.609375 
Q 18.609375 16.890625 22.84375 11.734375 
Q 27.09375 6.59375 36.625 6.59375 
Q 46.09375 6.59375 50.34375 11.734375 
Q 54.59375 16.890625 54.59375 28.609375 
L 54.59375 72.90625 
L 64.5 72.90625 
L 64.5 27.390625 
Q 64.5 13.140625 57.4375 5.859375 
Q 50.390625 -1.421875 36.625 -1.421875 
Q 22.796875 -1.421875 15.734375 5.859375 
Q 8.6875 13.140625 8.6875 27.390625 
z
" id="DejaVuSans-85"/>
      </defs>
      <use xlink:href="#DejaVuSans-85"/>
      <use x="73.193359" xlink:href="#DejaVuSans-110"/>
      <use x="136.572266" xlink:href="#DejaVuSans-105"/>
      <use x="164.355469" xlink:href="#DejaVuSans-111"/>
      <use x="225.537109" xlink:href="#DejaVuSans-110"/>
     </g>
    </g>
    <g id="patch_36">
     <path d="M 840.898 232.590266 
L 878.298 232.590266 
L 878.298 219.500266 
L 840.898 219.500266 
z
" style="fill:#808080;stroke:#4d4d4d;stroke-linejoin:miter;stroke-width:1.5;"/>
    </g>
    <g id="text_15">
     <!-- All -->
     <g style="fill:#262626;" transform="translate(893.258 232.590266)scale(0.187 -0.187)">
      <use xlink:href="#DejaVuSans-65"/>
      <use x="68.408203" xlink:href="#DejaVuSans-108"/>
      <use x="96.191406" xlink:href="#DejaVuSans-108"/>
     </g>
    </g>
   </g>
  </g>
 </g>
 <defs>
  <clipPath id="p1c5b349d24">
   <rect height="229.876" width="756.496" x="67.572" y="43.872"/>
  </clipPath>
 </defs>
</svg>
